{"glyphs":{"0":{"ha":826,"x_min":76,"x_max":750,"o":"m 413 -14 q 226 53 301 -14 q 114 233 151 119 q 76 486 76 346 q 114 741 76 628 q 226 920 151 854 q 413 986 301 986 q 601 920 526 986 q 713 741 675 854 q 750 486 750 628 q 713 233 750 346 q 601 53 675 119 q 413 -14 526 -14 m 413 72 q 549 124 494 72 q 633 269 604 175 q 661 486 661 363 q 633 705 661 611 q 549 850 604 799 q 413 901 494 901 q 277 850 332 901 q 194 705 222 799 q 165 486 165 611 q 194 269 165 363 q 277 124 222 175 q 413 72 332 72 z "},"1":{"ha":514,"x_min":33,"x_max":358,"o":"m 314 0 q 282 13 294 0 q 269 42 269 25 l 269 878 l 285 864 l 100 740 q 76 732 89 732 q 47 746 60 732 q 33 776 33 760 q 56 811 33 799 l 288 965 q 305 972 296 971 q 321 972 314 974 q 349 959 339 971 q 358 931 358 947 l 358 42 q 346 13 358 25 q 314 0 333 0 z "},"2":{"ha":769,"x_min":82,"x_max":699,"o":"m 658 81 q 687 69 675 81 q 699 40 699 57 q 687 11 699 22 q 658 0 675 0 l 138 0 q 106 10 119 0 q 93 42 93 21 q 104 71 93 57 l 425 425 q 540 578 501 508 q 578 704 578 649 q 522 851 578 796 q 372 907 467 907 q 287 889 329 907 q 212 842 244 871 q 161 775 179 813 q 144 756 153 761 q 124 750 135 750 q 94 760 107 750 q 82 786 82 771 q 87 806 82 796 q 101 828 92 815 q 171 907 126 871 q 270 965 215 943 q 378 986 325 986 q 531 952 467 986 q 631 856 596 918 q 667 710 667 794 q 622 552 667 638 q 488 368 576 467 l 217 64 l 203 81 l 658 81 z "},"3":{"ha":728,"x_min":67,"x_max":651,"o":"m 124 143 q 138 140 131 143 q 157 128 146 138 q 226 81 186 97 q 318 65 267 65 q 442 96 386 65 q 532 181 499 126 q 565 307 565 236 q 530 437 565 388 q 440 510 494 486 q 328 535 385 535 q 298 533 313 535 q 271 528 283 531 q 251 525 258 525 q 224 537 233 525 q 214 567 214 549 q 218 584 214 576 q 229 601 222 592 l 511 908 l 528 886 l 107 886 q 78 898 90 886 q 67 926 67 910 q 78 954 67 943 q 107 965 90 965 l 574 965 q 607 951 597 965 q 617 922 617 936 q 613 906 617 914 q 601 890 608 899 l 319 583 l 289 601 q 317 610 293 606 q 356 615 342 615 q 499 579 432 615 q 609 476 567 543 q 651 310 651 408 q 606 140 651 213 q 482 26 560 67 q 310 -14 404 -14 q 197 6 253 -14 q 100 64 142 25 q 86 81 90 72 q 82 97 82 89 q 94 128 82 114 q 124 143 106 143 z "},"4":{"ha":732,"x_min":19,"x_max":692,"o":"m 510 0 q 481 13 492 0 q 469 42 469 25 l 469 857 l 488 846 l 122 363 l 118 378 l 651 378 q 680 367 668 378 q 692 339 692 356 q 680 311 692 322 q 651 300 668 300 l 61 300 q 32 313 44 300 q 19 343 19 326 q 29 371 19 358 l 476 956 q 494 969 483 965 q 511 972 504 972 q 541 960 529 972 q 553 931 553 947 l 553 42 q 540 13 553 25 q 510 0 528 0 z "},"5":{"ha":757,"x_min":90,"x_max":679,"o":"m 325 -3 q 210 16 268 -3 q 108 72 153 35 q 95 89 100 79 q 90 108 90 99 q 101 135 90 122 q 131 149 113 149 q 161 136 146 149 q 240 93 197 108 q 325 78 282 78 q 468 109 407 78 q 563 198 529 140 q 596 332 596 256 q 565 455 596 403 q 478 537 535 507 q 346 567 422 567 q 255 551 296 567 q 184 520 214 536 q 136 504 154 504 q 109 513 119 504 q 95 533 99 521 q 94 560 92 546 l 154 931 q 167 953 156 943 q 197 964 179 964 l 615 964 q 644 952 632 964 q 656 924 656 940 q 644 894 656 906 q 615 882 632 882 l 217 882 l 229 894 l 172 565 l 147 583 q 199 611 165 597 q 276 635 233 625 q 365 646 318 646 q 526 606 456 646 q 638 497 597 567 q 679 335 679 426 q 635 158 679 233 q 513 40 592 82 q 325 -3 433 -3 z "},"6":{"ha":747,"x_min":81,"x_max":704,"o":"m 399 -14 q 258 15 318 -14 q 158 94 197 44 q 99 206 118 143 q 81 333 81 268 q 97 477 81 400 q 149 633 114 554 q 234 783 183 713 q 352 910 285 854 q 504 999 419 967 q 521 1001 514 1001 q 552 992 539 1001 q 565 958 565 982 q 556 934 565 944 q 532 918 547 924 q 417 847 474 893 q 311 742 360 801 q 228 613 263 682 q 181 474 194 544 l 150 456 q 215 537 175 501 q 306 594 254 572 q 417 615 357 615 q 532 589 479 615 q 623 517 585 563 q 683 415 661 472 q 704 297 704 358 q 665 144 704 215 q 556 30 625 74 q 399 -14 488 -14 m 397 67 q 511 96 461 67 q 590 177 561 125 q 618 297 618 229 q 594 413 618 360 q 522 501 569 467 q 403 535 474 535 q 276 501 329 535 q 194 413 222 468 q 165 293 165 358 q 193 183 165 235 q 273 99 221 131 q 397 67 325 67 z "},"7":{"ha":713,"x_min":82,"x_max":672,"o":"m 247 -4 q 217 7 231 -4 q 203 35 203 18 q 207 56 203 44 l 576 904 l 592 885 l 122 885 q 94 897 106 885 q 82 925 82 908 q 94 954 82 943 q 122 965 106 965 l 632 965 q 663 954 653 965 q 672 926 672 943 q 668 906 672 915 l 286 24 q 271 3 282 11 q 247 -4 260 -4 z "},"8":{"ha":750,"x_min":76,"x_max":674,"o":"m 506 489 l 501 501 q 588 448 549 483 q 650 365 626 413 q 674 260 674 317 q 634 124 674 185 q 526 26 594 63 q 375 -10 458 -10 q 223 26 290 -10 q 116 124 156 63 q 76 260 76 185 q 101 369 76 321 q 165 450 125 417 q 247 501 204 483 l 243 488 q 173 537 206 506 q 119 612 140 568 q 99 708 99 656 q 135 843 99 783 q 235 938 172 903 q 375 972 299 972 q 513 938 451 972 q 612 843 575 903 q 649 708 649 783 q 628 611 649 654 q 574 537 607 568 q 506 489 540 506 m 185 708 q 211 611 185 653 q 281 546 238 569 q 375 522 324 522 q 468 546 425 522 q 537 611 511 569 q 563 708 563 653 q 510 842 563 790 q 375 893 457 893 q 238 842 290 893 q 185 708 185 790 m 375 69 q 528 124 469 69 q 588 260 588 178 q 558 360 588 315 q 481 429 529 404 q 375 454 432 454 q 269 429 318 454 q 192 360 221 404 q 163 260 163 315 q 221 124 163 178 q 375 69 279 69 z "},"9":{"ha":775,"x_min":81,"x_max":704,"o":"m 385 988 q 527 958 467 988 q 626 880 588 929 q 685 768 665 831 q 704 640 704 706 q 687 498 704 574 q 635 345 669 422 q 551 199 601 268 q 432 74 500 129 q 281 -12 364 18 q 263 -15 269 -15 q 233 -3 246 -15 q 219 28 219 8 q 228 52 219 42 q 253 68 236 63 q 406 167 332 101 q 533 320 479 233 q 604 500 586 407 l 633 518 q 569 438 610 474 q 478 381 529 401 q 368 361 428 361 q 215 405 279 361 q 115 521 150 449 q 81 676 81 593 q 120 829 81 758 q 228 944 160 900 q 385 988 297 988 m 388 907 q 272 878 322 907 q 194 797 222 849 q 165 676 165 744 q 190 561 165 615 q 263 474 214 507 q 381 442 311 442 q 508 474 456 442 q 590 561 561 507 q 619 681 619 615 q 592 792 619 740 q 513 875 564 843 q 388 907 461 907 z "},"A":{"ha":899,"x_min":39,"x_max":858,"o":"m 456 865 l 118 26 q 103 6 113 13 q 81 -1 93 -1 q 51 9 61 -1 q 40 35 42 19 q 42 51 39 42 l 408 949 q 426 970 415 964 q 450 976 436 976 q 474 969 464 976 q 490 949 485 961 l 856 56 q 858 39 858 47 q 846 9 858 19 q 817 -1 833 -1 q 792 6 803 -1 q 776 26 782 14 l 431 871 l 456 865 m 199 281 l 233 363 l 664 363 l 681 281 l 199 281 z "},"Á":{"ha":899,"x_min":39,"x_max":858,"o":"m 456 865 l 118 26 q 103 6 113 13 q 81 -1 93 -1 q 51 9 61 -1 q 40 35 42 19 q 42 51 39 42 l 408 949 q 426 970 415 964 q 450 976 436 976 q 474 969 464 976 q 490 949 485 961 l 856 56 q 858 39 858 47 q 846 9 858 19 q 817 -1 833 -1 q 792 6 803 -1 q 776 26 782 14 l 431 871 l 456 865 m 199 281 l 233 363 l 664 363 l 681 281 l 199 281 m 454 1036 q 434 1044 440 1036 q 428 1061 428 1051 q 431 1074 428 1068 q 442 1086 435 1081 l 565 1182 q 583 1192 574 1188 q 606 1197 593 1197 q 635 1185 624 1197 q 647 1156 647 1174 q 640 1131 647 1142 q 621 1113 633 1119 l 485 1044 q 470 1039 478 1042 q 454 1036 463 1036 z "},"Ă":{"ha":899,"x_min":39,"x_max":858,"o":"m 456 865 l 118 26 q 103 6 113 13 q 81 -1 93 -1 q 51 9 61 -1 q 40 35 42 19 q 42 51 39 42 l 408 949 q 426 970 415 964 q 450 976 436 976 q 474 969 464 976 q 490 949 485 961 l 856 56 q 858 39 858 47 q 846 9 858 19 q 817 -1 833 -1 q 792 6 803 -1 q 776 26 782 14 l 431 871 l 456 865 m 199 281 l 233 363 l 664 363 l 681 281 l 199 281 m 450 1075 q 329 1112 379 1075 q 260 1215 279 1149 q 261 1246 254 1235 q 286 1257 268 1257 q 310 1249 303 1257 q 328 1226 318 1242 q 376 1167 346 1188 q 450 1146 406 1146 q 572 1226 536 1146 q 590 1249 581 1242 q 614 1256 599 1256 q 639 1246 632 1256 q 640 1215 646 1236 q 572 1112 622 1149 q 450 1075 522 1075 z "},"Ắ":{"ha":899,"x_min":39,"x_max":858,"o":"m 456 865 l 118 26 q 103 6 113 13 q 81 -1 93 -1 q 51 9 61 -1 q 40 35 42 19 q 42 51 39 42 l 408 949 q 426 970 415 964 q 450 976 436 976 q 474 969 464 976 q 490 949 485 961 l 856 56 q 858 39 858 47 q 846 9 858 19 q 817 -1 833 -1 q 792 6 803 -1 q 776 26 782 14 l 431 871 l 456 865 m 199 281 l 233 363 l 664 363 l 681 281 l 199 281 m 450 1075 q 329 1112 379 1075 q 260 1215 279 1149 q 261 1246 254 1235 q 286 1257 268 1257 q 310 1249 303 1257 q 328 1226 318 1242 q 376 1167 346 1188 q 450 1146 406 1146 q 572 1226 536 1146 q 590 1249 581 1242 q 614 1256 599 1256 q 639 1246 632 1256 q 640 1215 646 1236 q 572 1112 622 1149 q 450 1075 522 1075 m 454 1313 q 434 1320 440 1313 q 428 1338 428 1328 q 431 1351 428 1344 q 442 1363 435 1357 l 565 1458 q 583 1469 574 1464 q 606 1474 593 1474 q 635 1462 624 1474 q 647 1432 647 1450 q 640 1407 647 1418 q 621 1389 633 1396 l 485 1321 q 470 1315 478 1318 q 454 1313 463 1313 z "},"Ặ":{"ha":899,"x_min":39,"x_max":858,"o":"m 456 865 l 118 26 q 103 6 113 13 q 81 -1 93 -1 q 51 9 61 -1 q 40 35 42 19 q 42 51 39 42 l 408 949 q 426 970 415 964 q 450 976 436 976 q 474 969 464 976 q 490 949 485 961 l 856 56 q 858 39 858 47 q 846 9 858 19 q 817 -1 833 -1 q 792 6 803 -1 q 776 26 782 14 l 431 871 l 456 865 m 199 281 l 233 363 l 664 363 l 681 281 l 199 281 m 450 -193 q 406 -179 421 -193 q 392 -139 392 -165 l 392 -124 q 408 -83 392 -97 q 450 -69 424 -69 q 492 -83 478 -69 q 507 -124 507 -97 l 507 -139 q 492 -179 507 -165 q 450 -193 478 -193 m 450 1075 q 329 1112 379 1075 q 260 1215 279 1149 q 261 1246 254 1235 q 286 1257 268 1257 q 310 1249 303 1257 q 328 1226 318 1242 q 376 1167 346 1188 q 450 1146 406 1146 q 572 1226 536 1146 q 590 1249 581 1242 q 614 1256 599 1256 q 639 1246 632 1256 q 640 1215 646 1236 q 572 1112 622 1149 q 450 1075 522 1075 z "},"Ằ":{"ha":899,"x_min":39,"x_max":858,"o":"m 456 865 l 118 26 q 103 6 113 13 q 81 -1 93 -1 q 51 9 61 -1 q 40 35 42 19 q 42 51 39 42 l 408 949 q 426 970 415 964 q 450 976 436 976 q 474 969 464 976 q 490 949 485 961 l 856 56 q 858 39 858 47 q 846 9 858 19 q 817 -1 833 -1 q 792 6 803 -1 q 776 26 782 14 l 431 871 l 456 865 m 199 281 l 233 363 l 664 363 l 681 281 l 199 281 m 450 1075 q 329 1112 379 1075 q 260 1215 279 1149 q 261 1246 254 1235 q 286 1257 268 1257 q 310 1249 303 1257 q 328 1226 318 1242 q 376 1167 346 1188 q 450 1146 406 1146 q 572 1226 536 1146 q 590 1249 581 1242 q 614 1256 599 1256 q 639 1246 632 1256 q 640 1215 646 1236 q 572 1112 622 1149 q 450 1075 522 1075 m 450 1314 q 435 1317 442 1314 q 419 1322 428 1319 l 285 1390 q 257 1433 257 1406 q 269 1463 257 1451 q 299 1475 281 1475 q 322 1470 311 1475 q 339 1460 332 1465 l 463 1364 q 473 1352 469 1358 q 476 1339 476 1346 q 470 1322 476 1329 q 450 1314 464 1314 z "},"Ẳ":{"ha":899,"x_min":39,"x_max":858,"o":"m 456 865 l 118 26 q 103 6 113 13 q 81 -1 93 -1 q 51 9 61 -1 q 40 35 42 19 q 42 51 39 42 l 408 949 q 426 970 415 964 q 450 976 436 976 q 474 969 464 976 q 490 949 485 961 l 856 56 q 858 39 858 47 q 846 9 858 19 q 817 -1 833 -1 q 792 6 803 -1 q 776 26 782 14 l 431 871 l 456 865 m 199 281 l 233 363 l 664 363 l 681 281 l 199 281 m 450 1075 q 329 1112 379 1075 q 260 1215 279 1149 q 261 1246 254 1235 q 286 1257 268 1257 q 310 1249 303 1257 q 328 1226 318 1242 q 376 1167 346 1188 q 450 1146 406 1146 q 572 1226 536 1146 q 590 1249 581 1242 q 614 1256 599 1256 q 639 1246 632 1256 q 640 1215 646 1236 q 572 1112 622 1149 q 450 1075 522 1075 m 344 1531 q 390 1561 364 1549 q 447 1574 417 1574 q 516 1557 492 1574 q 551 1516 540 1540 q 561 1471 561 1492 q 549 1428 561 1447 q 514 1388 536 1410 q 502 1371 507 1379 q 497 1350 497 1363 q 487 1333 496 1339 q 465 1328 478 1328 q 447 1335 454 1328 q 439 1351 439 1342 q 442 1378 439 1364 q 458 1407 446 1393 q 488 1439 476 1425 q 499 1469 499 1453 q 484 1499 499 1488 q 449 1511 469 1511 q 413 1503 429 1511 q 385 1486 397 1496 q 363 1476 375 1476 q 339 1486 350 1475 q 332 1508 331 1496 q 344 1531 333 1519 z "},"Ẵ":{"ha":899,"x_min":39,"x_max":858,"o":"m 456 865 l 118 26 q 103 6 113 13 q 81 -1 93 -1 q 51 9 61 -1 q 40 35 42 19 q 42 51 39 42 l 408 949 q 426 970 415 964 q 450 976 436 976 q 474 969 464 976 q 490 949 485 961 l 856 56 q 858 39 858 47 q 846 9 858 19 q 817 -1 833 -1 q 792 6 803 -1 q 776 26 782 14 l 431 871 l 456 865 m 199 281 l 233 363 l 664 363 l 681 281 l 199 281 m 450 1075 q 329 1112 379 1075 q 260 1215 279 1149 q 261 1246 254 1235 q 286 1257 268 1257 q 310 1249 303 1257 q 328 1226 318 1242 q 376 1167 346 1188 q 450 1146 406 1146 q 572 1226 536 1146 q 590 1249 581 1242 q 614 1256 599 1256 q 639 1246 632 1256 q 640 1215 646 1236 q 572 1112 622 1149 q 450 1075 522 1075 m 271 1347 q 244 1363 253 1347 q 239 1408 235 1379 q 283 1477 249 1453 q 360 1501 317 1501 q 429 1481 394 1501 q 497 1441 464 1461 q 553 1421 529 1421 q 584 1436 572 1421 q 599 1475 596 1451 q 606 1501 597 1492 q 629 1511 615 1511 q 658 1494 650 1511 q 663 1451 667 1478 q 642 1399 658 1421 q 603 1365 626 1376 q 550 1353 581 1353 q 481 1373 517 1353 q 413 1413 446 1393 q 356 1432 379 1432 q 322 1419 336 1432 q 301 1378 308 1406 q 292 1356 303 1364 q 271 1347 282 1347 z "},"Ǎ":{"ha":899,"x_min":39,"x_max":858,"o":"m 456 865 l 118 26 q 103 6 113 13 q 81 -1 93 -1 q 51 9 61 -1 q 40 35 42 19 q 42 51 39 42 l 408 949 q 426 970 415 964 q 450 976 436 976 q 474 969 464 976 q 490 949 485 961 l 856 56 q 858 39 858 47 q 846 9 858 19 q 817 -1 833 -1 q 792 6 803 -1 q 776 26 782 14 l 431 871 l 456 865 m 199 281 l 233 363 l 664 363 l 681 281 l 199 281 m 439 1114 l 561 1211 q 582 1225 572 1221 q 599 1229 592 1229 q 616 1223 610 1229 q 622 1208 622 1217 q 619 1197 622 1203 q 611 1185 617 1192 l 504 1071 q 485 1053 496 1058 q 458 1047 474 1047 l 443 1047 q 417 1053 428 1047 q 396 1071 406 1058 l 290 1183 q 281 1196 283 1190 q 279 1207 279 1201 q 285 1222 279 1215 q 301 1228 292 1228 q 339 1211 317 1228 l 464 1118 l 439 1114 z "},"Â":{"ha":899,"x_min":39,"x_max":858,"o":"m 456 865 l 118 26 q 103 6 113 13 q 81 -1 93 -1 q 51 9 61 -1 q 40 35 42 19 q 42 51 39 42 l 408 949 q 426 970 415 964 q 450 976 436 976 q 474 969 464 976 q 490 949 485 961 l 856 56 q 858 39 858 47 q 846 9 858 19 q 817 -1 833 -1 q 792 6 803 -1 q 776 26 782 14 l 431 871 l 456 865 m 199 281 l 233 363 l 664 363 l 681 281 l 199 281 m 461 1171 l 339 1075 q 319 1063 328 1068 q 301 1057 310 1057 q 285 1064 292 1057 q 278 1078 278 1071 q 281 1090 278 1085 q 289 1101 283 1094 l 396 1215 q 416 1233 406 1226 q 442 1239 426 1239 l 457 1239 q 483 1233 472 1239 q 504 1215 493 1226 l 610 1103 q 619 1090 617 1096 q 621 1079 621 1085 q 615 1065 621 1072 q 599 1058 608 1058 q 581 1063 590 1058 q 561 1076 572 1068 l 436 1167 l 461 1171 z "},"Ấ":{"ha":899,"x_min":39,"x_max":858,"o":"m 456 865 l 118 26 q 103 6 113 13 q 81 -1 93 -1 q 51 9 61 -1 q 40 35 42 19 q 42 51 39 42 l 408 949 q 426 970 415 964 q 450 976 436 976 q 474 969 464 976 q 490 949 485 961 l 856 56 q 858 39 858 47 q 846 9 858 19 q 817 -1 833 -1 q 792 6 803 -1 q 776 26 782 14 l 431 871 l 456 865 m 199 281 l 233 363 l 664 363 l 681 281 l 199 281 m 461 1171 l 339 1075 q 319 1063 328 1068 q 301 1057 310 1057 q 285 1064 292 1057 q 278 1078 278 1071 q 281 1090 278 1085 q 289 1101 283 1094 l 396 1215 q 416 1233 406 1226 q 442 1239 426 1239 l 457 1239 q 483 1233 472 1239 q 504 1215 493 1226 l 610 1103 q 619 1090 617 1096 q 621 1079 621 1085 q 615 1065 621 1072 q 599 1058 608 1058 q 581 1063 590 1058 q 561 1076 572 1068 l 436 1167 l 461 1171 m 633 1149 q 613 1156 619 1149 q 607 1174 607 1164 q 610 1187 607 1181 q 621 1199 614 1193 l 744 1294 q 763 1305 753 1300 q 785 1310 772 1310 q 815 1298 803 1310 q 826 1268 826 1286 q 819 1243 826 1254 q 800 1225 813 1232 l 664 1157 q 649 1151 657 1154 q 633 1149 642 1149 z "},"Ậ":{"ha":899,"x_min":39,"x_max":858,"o":"m 456 865 l 118 26 q 103 6 113 13 q 81 -1 93 -1 q 51 9 61 -1 q 40 35 42 19 q 42 51 39 42 l 408 949 q 426 970 415 964 q 450 976 436 976 q 474 969 464 976 q 490 949 485 961 l 856 56 q 858 39 858 47 q 846 9 858 19 q 817 -1 833 -1 q 792 6 803 -1 q 776 26 782 14 l 431 871 l 456 865 m 199 281 l 233 363 l 664 363 l 681 281 l 199 281 m 450 -193 q 406 -179 421 -193 q 392 -139 392 -165 l 392 -124 q 408 -83 392 -97 q 450 -69 424 -69 q 492 -83 478 -69 q 507 -124 507 -97 l 507 -139 q 492 -179 507 -165 q 450 -193 478 -193 m 461 1171 l 339 1075 q 319 1063 328 1068 q 301 1057 310 1057 q 285 1064 292 1057 q 278 1078 278 1071 q 281 1090 278 1085 q 289 1101 283 1094 l 396 1215 q 416 1233 406 1226 q 442 1239 426 1239 l 457 1239 q 483 1233 472 1239 q 504 1215 493 1226 l 610 1103 q 619 1090 617 1096 q 621 1079 621 1085 q 615 1065 621 1072 q 599 1058 608 1058 q 581 1063 590 1058 q 561 1076 572 1068 l 436 1167 l 461 1171 z "},"Ầ":{"ha":899,"x_min":39,"x_max":858,"o":"m 456 865 l 118 26 q 103 6 113 13 q 81 -1 93 -1 q 51 9 61 -1 q 40 35 42 19 q 42 51 39 42 l 408 949 q 426 970 415 964 q 450 976 436 976 q 474 969 464 976 q 490 949 485 961 l 856 56 q 858 39 858 47 q 846 9 858 19 q 817 -1 833 -1 q 792 6 803 -1 q 776 26 782 14 l 431 871 l 456 865 m 199 281 l 233 363 l 664 363 l 681 281 l 199 281 m 461 1171 l 339 1075 q 319 1063 328 1068 q 301 1057 310 1057 q 285 1064 292 1057 q 278 1078 278 1071 q 281 1090 278 1085 q 289 1101 283 1094 l 396 1215 q 416 1233 406 1226 q 442 1239 426 1239 l 457 1239 q 483 1233 472 1239 q 504 1215 493 1226 l 610 1103 q 619 1090 617 1096 q 621 1079 621 1085 q 615 1065 621 1072 q 599 1058 608 1058 q 581 1063 590 1058 q 561 1076 572 1068 l 436 1167 l 461 1171 m 618 1214 q 603 1217 610 1214 q 588 1222 596 1219 l 453 1290 q 425 1333 425 1306 q 437 1363 425 1351 q 467 1375 449 1375 q 490 1370 479 1375 q 507 1360 500 1365 l 631 1264 q 641 1252 638 1258 q 644 1239 644 1246 q 638 1222 644 1229 q 618 1214 632 1214 z "},"Ẩ":{"ha":899,"x_min":39,"x_max":858,"o":"m 456 865 l 118 26 q 103 6 113 13 q 81 -1 93 -1 q 51 9 61 -1 q 40 35 42 19 q 42 51 39 42 l 408 949 q 426 970 415 964 q 450 976 436 976 q 474 969 464 976 q 490 949 485 961 l 856 56 q 858 39 858 47 q 846 9 858 19 q 817 -1 833 -1 q 792 6 803 -1 q 776 26 782 14 l 431 871 l 456 865 m 199 281 l 233 363 l 664 363 l 681 281 l 199 281 m 461 1171 l 339 1075 q 319 1063 328 1068 q 301 1057 310 1057 q 285 1064 292 1057 q 278 1078 278 1071 q 281 1090 278 1085 q 289 1101 283 1094 l 396 1215 q 416 1233 406 1226 q 442 1239 426 1239 l 457 1239 q 483 1233 472 1239 q 504 1215 493 1226 l 610 1103 q 619 1090 617 1096 q 621 1079 621 1085 q 615 1065 621 1072 q 599 1058 608 1058 q 581 1063 590 1058 q 561 1076 572 1068 l 436 1167 l 461 1171 m 557 1321 q 603 1351 576 1339 q 660 1364 629 1364 q 728 1347 704 1364 q 763 1306 753 1331 q 774 1261 774 1282 q 761 1219 774 1238 q 726 1178 749 1200 q 715 1161 719 1169 q 710 1140 710 1153 q 699 1124 708 1129 q 678 1118 690 1118 q 659 1125 667 1118 q 651 1142 651 1132 q 655 1169 651 1154 q 671 1197 658 1183 q 700 1229 689 1215 q 711 1260 711 1243 q 697 1290 711 1278 q 661 1301 682 1301 q 626 1294 642 1301 q 597 1276 610 1286 q 575 1266 588 1267 q 551 1276 563 1265 q 544 1298 543 1286 q 557 1321 546 1310 z "},"Ẫ":{"ha":899,"x_min":39,"x_max":858,"o":"m 456 865 l 118 26 q 103 6 113 13 q 81 -1 93 -1 q 51 9 61 -1 q 40 35 42 19 q 42 51 39 42 l 408 949 q 426 970 415 964 q 450 976 436 976 q 474 969 464 976 q 490 949 485 961 l 856 56 q 858 39 858 47 q 846 9 858 19 q 817 -1 833 -1 q 792 6 803 -1 q 776 26 782 14 l 431 871 l 456 865 m 199 281 l 233 363 l 664 363 l 681 281 l 199 281 m 461 1131 l 339 1035 q 319 1022 328 1028 q 301 1017 310 1017 q 285 1024 292 1017 q 278 1038 278 1031 q 281 1049 278 1044 q 289 1061 283 1054 l 396 1175 q 416 1192 406 1186 q 442 1199 426 1199 l 457 1199 q 483 1192 472 1199 q 504 1175 493 1186 l 610 1063 q 619 1050 617 1056 q 621 1039 621 1044 q 615 1025 621 1032 q 599 1018 608 1018 q 581 1023 590 1018 q 561 1036 572 1028 l 436 1126 l 461 1131 m 271 1204 q 244 1220 253 1204 q 239 1265 235 1236 q 283 1334 249 1310 q 360 1358 317 1358 q 429 1338 394 1358 q 497 1298 464 1318 q 553 1278 529 1278 q 584 1293 572 1278 q 599 1332 596 1308 q 606 1358 597 1349 q 629 1368 615 1368 q 658 1351 650 1368 q 663 1308 667 1335 q 642 1256 658 1278 q 603 1222 626 1233 q 550 1210 581 1210 q 481 1230 517 1210 q 413 1269 446 1250 q 356 1289 379 1289 q 322 1276 336 1289 q 301 1235 308 1263 q 292 1213 303 1221 q 271 1204 282 1204 z "},"Ȁ":{"ha":899,"x_min":39,"x_max":858,"o":"m 456 865 l 118 26 q 103 6 113 13 q 81 -1 93 -1 q 51 9 61 -1 q 40 35 42 19 q 42 51 39 42 l 408 949 q 426 970 415 964 q 450 976 436 976 q 474 969 464 976 q 490 949 485 961 l 856 56 q 858 39 858 47 q 846 9 858 19 q 817 -1 833 -1 q 792 6 803 -1 q 776 26 782 14 l 431 871 l 456 865 m 199 281 l 233 363 l 664 363 l 681 281 l 199 281 m 383 1049 q 368 1052 375 1049 q 353 1058 361 1056 l 218 1125 q 190 1169 190 1140 q 202 1199 190 1186 q 232 1211 214 1211 q 255 1206 244 1211 q 272 1194 265 1201 l 396 1099 q 406 1088 403 1093 q 410 1074 410 1082 q 403 1056 410 1064 q 383 1049 397 1049 m 617 1049 q 601 1051 608 1049 q 586 1057 593 1054 l 450 1125 q 424 1168 424 1140 q 435 1198 424 1186 q 465 1210 447 1210 q 488 1205 478 1210 q 506 1194 497 1200 l 629 1099 q 640 1087 636 1093 q 643 1074 643 1081 q 637 1056 643 1064 q 617 1049 631 1049 z "},"Ä":{"ha":899,"x_min":39,"x_max":858,"o":"m 456 865 l 118 26 q 103 6 113 13 q 81 -1 93 -1 q 51 9 61 -1 q 40 35 42 19 q 42 51 39 42 l 408 949 q 426 970 415 964 q 450 976 436 976 q 474 969 464 976 q 490 949 485 961 l 856 56 q 858 39 858 47 q 846 9 858 19 q 817 -1 833 -1 q 792 6 803 -1 q 776 26 782 14 l 431 871 l 456 865 m 199 281 l 233 363 l 664 363 l 681 281 l 199 281 m 569 1076 q 528 1091 543 1076 q 513 1132 513 1106 l 513 1146 q 528 1187 513 1172 q 571 1201 544 1201 q 613 1187 597 1201 q 628 1146 628 1172 l 628 1132 q 613 1090 628 1104 q 569 1076 597 1076 m 331 1076 q 289 1091 304 1076 q 274 1132 274 1106 l 274 1146 q 290 1187 274 1172 q 332 1201 306 1201 q 374 1187 358 1201 q 389 1146 389 1172 l 389 1132 q 374 1090 389 1104 q 331 1076 358 1076 z "},"Ạ":{"ha":899,"x_min":39,"x_max":858,"o":"m 456 865 l 118 26 q 103 6 113 13 q 81 -1 93 -1 q 51 9 61 -1 q 40 35 42 19 q 42 51 39 42 l 408 949 q 426 970 415 964 q 450 976 436 976 q 474 969 464 976 q 490 949 485 961 l 856 56 q 858 39 858 47 q 846 9 858 19 q 817 -1 833 -1 q 792 6 803 -1 q 776 26 782 14 l 431 871 l 456 865 m 199 281 l 233 363 l 664 363 l 681 281 l 199 281 m 450 -193 q 406 -179 421 -193 q 392 -139 392 -165 l 392 -124 q 408 -83 392 -97 q 450 -69 424 -69 q 492 -83 478 -69 q 507 -124 507 -97 l 507 -139 q 492 -179 507 -165 q 450 -193 478 -193 z "},"À":{"ha":899,"x_min":39,"x_max":858,"o":"m 456 865 l 118 26 q 103 6 113 13 q 81 -1 93 -1 q 51 9 61 -1 q 40 35 42 19 q 42 51 39 42 l 408 949 q 426 970 415 964 q 450 976 436 976 q 474 969 464 976 q 490 949 485 961 l 856 56 q 858 39 858 47 q 846 9 858 19 q 817 -1 833 -1 q 792 6 803 -1 q 776 26 782 14 l 431 871 l 456 865 m 199 281 l 233 363 l 664 363 l 681 281 l 199 281 m 450 1038 q 435 1040 442 1038 q 419 1046 428 1043 l 285 1114 q 257 1157 257 1129 q 269 1187 257 1175 q 299 1199 281 1199 q 322 1194 311 1199 q 339 1183 332 1189 l 463 1088 q 473 1076 469 1082 q 476 1063 476 1069 q 470 1045 476 1053 q 450 1038 464 1038 z "},"Ả":{"ha":899,"x_min":39,"x_max":858,"o":"m 456 865 l 118 26 q 103 6 113 13 q 81 -1 93 -1 q 51 9 61 -1 q 40 35 42 19 q 42 51 39 42 l 408 949 q 426 970 415 964 q 450 976 436 976 q 474 969 464 976 q 490 949 485 961 l 856 56 q 858 39 858 47 q 846 9 858 19 q 817 -1 833 -1 q 792 6 803 -1 q 776 26 782 14 l 431 871 l 456 865 m 199 281 l 233 363 l 664 363 l 681 281 l 199 281 m 344 1254 q 390 1285 364 1272 q 447 1297 417 1297 q 516 1281 492 1297 q 551 1240 540 1264 q 561 1194 561 1215 q 549 1152 561 1171 q 514 1111 536 1133 q 502 1094 507 1103 q 497 1074 497 1086 q 487 1057 496 1063 q 465 1051 478 1051 q 447 1058 454 1051 q 439 1075 439 1065 q 442 1102 439 1088 q 458 1131 446 1117 q 488 1163 476 1149 q 499 1193 499 1176 q 484 1223 499 1211 q 449 1235 469 1235 q 413 1227 429 1235 q 385 1210 397 1219 q 363 1199 375 1200 q 339 1210 350 1199 q 332 1231 331 1219 q 344 1254 333 1243 z "},"Ȃ":{"ha":899,"x_min":39,"x_max":858,"o":"m 456 865 l 118 26 q 103 6 113 13 q 81 -1 93 -1 q 51 9 61 -1 q 40 35 42 19 q 42 51 39 42 l 408 949 q 426 970 415 964 q 450 976 436 976 q 474 969 464 976 q 490 949 485 961 l 856 56 q 858 39 858 47 q 846 9 858 19 q 817 -1 833 -1 q 792 6 803 -1 q 776 26 782 14 l 431 871 l 456 865 m 199 281 l 233 363 l 664 363 l 681 281 l 199 281 m 449 1201 q 536 1183 497 1201 q 600 1134 575 1165 q 629 1065 625 1103 q 624 1038 633 1049 q 599 1028 614 1028 q 573 1037 582 1028 q 557 1061 564 1046 q 517 1114 547 1096 q 449 1132 488 1132 q 378 1114 408 1132 q 340 1061 349 1096 q 325 1037 335 1046 q 297 1028 315 1028 q 273 1038 282 1028 q 267 1064 264 1049 q 296 1134 271 1103 q 360 1183 321 1165 q 449 1201 400 1201 z "},"Ā":{"ha":899,"x_min":39,"x_max":858,"o":"m 456 865 l 118 26 q 103 6 113 13 q 81 -1 93 -1 q 51 9 61 -1 q 40 35 42 19 q 42 51 39 42 l 408 949 q 426 970 415 964 q 450 976 436 976 q 474 969 464 976 q 490 949 485 961 l 856 56 q 858 39 858 47 q 846 9 858 19 q 817 -1 833 -1 q 792 6 803 -1 q 776 26 782 14 l 431 871 l 456 865 m 199 281 l 233 363 l 664 363 l 681 281 l 199 281 m 278 1094 q 238 1129 238 1094 q 278 1165 238 1165 l 632 1165 q 672 1129 672 1165 q 632 1094 672 1094 l 278 1094 z "},"Ą":{"ha":900,"x_min":39,"x_max":896,"o":"m 781 -264 q 688 -229 729 -264 q 647 -132 647 -194 q 661 -64 647 -93 q 698 -12 675 -35 q 748 24 721 10 q 800 46 775 38 l 810 28 l 781 17 l 431 871 l 456 865 l 118 26 q 103 6 113 13 q 81 -1 93 -1 q 51 8 60 -1 q 40 33 42 18 q 43 53 39 42 l 408 949 q 426 970 415 964 q 450 976 436 976 q 474 969 464 976 q 490 949 485 961 l 860 46 q 863 31 863 38 q 855 10 863 18 q 832 0 847 3 q 756 -43 789 -10 q 722 -115 722 -76 q 743 -174 722 -154 q 789 -193 764 -193 q 831 -176 819 -193 q 846 -161 838 -167 q 864 -156 854 -156 q 887 -165 878 -156 q 896 -187 896 -174 q 879 -225 896 -207 q 836 -253 863 -243 q 781 -264 810 -264 m 206 281 l 233 363 l 664 363 l 681 281 l 206 281 z "},"Å":{"ha":900,"x_min":39,"x_max":858,"o":"m 450 919 q 381 938 413 919 q 328 987 349 956 q 308 1056 308 1018 q 328 1124 308 1093 q 381 1174 349 1156 q 450 1192 413 1192 q 520 1174 488 1192 q 572 1124 553 1156 q 592 1056 592 1093 q 572 987 592 1018 q 520 938 553 956 q 450 919 488 919 m 450 978 q 508 1001 485 978 q 531 1056 531 1024 q 507 1113 531 1090 q 450 1135 483 1135 q 394 1112 418 1135 q 371 1056 371 1089 q 394 1001 371 1024 q 450 978 418 978 m 456 865 l 118 26 q 103 6 113 13 q 81 -1 93 -1 q 51 9 61 -1 q 40 35 42 19 q 42 51 39 42 l 408 949 q 426 970 415 964 q 450 976 436 976 q 474 969 464 976 q 490 949 485 961 l 856 56 q 858 39 858 47 q 846 9 858 19 q 817 -1 833 -1 q 792 6 803 -1 q 776 26 782 14 l 431 871 l 456 865 m 199 281 l 233 363 l 664 363 l 681 281 l 199 281 z "},"Ǻ":{"ha":900,"x_min":39,"x_max":858,"o":"m 450 919 q 381 938 413 919 q 328 987 349 956 q 308 1056 308 1018 q 328 1124 308 1093 q 381 1174 349 1156 q 450 1192 413 1192 q 520 1174 488 1192 q 572 1124 553 1156 q 592 1056 592 1093 q 572 987 592 1018 q 520 938 553 956 q 450 919 488 919 m 450 978 q 508 1001 485 978 q 531 1056 531 1024 q 507 1113 531 1090 q 450 1135 483 1135 q 394 1112 418 1135 q 371 1056 371 1089 q 394 1001 371 1024 q 450 978 418 978 m 456 865 l 118 26 q 103 6 113 13 q 81 -1 93 -1 q 51 9 61 -1 q 40 35 42 19 q 42 51 39 42 l 408 949 q 426 970 415 964 q 450 976 436 976 q 474 969 464 976 q 490 949 485 961 l 856 56 q 858 39 858 47 q 846 9 858 19 q 817 -1 833 -1 q 792 6 803 -1 q 776 26 782 14 l 431 871 l 456 865 m 199 281 l 233 363 l 664 363 l 681 281 l 199 281 m 454 1254 q 434 1262 440 1254 q 428 1279 428 1269 q 431 1292 428 1286 q 442 1304 435 1299 l 565 1400 q 583 1410 574 1406 q 606 1415 593 1415 q 635 1403 624 1415 q 647 1374 647 1392 q 640 1349 647 1360 q 621 1331 633 1338 l 485 1263 q 470 1257 478 1260 q 454 1254 463 1254 z "},"Ã":{"ha":899,"x_min":39,"x_max":858,"o":"m 456 865 l 118 26 q 103 6 113 13 q 81 -1 93 -1 q 51 9 61 -1 q 40 35 42 19 q 42 51 39 42 l 408 949 q 426 970 415 964 q 450 976 436 976 q 474 969 464 976 q 490 949 485 961 l 856 56 q 858 39 858 47 q 846 9 858 19 q 817 -1 833 -1 q 792 6 803 -1 q 776 26 782 14 l 431 871 l 456 865 m 199 281 l 233 363 l 664 363 l 681 281 l 199 281 m 271 1071 q 244 1087 253 1071 q 239 1132 235 1103 q 283 1201 249 1176 q 360 1225 317 1225 q 429 1205 394 1225 q 497 1165 464 1185 q 553 1144 529 1144 q 584 1160 572 1144 q 599 1199 596 1175 q 606 1225 597 1215 q 629 1235 615 1235 q 658 1218 650 1235 q 663 1175 667 1201 q 642 1122 658 1144 q 603 1088 626 1100 q 550 1076 581 1076 q 481 1097 517 1076 q 413 1136 446 1117 q 356 1156 379 1156 q 322 1142 336 1156 q 301 1101 308 1129 q 292 1079 303 1088 q 271 1071 282 1071 z "},"Æ":{"ha":1276,"x_min":11,"x_max":1211,"o":"m 243 315 l 660 315 l 635 285 l 635 865 l 656 840 l 83 15 q 50 -3 71 -3 q 24 8 36 -3 q 11 38 11 19 q 18 64 11 51 l 642 954 q 660 968 650 964 q 679 972 669 972 l 1169 972 q 1199 960 1186 972 q 1211 931 1211 949 q 1199 901 1211 913 q 1169 890 1186 890 l 710 890 l 721 904 l 721 522 l 711 539 l 1107 539 q 1136 527 1124 539 q 1149 499 1149 515 q 1136 469 1149 481 q 1107 458 1124 458 l 708 458 l 721 472 l 721 63 l 711 82 l 1169 82 q 1199 69 1186 82 q 1211 40 1211 57 q 1199 11 1211 22 q 1169 0 1186 0 l 678 0 q 647 13 660 0 q 635 42 635 25 l 635 253 l 661 235 l 182 235 l 243 315 z "},"Ǽ":{"ha":1276,"x_min":11,"x_max":1211,"o":"m 243 315 l 660 315 l 635 285 l 635 865 l 656 840 l 83 15 q 50 -3 71 -3 q 24 8 36 -3 q 11 38 11 19 q 18 64 11 51 l 642 954 q 660 968 650 964 q 679 972 669 972 l 1169 972 q 1199 960 1186 972 q 1211 931 1211 949 q 1199 901 1211 913 q 1169 890 1186 890 l 710 890 l 721 904 l 721 522 l 711 539 l 1107 539 q 1136 527 1124 539 q 1149 499 1149 515 q 1136 469 1149 481 q 1107 458 1124 458 l 708 458 l 721 472 l 721 63 l 711 82 l 1169 82 q 1199 69 1186 82 q 1211 40 1211 57 q 1199 11 1211 22 q 1169 0 1186 0 l 678 0 q 647 13 660 0 q 635 42 635 25 l 635 253 l 661 235 l 182 235 l 243 315 m 871 1036 q 851 1044 857 1036 q 844 1061 844 1051 q 848 1074 844 1068 q 858 1086 851 1081 l 982 1182 q 1000 1192 990 1188 q 1022 1197 1010 1197 q 1052 1185 1040 1197 q 1064 1156 1064 1174 q 1057 1131 1064 1142 q 1038 1113 1050 1119 l 901 1044 q 887 1039 894 1042 q 871 1036 879 1036 z "},"B":{"ha":904,"x_min":131,"x_max":839,"o":"m 540 972 q 723 909 657 972 q 789 733 789 846 q 764 622 789 675 q 690 537 739 569 q 569 500 642 504 l 564 528 q 665 513 615 528 q 753 467 714 499 q 815 387 792 435 q 839 271 839 339 q 815 147 839 199 q 749 63 790 94 q 656 15 708 31 q 546 0 603 0 l 172 0 q 143 13 156 0 q 131 42 131 25 l 131 931 q 143 960 131 947 q 172 972 156 972 l 540 972 m 529 890 l 203 890 l 219 915 l 219 522 l 204 543 l 529 543 q 651 590 601 544 q 700 726 700 636 q 656 847 700 803 q 529 890 611 890 m 539 460 l 213 460 l 219 468 l 219 69 l 211 82 l 542 82 q 690 127 631 82 q 750 271 750 172 q 721 382 750 340 q 643 442 692 424 q 539 460 594 460 z "},"C":{"ha":907,"x_min":67,"x_max":864,"o":"m 840 900 q 860 872 857 889 q 851 838 863 854 q 826 824 842 825 q 797 829 811 822 q 684 883 744 864 q 554 903 624 903 q 397 873 469 903 q 269 787 324 843 q 185 654 215 731 q 156 486 156 578 q 186 315 156 392 q 272 182 217 238 q 399 97 326 126 q 554 68 471 68 q 683 88 622 68 q 796 140 743 107 q 826 147 810 149 q 851 131 842 144 q 860 98 864 115 q 842 71 857 81 q 760 29 807 49 q 660 -2 713 10 q 554 -14 607 -14 q 367 22 454 -14 q 211 124 279 58 q 105 282 143 190 q 67 486 67 374 q 104 685 67 594 q 208 843 142 776 q 364 947 275 910 q 554 985 453 985 q 707 963 633 985 q 840 900 781 940 z "},"Ć":{"ha":907,"x_min":67,"x_max":864,"o":"m 840 900 q 860 872 857 889 q 851 838 863 854 q 826 824 842 825 q 797 829 811 822 q 684 883 744 864 q 554 903 624 903 q 397 873 469 903 q 269 787 324 843 q 185 654 215 731 q 156 486 156 578 q 186 315 156 392 q 272 182 217 238 q 399 97 326 126 q 554 68 471 68 q 683 88 622 68 q 796 140 743 107 q 826 147 810 149 q 851 131 842 144 q 860 98 864 115 q 842 71 857 81 q 760 29 807 49 q 660 -2 713 10 q 554 -14 607 -14 q 367 22 454 -14 q 211 124 279 58 q 105 282 143 190 q 67 486 67 374 q 104 685 67 594 q 208 843 142 776 q 364 947 275 910 q 554 985 453 985 q 707 963 633 985 q 840 900 781 940 m 546 1036 q 526 1044 532 1036 q 519 1061 519 1051 q 523 1074 519 1068 q 533 1086 526 1081 l 657 1182 q 675 1192 665 1188 q 697 1197 685 1197 q 727 1185 715 1197 q 739 1156 739 1174 q 732 1131 739 1142 q 713 1113 725 1119 l 576 1044 q 562 1039 569 1042 q 546 1036 554 1036 z "},"Č":{"ha":907,"x_min":67,"x_max":864,"o":"m 840 900 q 860 872 857 889 q 851 838 863 854 q 826 824 842 825 q 797 829 811 822 q 684 883 744 864 q 554 903 624 903 q 397 873 469 903 q 269 787 324 843 q 185 654 215 731 q 156 486 156 578 q 186 315 156 392 q 272 182 217 238 q 399 97 326 126 q 554 68 471 68 q 683 88 622 68 q 796 140 743 107 q 826 147 810 149 q 851 131 842 144 q 860 98 864 115 q 842 71 857 81 q 760 29 807 49 q 660 -2 713 10 q 554 -14 607 -14 q 367 22 454 -14 q 211 124 279 58 q 105 282 143 190 q 67 486 67 374 q 104 685 67 594 q 208 843 142 776 q 364 947 275 910 q 554 985 453 985 q 707 963 633 985 q 840 900 781 940 m 531 1114 l 653 1211 q 674 1225 664 1221 q 690 1229 683 1229 q 708 1223 701 1229 q 714 1208 714 1217 q 711 1197 714 1203 q 703 1185 708 1192 l 596 1071 q 576 1053 588 1058 q 550 1047 565 1047 l 535 1047 q 508 1053 519 1047 q 488 1071 497 1058 l 382 1183 q 373 1196 375 1190 q 371 1207 371 1201 q 377 1222 371 1215 q 393 1228 383 1228 q 431 1211 408 1228 l 556 1118 l 531 1114 z "},"Ç":{"ha":907,"x_min":67,"x_max":864,"o":"m 840 900 q 860 872 857 889 q 851 838 863 854 q 826 824 842 825 q 797 829 811 822 q 684 883 744 864 q 554 903 624 903 q 397 873 469 903 q 269 787 324 843 q 185 654 215 731 q 156 486 156 578 q 186 315 156 392 q 272 182 217 238 q 399 97 326 126 q 554 68 471 68 q 683 88 622 68 q 796 140 743 107 q 826 147 810 149 q 851 131 842 144 q 860 98 864 115 q 842 71 857 81 q 760 29 807 49 q 660 -2 713 10 q 554 -14 607 -14 q 367 22 454 -14 q 211 124 279 58 q 105 282 143 190 q 67 486 67 374 q 104 685 67 594 q 208 843 142 776 q 364 947 275 910 q 554 985 453 985 q 707 963 633 985 q 840 900 781 940 m 469 -199 q 447 -193 461 -199 q 422 -177 433 -187 q 411 -156 411 -167 q 421 -131 411 -140 l 542 21 l 594 21 l 506 -172 q 469 -199 494 -199 z "},"Ḉ":{"ha":907,"x_min":67,"x_max":864,"o":"m 840 900 q 860 872 857 889 q 851 838 863 854 q 826 824 842 825 q 797 829 811 822 q 684 883 744 864 q 554 903 624 903 q 397 873 469 903 q 269 787 324 843 q 185 654 215 731 q 156 486 156 578 q 186 315 156 392 q 272 182 217 238 q 399 97 326 126 q 554 68 471 68 q 683 88 622 68 q 796 140 743 107 q 826 147 810 149 q 851 131 842 144 q 860 98 864 115 q 842 71 857 81 q 760 29 807 49 q 660 -2 713 10 q 554 -14 607 -14 q 367 22 454 -14 q 211 124 279 58 q 105 282 143 190 q 67 486 67 374 q 104 685 67 594 q 208 843 142 776 q 364 947 275 910 q 554 985 453 985 q 707 963 633 985 q 840 900 781 940 m 469 -199 q 447 -193 461 -199 q 422 -177 433 -187 q 411 -156 411 -167 q 421 -131 411 -140 l 542 21 l 594 21 l 506 -172 q 469 -199 494 -199 m 546 1036 q 526 1044 532 1036 q 519 1061 519 1051 q 523 1074 519 1068 q 533 1086 526 1081 l 657 1182 q 675 1192 665 1188 q 697 1197 685 1197 q 727 1185 715 1197 q 739 1156 739 1174 q 732 1131 739 1142 q 713 1113 725 1119 l 576 1044 q 562 1039 569 1042 q 546 1036 554 1036 z "},"Ĉ":{"ha":907,"x_min":67,"x_max":864,"o":"m 840 900 q 860 872 857 889 q 851 838 863 854 q 826 824 842 825 q 797 829 811 822 q 684 883 744 864 q 554 903 624 903 q 397 873 469 903 q 269 787 324 843 q 185 654 215 731 q 156 486 156 578 q 186 315 156 392 q 272 182 217 238 q 399 97 326 126 q 554 68 471 68 q 683 88 622 68 q 796 140 743 107 q 826 147 810 149 q 851 131 842 144 q 860 98 864 115 q 842 71 857 81 q 760 29 807 49 q 660 -2 713 10 q 554 -14 607 -14 q 367 22 454 -14 q 211 124 279 58 q 105 282 143 190 q 67 486 67 374 q 104 685 67 594 q 208 843 142 776 q 364 947 275 910 q 554 985 453 985 q 707 963 633 985 q 840 900 781 940 m 553 1171 l 431 1075 q 410 1063 419 1068 q 393 1057 401 1057 q 376 1064 383 1057 q 369 1078 369 1071 q 372 1090 369 1085 q 381 1101 375 1094 l 488 1215 q 508 1233 497 1226 q 533 1239 518 1239 l 549 1239 q 574 1233 564 1239 q 596 1215 585 1226 l 701 1103 q 710 1090 708 1096 q 713 1079 713 1085 q 706 1065 713 1072 q 690 1058 700 1058 q 673 1063 682 1058 q 653 1076 664 1068 l 528 1167 l 553 1171 z "},"Ċ":{"ha":907,"x_min":67,"x_max":864,"o":"m 840 900 q 860 872 857 889 q 851 838 863 854 q 826 824 842 825 q 797 829 811 822 q 684 883 744 864 q 554 903 624 903 q 397 873 469 903 q 269 787 324 843 q 185 654 215 731 q 156 486 156 578 q 186 315 156 392 q 272 182 217 238 q 399 97 326 126 q 554 68 471 68 q 683 88 622 68 q 796 140 743 107 q 826 147 810 149 q 851 131 842 144 q 860 98 864 115 q 842 71 857 81 q 760 29 807 49 q 660 -2 713 10 q 554 -14 607 -14 q 367 22 454 -14 q 211 124 279 58 q 105 282 143 190 q 67 486 67 374 q 104 685 67 594 q 208 843 142 776 q 364 947 275 910 q 554 985 453 985 q 707 963 633 985 q 840 900 781 940 m 522 1069 q 478 1084 493 1069 q 464 1125 464 1099 l 464 1139 q 480 1181 464 1167 q 524 1194 496 1194 q 565 1181 550 1194 q 579 1139 579 1167 l 579 1125 q 565 1083 579 1097 q 522 1069 550 1069 z "},"D":{"ha":999,"x_min":131,"x_max":932,"o":"m 526 972 q 706 933 629 972 q 833 826 783 894 q 908 669 883 757 q 932 486 932 582 q 888 242 932 353 q 755 66 844 132 q 526 0 665 0 l 172 0 q 143 13 156 0 q 131 42 131 25 l 131 931 q 143 960 131 947 q 172 972 156 972 l 526 972 m 513 82 q 703 136 631 82 q 809 283 775 190 q 843 486 843 375 q 824 640 843 567 q 766 769 806 713 q 663 858 726 825 q 513 890 600 890 l 208 890 l 218 903 l 218 68 l 210 82 l 513 82 z "},"Ǆ":{"ha":1893,"x_min":131,"x_max":1829,"o":"m 526 972 q 706 933 629 972 q 833 826 783 894 q 908 669 883 757 q 932 486 932 582 q 888 242 932 353 q 755 66 844 132 q 526 0 665 0 l 172 0 q 143 13 156 0 q 131 42 131 25 l 131 931 q 143 960 131 947 q 172 972 156 972 l 526 972 m 513 82 q 703 136 631 82 q 809 283 775 190 q 843 486 843 375 q 824 640 843 567 q 766 769 806 713 q 663 858 726 825 q 513 890 600 890 l 208 890 l 218 903 l 218 68 l 210 82 l 513 82 m 1783 972 q 1817 960 1804 972 q 1829 931 1829 947 q 1821 906 1829 917 l 1189 68 l 1186 79 l 1782 79 q 1811 68 1799 79 q 1824 40 1824 57 q 1811 12 1824 24 q 1782 0 1799 0 l 1117 0 q 1085 14 1097 0 q 1074 43 1074 28 q 1082 68 1074 57 l 1711 899 l 1719 893 l 1151 893 q 1122 905 1133 893 q 1110 933 1110 917 q 1122 961 1110 950 q 1151 972 1133 972 l 1783 972 m 1435 1114 l 1557 1211 q 1578 1225 1568 1221 q 1594 1229 1588 1229 q 1612 1223 1606 1229 q 1618 1208 1618 1217 q 1615 1197 1618 1203 q 1607 1185 1613 1192 l 1500 1071 q 1481 1053 1492 1058 q 1454 1047 1469 1047 l 1439 1047 q 1413 1053 1424 1047 q 1392 1071 1401 1058 l 1286 1183 q 1277 1196 1279 1190 q 1275 1207 1275 1201 q 1281 1222 1275 1215 q 1297 1228 1288 1228 q 1335 1211 1313 1228 l 1460 1118 l 1435 1114 z "},"Ð":{"ha":999,"x_min":24,"x_max":932,"o":"m 526 972 q 706 933 629 972 q 833 826 783 894 q 908 669 883 757 q 932 486 932 582 q 888 242 932 353 q 755 66 844 132 q 526 0 665 0 l 172 0 q 143 13 156 0 q 131 42 131 25 l 131 931 q 143 960 131 947 q 172 972 156 972 l 526 972 m 513 82 q 703 136 631 82 q 809 283 775 190 q 843 486 843 375 q 824 640 843 567 q 766 769 806 713 q 663 858 726 825 q 513 890 600 890 l 208 890 l 218 903 l 218 68 l 210 82 l 513 82 m 65 449 q 35 459 46 449 q 24 489 24 469 q 35 516 24 506 q 65 526 46 526 l 293 526 q 324 516 313 526 q 335 488 335 506 q 324 459 335 469 q 293 449 313 449 l 65 449 z "},"Ď":{"ha":999,"x_min":131,"x_max":932,"o":"m 526 972 q 706 933 629 972 q 833 826 783 894 q 908 669 883 757 q 932 486 932 582 q 888 242 932 353 q 755 66 844 132 q 526 0 665 0 l 172 0 q 143 13 156 0 q 131 42 131 25 l 131 931 q 143 960 131 947 q 172 972 156 972 l 526 972 m 513 82 q 703 136 631 82 q 809 283 775 190 q 843 486 843 375 q 824 640 843 567 q 766 769 806 713 q 663 858 726 825 q 513 890 600 890 l 208 890 l 218 903 l 218 68 l 210 82 l 513 82 m 421 1114 l 543 1211 q 564 1225 554 1221 q 581 1229 574 1229 q 598 1223 592 1229 q 604 1208 604 1217 q 601 1197 604 1203 q 593 1185 599 1192 l 486 1071 q 467 1053 478 1058 q 440 1047 456 1047 l 425 1047 q 399 1053 410 1047 q 378 1071 388 1058 l 272 1183 q 263 1196 265 1190 q 261 1207 261 1201 q 267 1222 261 1215 q 283 1228 274 1228 q 321 1211 299 1228 l 446 1118 l 421 1114 z "},"Ḓ":{"ha":999,"x_min":131,"x_max":932,"o":"m 526 972 q 706 933 629 972 q 833 826 783 894 q 908 669 883 757 q 932 486 932 582 q 888 242 932 353 q 755 66 844 132 q 526 0 665 0 l 172 0 q 143 13 156 0 q 131 42 131 25 l 131 931 q 143 960 131 947 q 172 972 156 972 l 526 972 m 513 82 q 703 136 631 82 q 809 283 775 190 q 843 486 843 375 q 824 640 843 567 q 766 769 806 713 q 663 858 726 825 q 513 890 600 890 l 208 890 l 218 903 l 218 68 l 210 82 l 513 82 m 440 -157 l 319 -258 q 302 -272 310 -267 q 283 -278 294 -278 q 267 -271 274 -278 q 260 -257 260 -264 q 262 -245 260 -250 q 271 -233 264 -240 l 372 -122 q 418 -100 388 -100 l 440 -100 q 466 -104 456 -100 q 485 -122 476 -108 l 585 -232 q 592 -244 590 -239 q 594 -256 594 -250 q 588 -269 594 -262 q 572 -276 582 -276 q 553 -271 561 -276 q 535 -258 544 -265 l 411 -158 l 440 -157 z "},"Đ":{"ha":999,"x_min":24,"x_max":932,"o":"m 526 972 q 706 933 629 972 q 833 826 783 894 q 908 669 883 757 q 932 486 932 582 q 888 242 932 353 q 755 66 844 132 q 526 0 665 0 l 172 0 q 143 13 156 0 q 131 42 131 25 l 131 931 q 143 960 131 947 q 172 972 156 972 l 526 972 m 513 82 q 703 136 631 82 q 809 283 775 190 q 843 486 843 375 q 824 640 843 567 q 766 769 806 713 q 663 858 726 825 q 513 890 600 890 l 208 890 l 218 903 l 218 68 l 210 82 l 513 82 m 65 449 q 35 459 46 449 q 24 489 24 469 q 35 516 24 506 q 65 526 46 526 l 293 526 q 324 516 313 526 q 335 488 335 506 q 324 459 335 469 q 293 449 313 449 l 65 449 z "},"Ḍ":{"ha":999,"x_min":131,"x_max":932,"o":"m 526 972 q 706 933 629 972 q 833 826 783 894 q 908 669 883 757 q 932 486 932 582 q 888 242 932 353 q 755 66 844 132 q 526 0 665 0 l 172 0 q 143 13 156 0 q 131 42 131 25 l 131 931 q 143 960 131 947 q 172 972 156 972 l 526 972 m 513 82 q 703 136 631 82 q 809 283 775 190 q 843 486 843 375 q 824 640 843 567 q 766 769 806 713 q 663 858 726 825 q 513 890 600 890 l 208 890 l 218 903 l 218 68 l 210 82 l 513 82 m 428 -193 q 384 -179 399 -193 q 369 -139 369 -165 l 369 -124 q 385 -83 369 -97 q 428 -69 401 -69 q 470 -83 456 -69 q 485 -124 485 -97 l 485 -139 q 470 -179 485 -165 q 428 -193 456 -193 z "},"Ḏ":{"ha":999,"x_min":131,"x_max":932,"o":"m 526 972 q 706 933 629 972 q 833 826 783 894 q 908 669 883 757 q 932 486 932 582 q 888 242 932 353 q 755 66 844 132 q 526 0 665 0 l 172 0 q 143 13 156 0 q 131 42 131 25 l 131 931 q 143 960 131 947 q 172 972 156 972 l 526 972 m 513 82 q 703 136 631 82 q 809 283 775 190 q 843 486 843 375 q 824 640 843 567 q 766 769 806 713 q 663 858 726 825 q 513 890 600 890 l 208 890 l 218 903 l 218 68 l 210 82 l 513 82 m 292 -175 q 253 -140 253 -175 q 292 -106 253 -106 l 583 -106 q 622 -140 622 -106 q 583 -175 622 -175 l 292 -175 z "},"ǲ":{"ha":1663,"x_min":131,"x_max":1600,"o":"m 526 972 q 706 933 629 972 q 833 826 783 894 q 908 669 883 757 q 932 486 932 582 q 888 242 932 353 q 755 66 844 132 q 526 0 665 0 l 172 0 q 143 13 156 0 q 131 42 131 25 l 131 931 q 143 960 131 947 q 172 972 156 972 l 526 972 m 513 82 q 703 136 631 82 q 809 283 775 190 q 843 486 843 375 q 824 640 843 567 q 766 769 806 713 q 663 858 726 825 q 513 890 600 890 l 208 890 l 218 903 l 218 68 l 210 82 l 513 82 m 1551 78 q 1580 66 1568 78 q 1592 39 1592 54 q 1580 11 1592 22 q 1551 0 1568 0 l 1100 0 q 1071 14 1082 0 q 1060 40 1060 28 q 1063 56 1060 49 q 1072 72 1065 64 l 1493 654 l 1499 642 l 1135 642 q 1106 653 1118 642 q 1094 681 1094 665 q 1106 708 1094 697 q 1135 719 1118 719 l 1561 719 q 1588 707 1576 719 q 1600 678 1600 694 q 1597 663 1600 669 q 1589 647 1594 656 l 1171 71 l 1154 78 l 1551 78 z "},"ǅ":{"ha":1664,"x_min":131,"x_max":1601,"o":"m 526 972 q 706 933 629 972 q 833 826 783 894 q 908 669 883 757 q 932 486 932 582 q 888 242 932 353 q 755 66 844 132 q 526 0 665 0 l 172 0 q 143 13 156 0 q 131 42 131 25 l 131 931 q 143 960 131 947 q 172 972 156 972 l 526 972 m 513 82 q 703 136 631 82 q 809 283 775 190 q 843 486 843 375 q 824 640 843 567 q 766 769 806 713 q 663 858 726 825 q 513 890 600 890 l 208 890 l 218 903 l 218 68 l 210 82 l 513 82 m 1553 78 q 1581 66 1569 78 q 1593 39 1593 54 q 1581 11 1593 22 q 1553 0 1569 0 l 1101 0 q 1072 14 1083 0 q 1061 40 1061 28 q 1064 56 1061 49 q 1074 72 1067 64 l 1494 654 l 1500 642 l 1136 642 q 1108 653 1119 642 q 1096 681 1096 665 q 1108 708 1096 697 q 1136 719 1119 719 l 1563 719 q 1590 707 1578 719 q 1601 678 1601 694 q 1599 663 1601 669 q 1590 647 1596 656 l 1172 71 l 1156 78 l 1553 78 m 1343 790 q 1296 813 1313 790 l 1197 921 q 1186 944 1186 932 q 1194 960 1186 954 q 1213 967 1201 967 q 1249 949 1226 967 l 1365 854 l 1346 851 l 1460 949 q 1480 963 1471 958 q 1499 968 1489 968 q 1517 962 1510 968 q 1524 946 1524 956 q 1521 934 1524 940 q 1511 921 1518 928 l 1411 813 q 1365 790 1396 790 l 1343 790 z "},"E":{"ha":789,"x_min":131,"x_max":724,"o":"m 172 972 l 682 972 q 711 960 699 972 q 724 931 724 949 q 711 901 724 913 q 682 890 699 890 l 204 890 l 218 914 l 218 524 l 203 542 l 619 542 q 649 529 636 542 q 661 500 661 517 q 649 471 661 482 q 619 460 636 460 l 206 460 l 218 474 l 218 74 l 211 82 l 682 82 q 711 69 699 82 q 724 40 724 57 q 711 11 724 22 q 682 0 699 0 l 172 0 q 143 13 156 0 q 131 42 131 25 l 131 931 q 143 960 131 947 q 172 972 156 972 z "},"É":{"ha":789,"x_min":131,"x_max":724,"o":"m 172 972 l 682 972 q 711 960 699 972 q 724 931 724 949 q 711 901 724 913 q 682 890 699 890 l 204 890 l 218 914 l 218 524 l 203 542 l 619 542 q 649 529 636 542 q 661 500 661 517 q 649 471 661 482 q 619 460 636 460 l 206 460 l 218 474 l 218 74 l 211 82 l 682 82 q 711 69 699 82 q 724 40 724 57 q 711 11 724 22 q 682 0 699 0 l 172 0 q 143 13 156 0 q 131 42 131 25 l 131 931 q 143 960 131 947 q 172 972 156 972 m 446 1036 q 426 1044 432 1036 q 419 1061 419 1051 q 423 1074 419 1068 q 433 1086 426 1081 l 557 1182 q 575 1192 565 1188 q 597 1197 585 1197 q 627 1185 615 1197 q 639 1156 639 1174 q 632 1131 639 1142 q 613 1113 625 1119 l 476 1044 q 462 1039 469 1042 q 446 1036 454 1036 z "},"Ĕ":{"ha":789,"x_min":131,"x_max":724,"o":"m 172 972 l 682 972 q 711 960 699 972 q 724 931 724 949 q 711 901 724 913 q 682 890 699 890 l 204 890 l 218 914 l 218 524 l 203 542 l 619 542 q 649 529 636 542 q 661 500 661 517 q 649 471 661 482 q 619 460 636 460 l 206 460 l 218 474 l 218 74 l 211 82 l 682 82 q 711 69 699 82 q 724 40 724 57 q 711 11 724 22 q 682 0 699 0 l 172 0 q 143 13 156 0 q 131 42 131 25 l 131 931 q 143 960 131 947 q 172 972 156 972 m 442 1075 q 321 1112 371 1075 q 251 1215 271 1149 q 253 1246 246 1235 q 278 1257 260 1257 q 302 1249 294 1257 q 319 1226 310 1242 q 367 1167 338 1188 q 442 1146 397 1146 q 564 1226 528 1146 q 581 1249 572 1242 q 606 1256 590 1256 q 631 1246 624 1256 q 632 1215 638 1236 q 564 1112 614 1149 q 442 1075 514 1075 z "},"Ě":{"ha":789,"x_min":131,"x_max":724,"o":"m 172 972 l 682 972 q 711 960 699 972 q 724 931 724 949 q 711 901 724 913 q 682 890 699 890 l 204 890 l 218 914 l 218 524 l 203 542 l 619 542 q 649 529 636 542 q 661 500 661 517 q 649 471 661 482 q 619 460 636 460 l 206 460 l 218 474 l 218 74 l 211 82 l 682 82 q 711 69 699 82 q 724 40 724 57 q 711 11 724 22 q 682 0 699 0 l 172 0 q 143 13 156 0 q 131 42 131 25 l 131 931 q 143 960 131 947 q 172 972 156 972 m 429 1114 l 551 1211 q 572 1225 563 1221 q 589 1229 582 1229 q 606 1223 600 1229 q 613 1208 613 1217 q 610 1197 613 1203 q 601 1185 607 1192 l 494 1071 q 475 1053 486 1058 q 449 1047 464 1047 l 433 1047 q 407 1053 418 1047 q 386 1071 396 1058 l 281 1183 q 272 1196 274 1190 q 269 1207 269 1201 q 276 1222 269 1215 q 292 1228 282 1228 q 329 1211 307 1228 l 454 1118 l 429 1114 z "},"Ḝ":{"ha":789,"x_min":131,"x_max":724,"o":"m 172 972 l 682 972 q 711 960 699 972 q 724 931 724 949 q 711 901 724 913 q 682 890 699 890 l 204 890 l 218 914 l 218 524 l 203 542 l 619 542 q 649 529 636 542 q 661 500 661 517 q 649 471 661 482 q 619 460 636 460 l 206 460 l 218 474 l 218 74 l 211 82 l 682 82 q 711 69 699 82 q 724 40 724 57 q 711 11 724 22 q 682 0 699 0 l 172 0 q 143 13 156 0 q 131 42 131 25 l 131 931 q 143 960 131 947 q 172 972 156 972 m 340 -199 q 318 -193 332 -199 q 293 -177 304 -187 q 282 -156 282 -167 q 292 -131 282 -140 l 413 21 l 465 21 l 376 -172 q 340 -199 365 -199 m 442 1075 q 321 1112 371 1075 q 251 1215 271 1149 q 253 1246 246 1235 q 278 1257 260 1257 q 302 1249 294 1257 q 319 1226 310 1242 q 367 1167 338 1188 q 442 1146 397 1146 q 564 1226 528 1146 q 581 1249 572 1242 q 606 1256 590 1256 q 631 1246 624 1256 q 632 1215 638 1236 q 564 1112 614 1149 q 442 1075 514 1075 z "},"Ê":{"ha":789,"x_min":131,"x_max":724,"o":"m 172 972 l 682 972 q 711 960 699 972 q 724 931 724 949 q 711 901 724 913 q 682 890 699 890 l 204 890 l 218 914 l 218 524 l 203 542 l 619 542 q 649 529 636 542 q 661 500 661 517 q 649 471 661 482 q 619 460 636 460 l 206 460 l 218 474 l 218 74 l 211 82 l 682 82 q 711 69 699 82 q 724 40 724 57 q 711 11 724 22 q 682 0 699 0 l 172 0 q 143 13 156 0 q 131 42 131 25 l 131 931 q 143 960 131 947 q 172 972 156 972 m 453 1171 l 331 1075 q 310 1063 319 1068 q 293 1057 301 1057 q 276 1064 283 1057 q 269 1078 269 1071 q 272 1090 269 1085 q 281 1101 275 1094 l 388 1215 q 408 1233 397 1226 q 433 1239 418 1239 l 449 1239 q 474 1233 464 1239 q 496 1215 485 1226 l 601 1103 q 610 1090 608 1096 q 613 1079 613 1085 q 606 1065 613 1072 q 590 1058 600 1058 q 573 1063 582 1058 q 553 1076 564 1068 l 428 1167 l 453 1171 z "},"Ế":{"ha":789,"x_min":131,"x_max":840,"o":"m 172 972 l 682 972 q 711 960 699 972 q 724 931 724 949 q 711 901 724 913 q 682 890 699 890 l 204 890 l 218 914 l 218 524 l 203 542 l 619 542 q 649 529 636 542 q 661 500 661 517 q 649 471 661 482 q 619 460 636 460 l 206 460 l 218 474 l 218 74 l 211 82 l 682 82 q 711 69 699 82 q 724 40 724 57 q 711 11 724 22 q 682 0 699 0 l 172 0 q 143 13 156 0 q 131 42 131 25 l 131 931 q 143 960 131 947 q 172 972 156 972 m 453 1171 l 331 1075 q 310 1063 319 1068 q 293 1057 301 1057 q 276 1064 283 1057 q 269 1078 269 1071 q 272 1090 269 1085 q 281 1101 275 1094 l 388 1215 q 408 1233 397 1226 q 433 1239 418 1239 l 449 1239 q 474 1233 464 1239 q 496 1215 485 1226 l 601 1103 q 610 1090 608 1096 q 613 1079 613 1085 q 606 1065 613 1072 q 590 1058 600 1058 q 573 1063 582 1058 q 553 1076 564 1068 l 428 1167 l 453 1171 m 646 1139 q 626 1147 632 1139 q 619 1164 619 1154 q 623 1177 619 1171 q 633 1189 626 1183 l 757 1285 q 775 1295 765 1290 q 797 1300 785 1300 q 827 1288 815 1300 q 839 1258 839 1276 q 832 1233 839 1244 q 813 1215 825 1222 l 676 1147 q 662 1142 669 1144 q 646 1139 654 1139 z "},"Ệ":{"ha":789,"x_min":131,"x_max":724,"o":"m 172 972 l 682 972 q 711 960 699 972 q 724 931 724 949 q 711 901 724 913 q 682 890 699 890 l 204 890 l 218 914 l 218 524 l 203 542 l 619 542 q 649 529 636 542 q 661 500 661 517 q 649 471 661 482 q 619 460 636 460 l 206 460 l 218 474 l 218 74 l 211 82 l 682 82 q 711 69 699 82 q 724 40 724 57 q 711 11 724 22 q 682 0 699 0 l 172 0 q 143 13 156 0 q 131 42 131 25 l 131 931 q 143 960 131 947 q 172 972 156 972 m 433 -193 q 390 -179 404 -193 q 375 -139 375 -165 l 375 -124 q 391 -83 375 -97 q 433 -69 407 -69 q 476 -83 461 -69 q 490 -124 490 -97 l 490 -139 q 476 -179 490 -165 q 433 -193 461 -193 m 453 1171 l 331 1075 q 310 1063 319 1068 q 293 1057 301 1057 q 276 1064 283 1057 q 269 1078 269 1071 q 272 1090 269 1085 q 281 1101 275 1094 l 388 1215 q 408 1233 397 1226 q 433 1239 418 1239 l 449 1239 q 474 1233 464 1239 q 496 1215 485 1226 l 601 1103 q 610 1090 608 1096 q 613 1079 613 1085 q 606 1065 613 1072 q 590 1058 600 1058 q 573 1063 582 1058 q 553 1076 564 1068 l 428 1167 l 453 1171 z "},"Ề":{"ha":789,"x_min":131,"x_max":724,"o":"m 172 972 l 682 972 q 711 960 699 972 q 724 931 724 949 q 711 901 724 913 q 682 890 699 890 l 204 890 l 218 914 l 218 524 l 203 542 l 619 542 q 649 529 636 542 q 661 500 661 517 q 649 471 661 482 q 619 460 636 460 l 206 460 l 218 474 l 218 74 l 211 82 l 682 82 q 711 69 699 82 q 724 40 724 57 q 711 11 724 22 q 682 0 699 0 l 172 0 q 143 13 156 0 q 131 42 131 25 l 131 931 q 143 960 131 947 q 172 972 156 972 m 453 1171 l 331 1075 q 310 1063 319 1068 q 293 1057 301 1057 q 276 1064 283 1057 q 269 1078 269 1071 q 272 1090 269 1085 q 281 1101 275 1094 l 388 1215 q 408 1233 397 1226 q 433 1239 418 1239 l 449 1239 q 474 1233 464 1239 q 496 1215 485 1226 l 601 1103 q 610 1090 608 1096 q 613 1079 613 1085 q 606 1065 613 1072 q 590 1058 600 1058 q 573 1063 582 1058 q 553 1076 564 1068 l 428 1167 l 453 1171 m 611 1228 q 596 1231 603 1228 q 581 1236 589 1233 l 446 1304 q 418 1347 418 1319 q 430 1377 418 1365 q 460 1389 442 1389 q 483 1384 472 1389 q 500 1374 493 1379 l 624 1278 q 634 1266 631 1272 q 638 1253 638 1260 q 631 1235 638 1243 q 611 1228 625 1228 z "},"Ể":{"ha":789,"x_min":131,"x_max":724,"o":"m 172 972 l 682 972 q 711 960 699 972 q 724 931 724 949 q 711 901 724 913 q 682 890 699 890 l 204 890 l 218 914 l 218 524 l 203 542 l 619 542 q 649 529 636 542 q 661 500 661 517 q 649 471 661 482 q 619 460 636 460 l 206 460 l 218 474 l 218 74 l 211 82 l 682 82 q 711 69 699 82 q 724 40 724 57 q 711 11 724 22 q 682 0 699 0 l 172 0 q 143 13 156 0 q 131 42 131 25 l 131 931 q 143 960 131 947 q 172 972 156 972 m 453 1171 l 331 1075 q 310 1063 319 1068 q 293 1057 301 1057 q 276 1064 283 1057 q 269 1078 269 1071 q 272 1090 269 1085 q 281 1101 275 1094 l 388 1215 q 408 1233 397 1226 q 433 1239 418 1239 l 449 1239 q 474 1233 464 1239 q 496 1215 485 1226 l 601 1103 q 610 1090 608 1096 q 613 1079 613 1085 q 606 1065 613 1072 q 590 1058 600 1058 q 573 1063 582 1058 q 553 1076 564 1068 l 428 1167 l 453 1171 m 336 1531 q 382 1561 356 1549 q 439 1574 408 1574 q 508 1557 483 1574 q 542 1516 532 1540 q 553 1471 553 1492 q 540 1428 553 1447 q 506 1388 528 1410 q 494 1371 499 1379 q 489 1350 489 1363 q 478 1333 488 1339 q 457 1328 469 1328 q 438 1335 446 1328 q 431 1351 431 1342 q 434 1378 431 1364 q 450 1407 438 1393 q 479 1439 468 1425 q 490 1469 490 1453 q 476 1499 490 1488 q 440 1511 461 1511 q 405 1503 421 1511 q 376 1486 389 1496 q 354 1476 367 1476 q 331 1486 342 1475 q 324 1508 322 1496 q 336 1531 325 1519 z "},"Ễ":{"ha":789,"x_min":131,"x_max":724,"o":"m 172 972 l 682 972 q 711 960 699 972 q 724 931 724 949 q 711 901 724 913 q 682 890 699 890 l 204 890 l 218 914 l 218 524 l 203 542 l 619 542 q 649 529 636 542 q 661 500 661 517 q 649 471 661 482 q 619 460 636 460 l 206 460 l 218 474 l 218 74 l 211 82 l 682 82 q 711 69 699 82 q 724 40 724 57 q 711 11 724 22 q 682 0 699 0 l 172 0 q 143 13 156 0 q 131 42 131 25 l 131 931 q 143 960 131 947 q 172 972 156 972 m 453 1171 l 331 1075 q 310 1063 319 1068 q 293 1057 301 1057 q 276 1064 283 1057 q 269 1078 269 1071 q 272 1090 269 1085 q 281 1101 275 1094 l 388 1215 q 408 1233 397 1226 q 433 1239 418 1239 l 449 1239 q 474 1233 464 1239 q 496 1215 485 1226 l 601 1103 q 610 1090 608 1096 q 613 1079 613 1085 q 606 1065 613 1072 q 590 1058 600 1058 q 573 1063 582 1058 q 553 1076 564 1068 l 428 1167 l 453 1171 m 263 1247 q 235 1263 244 1247 q 231 1308 226 1279 q 274 1377 240 1353 q 351 1401 308 1401 q 421 1381 386 1401 q 488 1341 456 1361 q 544 1321 521 1321 q 576 1336 564 1321 q 590 1375 588 1351 q 598 1401 589 1392 q 621 1411 607 1411 q 650 1394 642 1411 q 654 1351 658 1378 q 634 1299 650 1321 q 595 1265 618 1276 q 542 1253 572 1253 q 473 1273 508 1253 q 404 1313 438 1293 q 347 1332 371 1332 q 314 1319 328 1332 q 293 1278 300 1306 q 284 1256 294 1264 q 263 1247 274 1247 z "},"Ȅ":{"ha":789,"x_min":131,"x_max":724,"o":"m 172 972 l 682 972 q 711 960 699 972 q 724 931 724 949 q 711 901 724 913 q 682 890 699 890 l 204 890 l 218 914 l 218 524 l 203 542 l 619 542 q 649 529 636 542 q 661 500 661 517 q 649 471 661 482 q 619 460 636 460 l 206 460 l 218 474 l 218 74 l 211 82 l 682 82 q 711 69 699 82 q 724 40 724 57 q 711 11 724 22 q 682 0 699 0 l 172 0 q 143 13 156 0 q 131 42 131 25 l 131 931 q 143 960 131 947 q 172 972 156 972 m 374 1049 q 358 1052 365 1049 q 343 1058 351 1056 l 208 1125 q 181 1169 181 1140 q 192 1199 181 1186 q 222 1211 204 1211 q 245 1206 235 1211 q 263 1194 256 1201 l 386 1099 q 397 1088 393 1093 q 400 1074 400 1082 q 394 1056 400 1064 q 374 1049 388 1049 m 607 1049 q 591 1051 599 1049 q 576 1057 583 1054 l 440 1125 q 414 1168 414 1140 q 426 1198 414 1186 q 456 1210 438 1210 q 478 1205 468 1210 q 496 1194 488 1200 l 619 1099 q 630 1087 626 1093 q 633 1074 633 1081 q 627 1056 633 1064 q 607 1049 621 1049 z "},"Ë":{"ha":789,"x_min":131,"x_max":724,"o":"m 172 972 l 682 972 q 711 960 699 972 q 724 931 724 949 q 711 901 724 913 q 682 890 699 890 l 204 890 l 218 914 l 218 524 l 203 542 l 619 542 q 649 529 636 542 q 661 500 661 517 q 649 471 661 482 q 619 460 636 460 l 206 460 l 218 474 l 218 74 l 211 82 l 682 82 q 711 69 699 82 q 724 40 724 57 q 711 11 724 22 q 682 0 699 0 l 172 0 q 143 13 156 0 q 131 42 131 25 l 131 931 q 143 960 131 947 q 172 972 156 972 m 561 1076 q 519 1091 535 1076 q 504 1132 504 1106 l 504 1146 q 520 1187 504 1172 q 563 1201 536 1201 q 604 1187 589 1201 q 619 1146 619 1172 l 619 1132 q 604 1090 619 1104 q 561 1076 589 1076 m 322 1076 q 281 1091 296 1076 q 265 1132 265 1106 l 265 1146 q 281 1187 265 1172 q 324 1201 297 1201 q 365 1187 350 1201 q 381 1146 381 1172 l 381 1132 q 365 1090 381 1104 q 322 1076 350 1076 z "},"Ė":{"ha":789,"x_min":131,"x_max":724,"o":"m 172 972 l 682 972 q 711 960 699 972 q 724 931 724 949 q 711 901 724 913 q 682 890 699 890 l 204 890 l 218 914 l 218 524 l 203 542 l 619 542 q 649 529 636 542 q 661 500 661 517 q 649 471 661 482 q 619 460 636 460 l 206 460 l 218 474 l 218 74 l 211 82 l 682 82 q 711 69 699 82 q 724 40 724 57 q 711 11 724 22 q 682 0 699 0 l 172 0 q 143 13 156 0 q 131 42 131 25 l 131 931 q 143 960 131 947 q 172 972 156 972 m 442 1069 q 398 1084 413 1069 q 383 1125 383 1099 l 383 1139 q 399 1181 383 1167 q 443 1194 415 1194 q 484 1181 469 1194 q 499 1139 499 1167 l 499 1125 q 484 1083 499 1097 q 442 1069 469 1069 z "},"Ẹ":{"ha":789,"x_min":131,"x_max":724,"o":"m 172 972 l 682 972 q 711 960 699 972 q 724 931 724 949 q 711 901 724 913 q 682 890 699 890 l 204 890 l 218 914 l 218 524 l 203 542 l 619 542 q 649 529 636 542 q 661 500 661 517 q 649 471 661 482 q 619 460 636 460 l 206 460 l 218 474 l 218 74 l 211 82 l 682 82 q 711 69 699 82 q 724 40 724 57 q 711 11 724 22 q 682 0 699 0 l 172 0 q 143 13 156 0 q 131 42 131 25 l 131 931 q 143 960 131 947 q 172 972 156 972 m 433 -193 q 390 -179 404 -193 q 375 -139 375 -165 l 375 -124 q 391 -83 375 -97 q 433 -69 407 -69 q 476 -83 461 -69 q 490 -124 490 -97 l 490 -139 q 476 -179 490 -165 q 433 -193 461 -193 z "},"È":{"ha":789,"x_min":131,"x_max":724,"o":"m 172 972 l 682 972 q 711 960 699 972 q 724 931 724 949 q 711 901 724 913 q 682 890 699 890 l 204 890 l 218 914 l 218 524 l 203 542 l 619 542 q 649 529 636 542 q 661 500 661 517 q 649 471 661 482 q 619 460 636 460 l 206 460 l 218 474 l 218 74 l 211 82 l 682 82 q 711 69 699 82 q 724 40 724 57 q 711 11 724 22 q 682 0 699 0 l 172 0 q 143 13 156 0 q 131 42 131 25 l 131 931 q 143 960 131 947 q 172 972 156 972 m 442 1038 q 426 1040 433 1038 q 411 1046 419 1043 l 276 1114 q 249 1157 249 1129 q 260 1187 249 1175 q 290 1199 272 1199 q 313 1194 303 1199 q 331 1183 324 1189 l 454 1088 q 465 1076 461 1082 q 468 1063 468 1069 q 462 1045 468 1053 q 442 1038 456 1038 z "},"Ẻ":{"ha":789,"x_min":131,"x_max":724,"o":"m 172 972 l 682 972 q 711 960 699 972 q 724 931 724 949 q 711 901 724 913 q 682 890 699 890 l 204 890 l 218 914 l 218 524 l 203 542 l 619 542 q 649 529 636 542 q 661 500 661 517 q 649 471 661 482 q 619 460 636 460 l 206 460 l 218 474 l 218 74 l 211 82 l 682 82 q 711 69 699 82 q 724 40 724 57 q 711 11 724 22 q 682 0 699 0 l 172 0 q 143 13 156 0 q 131 42 131 25 l 131 931 q 143 960 131 947 q 172 972 156 972 m 336 1254 q 382 1285 356 1272 q 439 1297 408 1297 q 508 1281 483 1297 q 542 1240 532 1264 q 553 1194 553 1215 q 540 1152 553 1171 q 506 1111 528 1133 q 494 1094 499 1103 q 489 1074 489 1086 q 478 1057 488 1063 q 457 1051 469 1051 q 438 1058 446 1051 q 431 1075 431 1065 q 434 1102 431 1088 q 450 1131 438 1117 q 479 1163 468 1149 q 490 1193 490 1176 q 476 1223 490 1211 q 440 1235 461 1235 q 405 1227 421 1235 q 376 1210 389 1219 q 354 1199 367 1200 q 331 1210 342 1199 q 324 1231 322 1219 q 336 1254 325 1243 z "},"Ȇ":{"ha":789,"x_min":131,"x_max":724,"o":"m 172 972 l 682 972 q 711 960 699 972 q 724 931 724 949 q 711 901 724 913 q 682 890 699 890 l 204 890 l 218 914 l 218 524 l 203 542 l 619 542 q 649 529 636 542 q 661 500 661 517 q 649 471 661 482 q 619 460 636 460 l 206 460 l 218 474 l 218 74 l 211 82 l 682 82 q 711 69 699 82 q 724 40 724 57 q 711 11 724 22 q 682 0 699 0 l 172 0 q 143 13 156 0 q 131 42 131 25 l 131 931 q 143 960 131 947 q 172 972 156 972 m 440 1201 q 528 1183 489 1201 q 592 1134 567 1165 q 621 1065 617 1103 q 615 1038 625 1049 q 590 1028 606 1028 q 565 1037 574 1028 q 549 1061 556 1046 q 509 1114 539 1096 q 440 1132 479 1132 q 370 1114 400 1132 q 332 1061 340 1096 q 317 1037 326 1046 q 289 1028 307 1028 q 265 1038 274 1028 q 258 1064 256 1049 q 288 1134 263 1103 q 352 1183 313 1165 q 440 1201 392 1201 z "},"Ē":{"ha":789,"x_min":131,"x_max":724,"o":"m 172 972 l 682 972 q 711 960 699 972 q 724 931 724 949 q 711 901 724 913 q 682 890 699 890 l 204 890 l 218 914 l 218 524 l 203 542 l 619 542 q 649 529 636 542 q 661 500 661 517 q 649 471 661 482 q 619 460 636 460 l 206 460 l 218 474 l 218 74 l 211 82 l 682 82 q 711 69 699 82 q 724 40 724 57 q 711 11 724 22 q 682 0 699 0 l 172 0 q 143 13 156 0 q 131 42 131 25 l 131 931 q 143 960 131 947 q 172 972 156 972 m 269 1094 q 229 1129 229 1094 q 269 1165 229 1165 l 624 1165 q 664 1129 664 1165 q 624 1094 664 1094 l 269 1094 z "},"Ḗ":{"ha":789,"x_min":131,"x_max":724,"o":"m 172 972 l 682 972 q 711 960 699 972 q 724 931 724 949 q 711 901 724 913 q 682 890 699 890 l 204 890 l 218 914 l 218 524 l 203 542 l 619 542 q 649 529 636 542 q 661 500 661 517 q 649 471 661 482 q 619 460 636 460 l 206 460 l 218 474 l 218 74 l 211 82 l 682 82 q 711 69 699 82 q 724 40 724 57 q 711 11 724 22 q 682 0 699 0 l 172 0 q 143 13 156 0 q 131 42 131 25 l 131 931 q 143 960 131 947 q 172 972 156 972 m 269 1094 q 229 1129 229 1094 q 269 1165 229 1165 l 624 1165 q 664 1129 664 1165 q 624 1094 664 1094 l 269 1094 m 446 1250 q 426 1258 432 1250 q 419 1275 419 1265 q 423 1288 419 1282 q 433 1300 426 1294 l 557 1396 q 575 1406 565 1401 q 597 1411 585 1411 q 627 1399 615 1411 q 639 1369 639 1388 q 632 1344 639 1356 q 613 1326 625 1333 l 476 1258 q 462 1253 469 1256 q 446 1250 454 1250 z "},"Ḕ":{"ha":789,"x_min":131,"x_max":724,"o":"m 172 972 l 682 972 q 711 960 699 972 q 724 931 724 949 q 711 901 724 913 q 682 890 699 890 l 204 890 l 218 914 l 218 524 l 203 542 l 619 542 q 649 529 636 542 q 661 500 661 517 q 649 471 661 482 q 619 460 636 460 l 206 460 l 218 474 l 218 74 l 211 82 l 682 82 q 711 69 699 82 q 724 40 724 57 q 711 11 724 22 q 682 0 699 0 l 172 0 q 143 13 156 0 q 131 42 131 25 l 131 931 q 143 960 131 947 q 172 972 156 972 m 269 1094 q 229 1129 229 1094 q 269 1165 229 1165 l 624 1165 q 664 1129 664 1165 q 624 1094 664 1094 l 269 1094 m 442 1251 q 426 1254 433 1251 q 411 1260 419 1257 l 276 1328 q 249 1371 249 1343 q 260 1401 249 1389 q 290 1413 272 1413 q 313 1408 303 1413 q 331 1397 324 1403 l 454 1301 q 465 1290 461 1296 q 468 1276 468 1283 q 462 1259 468 1267 q 442 1251 456 1251 z "},"Ę":{"ha":804,"x_min":131,"x_max":729,"o":"m 614 -264 q 522 -229 563 -264 q 481 -132 481 -194 q 495 -67 481 -96 q 533 -19 510 -39 q 583 15 556 1 q 638 38 611 29 l 643 0 l 172 0 q 143 13 156 0 q 131 42 131 25 l 131 931 q 143 960 131 947 q 172 972 156 972 l 682 972 q 711 960 699 972 q 724 931 724 949 q 711 903 724 914 q 682 892 699 892 l 204 892 l 218 915 l 218 524 l 203 542 l 619 542 q 649 529 636 542 q 661 500 661 517 q 649 472 661 483 q 619 460 636 460 l 206 460 l 218 474 l 218 74 l 211 82 l 682 82 q 711 70 699 82 q 724 40 724 58 q 711 13 724 22 q 676 -1 699 3 q 619 -20 647 -4 q 574 -61 592 -36 q 556 -115 556 -86 q 576 -173 556 -153 q 624 -193 597 -193 q 664 -178 656 -193 q 681 -161 671 -167 q 700 -156 690 -156 q 722 -165 714 -156 q 729 -187 729 -174 q 714 -225 729 -207 q 673 -253 699 -243 q 614 -264 647 -264 z "},"Ẽ":{"ha":789,"x_min":131,"x_max":724,"o":"m 172 972 l 682 972 q 711 960 699 972 q 724 931 724 949 q 711 901 724 913 q 682 890 699 890 l 204 890 l 218 914 l 218 524 l 203 542 l 619 542 q 649 529 636 542 q 661 500 661 517 q 649 471 661 482 q 619 460 636 460 l 206 460 l 218 474 l 218 74 l 211 82 l 682 82 q 711 69 699 82 q 724 40 724 57 q 711 11 724 22 q 682 0 699 0 l 172 0 q 143 13 156 0 q 131 42 131 25 l 131 931 q 143 960 131 947 q 172 972 156 972 m 263 1071 q 235 1087 244 1071 q 231 1132 226 1103 q 274 1201 240 1176 q 351 1225 308 1225 q 421 1205 386 1225 q 488 1165 456 1185 q 544 1144 521 1144 q 576 1160 564 1144 q 590 1199 588 1175 q 598 1225 589 1215 q 621 1235 607 1235 q 650 1218 642 1235 q 654 1175 658 1201 q 634 1122 650 1144 q 595 1088 618 1100 q 542 1076 572 1076 q 473 1097 508 1076 q 404 1136 438 1117 q 347 1156 371 1156 q 314 1142 328 1156 q 293 1101 300 1129 q 284 1079 294 1088 q 263 1071 274 1071 z "},"F":{"ha":786,"x_min":131,"x_max":719,"o":"m 174 0 q 142 13 154 0 q 131 42 131 25 l 131 931 q 143 960 131 947 q 172 972 156 972 l 678 972 q 708 960 696 972 q 719 931 719 949 q 708 902 719 914 q 678 890 696 890 l 210 890 l 215 899 l 215 529 l 208 542 l 615 542 q 645 530 633 542 q 657 501 657 518 q 645 472 657 483 q 615 461 633 461 l 206 461 l 215 472 l 215 42 q 203 13 215 25 q 174 0 192 0 z "},"G":{"ha":965,"x_min":67,"x_max":882,"o":"m 567 -14 q 368 24 460 -14 q 209 128 276 61 q 104 288 142 196 q 67 486 67 379 q 104 685 67 593 q 209 844 142 776 q 368 949 276 911 q 567 986 460 986 q 709 969 640 986 q 832 917 778 951 q 847 901 842 910 q 851 882 851 892 q 839 851 851 863 q 813 839 826 839 q 799 841 806 839 q 788 846 793 843 q 685 888 740 872 q 567 903 629 903 q 354 849 447 903 q 208 700 261 794 q 156 486 156 606 q 208 272 156 367 q 354 124 261 178 q 567 69 447 69 q 692 88 629 69 q 801 136 756 106 l 794 107 l 794 426 l 815 407 l 575 407 q 544 419 557 407 q 532 449 532 432 q 544 479 532 468 q 575 490 557 490 l 840 490 q 870 478 858 490 q 882 449 882 467 l 882 114 q 876 93 882 103 q 861 76 871 83 q 724 10 800 35 q 567 -14 649 -14 z "},"Ğ":{"ha":965,"x_min":67,"x_max":882,"o":"m 567 -14 q 368 24 460 -14 q 209 128 276 61 q 104 288 142 196 q 67 486 67 379 q 104 685 67 593 q 209 844 142 776 q 368 949 276 911 q 567 986 460 986 q 709 969 640 986 q 832 917 778 951 q 847 901 842 910 q 851 882 851 892 q 839 851 851 863 q 813 839 826 839 q 799 841 806 839 q 788 846 793 843 q 685 888 740 872 q 567 903 629 903 q 354 849 447 903 q 208 700 261 794 q 156 486 156 606 q 208 272 156 367 q 354 124 261 178 q 567 69 447 69 q 692 88 629 69 q 801 136 756 106 l 794 107 l 794 426 l 815 407 l 575 407 q 544 419 557 407 q 532 449 532 432 q 544 479 532 468 q 575 490 557 490 l 840 490 q 870 478 858 490 q 882 449 882 467 l 882 114 q 876 93 882 103 q 861 76 871 83 q 724 10 800 35 q 567 -14 649 -14 m 528 1075 q 407 1112 457 1075 q 338 1215 357 1149 q 339 1246 332 1235 q 364 1257 346 1257 q 388 1249 381 1257 q 406 1226 396 1242 q 453 1167 424 1188 q 528 1146 483 1146 q 650 1226 614 1146 q 667 1249 658 1242 q 692 1256 676 1256 q 717 1246 710 1256 q 718 1215 724 1236 q 650 1112 700 1149 q 528 1075 600 1075 z "},"Ǧ":{"ha":965,"x_min":67,"x_max":882,"o":"m 567 -14 q 368 24 460 -14 q 209 128 276 61 q 104 288 142 196 q 67 486 67 379 q 104 685 67 593 q 209 844 142 776 q 368 949 276 911 q 567 986 460 986 q 709 969 640 986 q 832 917 778 951 q 847 901 842 910 q 851 882 851 892 q 839 851 851 863 q 813 839 826 839 q 799 841 806 839 q 788 846 793 843 q 685 888 740 872 q 567 903 629 903 q 354 849 447 903 q 208 700 261 794 q 156 486 156 606 q 208 272 156 367 q 354 124 261 178 q 567 69 447 69 q 692 88 629 69 q 801 136 756 106 l 794 107 l 794 426 l 815 407 l 575 407 q 544 419 557 407 q 532 449 532 432 q 544 479 532 468 q 575 490 557 490 l 840 490 q 870 478 858 490 q 882 449 882 467 l 882 114 q 876 93 882 103 q 861 76 871 83 q 724 10 800 35 q 567 -14 649 -14 m 515 1114 l 638 1211 q 658 1225 649 1221 q 675 1229 668 1229 q 692 1223 686 1229 q 699 1208 699 1217 q 696 1197 699 1203 q 688 1185 693 1192 l 581 1071 q 561 1053 572 1058 q 535 1047 550 1047 l 519 1047 q 493 1053 504 1047 q 472 1071 482 1058 l 367 1183 q 358 1196 360 1190 q 356 1207 356 1201 q 362 1222 356 1215 q 378 1228 368 1228 q 415 1211 393 1228 l 540 1118 l 515 1114 z "},"Ĝ":{"ha":965,"x_min":67,"x_max":882,"o":"m 567 -14 q 368 24 460 -14 q 209 128 276 61 q 104 288 142 196 q 67 486 67 379 q 104 685 67 593 q 209 844 142 776 q 368 949 276 911 q 567 986 460 986 q 709 969 640 986 q 832 917 778 951 q 847 901 842 910 q 851 882 851 892 q 839 851 851 863 q 813 839 826 839 q 799 841 806 839 q 788 846 793 843 q 685 888 740 872 q 567 903 629 903 q 354 849 447 903 q 208 700 261 794 q 156 486 156 606 q 208 272 156 367 q 354 124 261 178 q 567 69 447 69 q 692 88 629 69 q 801 136 756 106 l 794 107 l 794 426 l 815 407 l 575 407 q 544 419 557 407 q 532 449 532 432 q 544 479 532 468 q 575 490 557 490 l 840 490 q 870 478 858 490 q 882 449 882 467 l 882 114 q 876 93 882 103 q 861 76 871 83 q 724 10 800 35 q 567 -14 649 -14 m 538 1171 l 415 1075 q 395 1063 404 1068 q 378 1057 386 1057 q 361 1064 368 1057 q 354 1078 354 1071 q 357 1090 354 1085 q 365 1101 360 1094 l 472 1215 q 492 1233 482 1226 q 518 1239 503 1239 l 533 1239 q 559 1233 549 1239 q 581 1215 569 1226 l 686 1103 q 695 1090 693 1096 q 697 1079 697 1085 q 691 1065 697 1072 q 675 1058 685 1058 q 658 1063 667 1058 q 638 1076 649 1068 l 513 1167 l 538 1171 z "},"Ģ":{"ha":965,"x_min":67,"x_max":882,"o":"m 567 -14 q 368 24 460 -14 q 209 128 276 61 q 104 288 142 196 q 67 486 67 379 q 104 685 67 593 q 209 844 142 776 q 368 949 276 911 q 567 986 460 986 q 709 969 640 986 q 832 917 778 951 q 847 901 842 910 q 851 882 851 892 q 839 851 851 863 q 813 839 826 839 q 799 841 806 839 q 788 846 793 843 q 685 888 740 872 q 567 903 629 903 q 354 849 447 903 q 208 700 261 794 q 156 486 156 606 q 208 272 156 367 q 354 124 261 178 q 567 69 447 69 q 692 88 629 69 q 801 136 756 106 l 794 107 l 794 426 l 815 407 l 575 407 q 544 419 557 407 q 532 449 532 432 q 544 479 532 468 q 575 490 557 490 l 840 490 q 870 478 858 490 q 882 449 882 467 l 882 114 q 876 93 882 103 q 861 76 871 83 q 724 10 800 35 q 567 -14 649 -14 m 626 -149 q 611 -201 626 -176 q 572 -240 596 -225 q 519 -254 547 -254 q 482 -246 493 -254 q 471 -226 471 -237 q 477 -207 471 -214 q 492 -200 483 -200 q 508 -203 499 -200 q 532 -204 517 -207 q 551 -192 544 -203 q 558 -160 558 -181 q 544 -143 558 -143 q 531 -149 536 -143 q 514 -154 526 -154 q 488 -143 497 -156 q 478 -117 478 -131 q 497 -79 478 -93 q 550 -65 517 -65 q 604 -86 582 -65 q 626 -149 626 -107 z "},"Ġ":{"ha":965,"x_min":67,"x_max":882,"o":"m 567 -14 q 368 24 460 -14 q 209 128 276 61 q 104 288 142 196 q 67 486 67 379 q 104 685 67 593 q 209 844 142 776 q 368 949 276 911 q 567 986 460 986 q 709 969 640 986 q 832 917 778 951 q 847 901 842 910 q 851 882 851 892 q 839 851 851 863 q 813 839 826 839 q 799 841 806 839 q 788 846 793 843 q 685 888 740 872 q 567 903 629 903 q 354 849 447 903 q 208 700 261 794 q 156 486 156 606 q 208 272 156 367 q 354 124 261 178 q 567 69 447 69 q 692 88 629 69 q 801 136 756 106 l 794 107 l 794 426 l 815 407 l 575 407 q 544 419 557 407 q 532 449 532 432 q 544 479 532 468 q 575 490 557 490 l 840 490 q 870 478 858 490 q 882 449 882 467 l 882 114 q 876 93 882 103 q 861 76 871 83 q 724 10 800 35 q 567 -14 649 -14 m 528 1069 q 484 1084 499 1069 q 469 1125 469 1099 l 469 1139 q 485 1181 469 1167 q 529 1194 501 1194 q 570 1181 556 1194 q 585 1139 585 1167 l 585 1125 q 570 1083 585 1097 q 528 1069 556 1069 z "},"Ḡ":{"ha":965,"x_min":67,"x_max":882,"o":"m 567 -14 q 368 24 460 -14 q 209 128 276 61 q 104 288 142 196 q 67 486 67 379 q 104 685 67 593 q 209 844 142 776 q 368 949 276 911 q 567 986 460 986 q 709 969 640 986 q 832 917 778 951 q 847 901 842 910 q 851 882 851 892 q 839 851 851 863 q 813 839 826 839 q 799 841 806 839 q 788 846 793 843 q 685 888 740 872 q 567 903 629 903 q 354 849 447 903 q 208 700 261 794 q 156 486 156 606 q 208 272 156 367 q 354 124 261 178 q 567 69 447 69 q 692 88 629 69 q 801 136 756 106 l 794 107 l 794 426 l 815 407 l 575 407 q 544 419 557 407 q 532 449 532 432 q 544 479 532 468 q 575 490 557 490 l 840 490 q 870 478 858 490 q 882 449 882 467 l 882 114 q 876 93 882 103 q 861 76 871 83 q 724 10 800 35 q 567 -14 649 -14 m 356 1094 q 315 1129 315 1094 q 356 1165 315 1165 l 710 1165 q 750 1129 750 1165 q 710 1094 750 1094 l 356 1094 z "},"H":{"ha":1000,"x_min":131,"x_max":869,"o":"m 175 972 q 205 960 192 972 q 218 929 218 947 l 218 43 q 203 13 217 25 q 174 0 190 0 q 142 13 154 0 q 131 43 131 25 l 131 929 q 143 960 131 947 q 175 972 156 972 m 826 972 q 858 960 846 972 q 869 929 869 947 l 869 43 q 856 13 868 25 q 825 0 844 0 q 794 13 807 0 q 782 43 782 25 l 782 929 q 795 960 782 947 q 826 972 808 972 m 168 538 l 828 538 l 826 457 l 163 457 l 168 538 z "},"Ħ":{"ha":1156,"x_min":118,"x_max":1038,"o":"m 157 679 q 129 691 140 679 q 118 718 118 703 q 129 745 118 735 q 157 756 140 756 l 999 756 q 1026 744 1015 756 q 1038 718 1038 733 q 1026 690 1038 701 q 999 679 1015 679 l 157 679 m 251 972 q 282 960 269 972 q 294 929 294 947 l 294 43 q 281 13 294 25 q 251 0 268 0 q 219 13 231 0 q 208 43 208 25 l 208 929 q 221 960 208 947 q 251 972 233 972 m 904 972 q 935 960 922 972 q 947 929 947 947 l 947 43 q 933 13 946 25 q 903 0 921 0 q 872 13 885 0 q 860 43 860 25 l 860 929 q 873 960 860 947 q 904 972 886 972 m 246 538 l 906 538 l 904 457 l 239 457 l 246 538 z "},"Ḫ":{"ha":1000,"x_min":131,"x_max":869,"o":"m 175 972 q 205 960 192 972 q 218 929 218 947 l 218 43 q 203 13 217 25 q 174 0 190 0 q 142 13 154 0 q 131 43 131 25 l 131 929 q 143 960 131 947 q 175 972 156 972 m 826 972 q 858 960 846 972 q 869 929 869 947 l 869 43 q 856 13 868 25 q 825 0 844 0 q 794 13 807 0 q 782 43 782 25 l 782 929 q 795 960 782 947 q 826 972 808 972 m 168 538 l 828 538 l 826 457 l 163 457 l 168 538 m 501 -210 q 415 -187 454 -210 q 349 -125 375 -164 q 319 -42 324 -86 q 326 -15 317 -26 q 350 -4 335 -4 q 378 -13 368 -4 q 393 -37 388 -22 q 431 -113 401 -86 q 501 -140 461 -140 q 570 -113 540 -140 q 610 -37 600 -86 q 626 -13 617 -22 q 651 -4 635 -4 q 676 -15 667 -4 q 682 -42 686 -25 q 653 -125 678 -86 q 589 -187 628 -164 q 501 -210 550 -210 z "},"Ĥ":{"ha":1000,"x_min":131,"x_max":869,"o":"m 175 972 q 205 960 192 972 q 218 929 218 947 l 218 43 q 203 13 217 25 q 174 0 190 0 q 142 13 154 0 q 131 43 131 25 l 131 929 q 143 960 131 947 q 175 972 156 972 m 826 972 q 858 960 846 972 q 869 929 869 947 l 869 43 q 856 13 868 25 q 825 0 844 0 q 794 13 807 0 q 782 43 782 25 l 782 929 q 795 960 782 947 q 826 972 808 972 m 168 538 l 828 538 l 826 457 l 163 457 l 168 538 m 511 1171 l 389 1075 q 369 1063 378 1068 q 351 1057 360 1057 q 335 1064 342 1057 q 328 1078 328 1071 q 331 1090 328 1085 q 339 1101 333 1094 l 446 1215 q 466 1233 456 1226 q 492 1239 476 1239 l 507 1239 q 533 1233 522 1239 q 554 1215 543 1226 l 660 1103 q 669 1090 667 1096 q 671 1079 671 1085 q 665 1065 671 1072 q 649 1058 658 1058 q 631 1063 640 1058 q 611 1076 622 1068 l 486 1167 l 511 1171 z "},"Ḥ":{"ha":1000,"x_min":131,"x_max":869,"o":"m 175 972 q 205 960 192 972 q 218 929 218 947 l 218 43 q 203 13 217 25 q 174 0 190 0 q 142 13 154 0 q 131 43 131 25 l 131 929 q 143 960 131 947 q 175 972 156 972 m 826 972 q 858 960 846 972 q 869 929 869 947 l 869 43 q 856 13 868 25 q 825 0 844 0 q 794 13 807 0 q 782 43 782 25 l 782 929 q 795 960 782 947 q 826 972 808 972 m 168 538 l 828 538 l 826 457 l 163 457 l 168 538 m 500 -193 q 456 -179 471 -193 q 442 -139 442 -165 l 442 -124 q 458 -83 442 -97 q 500 -69 474 -69 q 542 -83 528 -69 q 557 -124 557 -97 l 557 -139 q 542 -179 557 -165 q 500 -193 528 -193 z "},"I":{"ha":347,"x_min":131,"x_max":218,"o":"m 218 43 q 203 13 217 25 q 174 0 190 0 q 142 13 154 0 q 131 43 131 25 l 131 929 q 143 960 131 947 q 175 972 156 972 q 205 960 192 972 q 218 929 218 947 l 218 43 z "},"Ĳ":{"ha":832,"x_min":131,"x_max":701,"o":"m 236 371 q 222 340 235 353 q 193 328 210 328 q 160 340 172 328 q 149 371 149 353 l 149 929 q 161 960 149 947 q 193 972 174 972 q 224 960 211 972 q 236 929 236 947 l 236 371 m 399 -14 q 242 35 311 -14 q 136 163 174 83 q 131 185 131 175 q 144 213 131 203 q 171 224 157 224 q 194 217 185 224 q 211 200 203 210 q 287 106 238 142 q 399 69 336 69 q 512 97 464 69 q 588 172 560 124 q 615 283 615 221 l 615 931 q 628 960 615 947 q 660 972 640 972 q 690 960 679 972 q 701 931 701 947 l 701 283 q 663 130 701 197 q 556 24 625 63 q 399 -14 488 -14 z "},"Í":{"ha":347,"x_min":131,"x_max":372,"o":"m 218 43 q 203 13 217 25 q 174 0 190 0 q 142 13 154 0 q 131 43 131 25 l 131 929 q 143 960 131 947 q 175 972 156 972 q 205 960 192 972 q 218 929 218 947 l 218 43 m 179 1036 q 159 1044 165 1036 q 153 1061 153 1051 q 156 1074 153 1068 q 167 1086 160 1081 l 290 1182 q 308 1192 299 1188 q 331 1197 318 1197 q 360 1185 349 1197 q 372 1156 372 1174 q 365 1131 372 1142 q 346 1113 358 1119 l 210 1044 q 195 1039 203 1042 q 179 1036 188 1036 z "},"Ĭ":{"ha":347,"x_min":-21,"x_max":371,"o":"m 218 43 q 203 13 217 25 q 174 0 190 0 q 142 13 154 0 q 131 43 131 25 l 131 929 q 143 960 131 947 q 175 972 156 972 q 205 960 192 972 q 218 929 218 947 l 218 43 m 175 1075 q 54 1112 104 1075 q -15 1215 4 1149 q -14 1246 -21 1235 q 11 1257 -7 1257 q 35 1249 28 1257 q 53 1226 43 1242 q 101 1167 71 1188 q 175 1146 131 1146 q 297 1226 261 1146 q 315 1249 306 1242 q 339 1256 324 1256 q 364 1246 357 1256 q 365 1215 371 1236 q 297 1112 347 1149 q 175 1075 247 1075 z "},"Ǐ":{"ha":347,"x_min":3,"x_max":346,"o":"m 218 43 q 203 13 217 25 q 174 0 190 0 q 142 13 154 0 q 131 43 131 25 l 131 929 q 143 960 131 947 q 175 972 156 972 q 205 960 192 972 q 218 929 218 947 l 218 43 m 163 1114 l 285 1211 q 306 1225 296 1221 q 322 1229 315 1229 q 340 1223 333 1229 q 346 1208 346 1217 q 343 1197 346 1203 q 335 1185 340 1192 l 228 1071 q 208 1053 219 1058 q 182 1047 197 1047 l 167 1047 q 140 1053 151 1047 q 119 1071 129 1058 l 14 1183 q 5 1196 7 1190 q 3 1207 3 1201 q 9 1222 3 1215 q 25 1228 15 1228 q 63 1211 40 1228 l 188 1118 l 163 1114 z "},"Î":{"ha":347,"x_min":1,"x_max":346,"o":"m 218 43 q 203 13 217 25 q 174 0 190 0 q 142 13 154 0 q 131 43 131 25 l 131 929 q 143 960 131 947 q 175 972 156 972 q 205 960 192 972 q 218 929 218 947 l 218 43 m 185 1171 l 63 1075 q 42 1063 51 1068 q 25 1057 33 1057 q 8 1064 15 1057 q 1 1078 1 1071 q 4 1090 1 1085 q 13 1101 7 1094 l 119 1215 q 140 1233 129 1226 q 165 1239 150 1239 l 181 1239 q 206 1233 196 1239 q 228 1215 217 1226 l 333 1103 q 342 1090 340 1096 q 344 1079 344 1085 q 338 1065 344 1072 q 322 1058 332 1058 q 305 1063 314 1058 q 285 1076 296 1068 l 160 1167 l 185 1171 z "},"Ȉ":{"ha":347,"x_min":-86,"x_max":367,"o":"m 218 43 q 203 13 217 25 q 174 0 190 0 q 142 13 154 0 q 131 43 131 25 l 131 929 q 143 960 131 947 q 175 972 156 972 q 205 960 192 972 q 218 929 218 947 l 218 43 m 107 1049 q 92 1052 99 1049 q 76 1058 85 1056 l -58 1125 q -86 1169 -86 1140 q -74 1199 -86 1186 q -44 1211 -62 1211 q -22 1206 -32 1211 q -4 1194 -11 1201 l 119 1099 q 130 1088 126 1093 q 133 1074 133 1082 q 127 1056 133 1064 q 107 1049 121 1049 m 340 1049 q 324 1051 332 1049 q 310 1057 317 1054 l 174 1125 q 147 1168 147 1140 q 159 1198 147 1186 q 189 1210 171 1210 q 211 1205 201 1210 q 229 1194 221 1200 l 353 1099 q 363 1087 360 1093 q 367 1074 367 1081 q 360 1056 367 1064 q 340 1049 354 1049 z "},"Ï":{"ha":347,"x_min":-1,"x_max":351,"o":"m 218 43 q 203 13 217 25 q 174 0 190 0 q 142 13 154 0 q 131 43 131 25 l 131 929 q 143 960 131 947 q 175 972 156 972 q 205 960 192 972 q 218 929 218 947 l 218 43 m 294 1076 q 253 1091 268 1076 q 238 1132 238 1106 l 238 1146 q 253 1187 238 1172 q 296 1201 269 1201 q 338 1187 322 1201 q 353 1146 353 1172 l 353 1132 q 338 1090 353 1104 q 294 1076 322 1076 m 56 1076 q 14 1091 29 1076 q -1 1132 -1 1106 l -1 1146 q 15 1187 -1 1172 q 57 1201 31 1201 q 99 1187 83 1201 q 114 1146 114 1172 l 114 1132 q 99 1090 114 1104 q 56 1076 83 1076 z "},"Ḯ":{"ha":347,"x_min":-1,"x_max":372,"o":"m 218 43 q 203 13 217 25 q 174 0 190 0 q 142 13 154 0 q 131 43 131 25 l 131 929 q 143 960 131 947 q 175 972 156 972 q 205 960 192 972 q 218 929 218 947 l 218 43 m 294 1076 q 253 1091 268 1076 q 238 1132 238 1106 l 238 1146 q 253 1187 238 1172 q 296 1201 269 1201 q 338 1187 322 1201 q 353 1146 353 1172 l 353 1132 q 338 1090 353 1104 q 294 1076 322 1076 m 56 1076 q 14 1091 29 1076 q -1 1132 -1 1106 l -1 1146 q 15 1187 -1 1172 q 57 1201 31 1201 q 99 1187 83 1201 q 114 1146 114 1172 l 114 1132 q 99 1090 114 1104 q 56 1076 83 1076 m 179 1272 q 159 1280 165 1272 q 153 1297 153 1288 q 156 1310 153 1304 q 167 1322 160 1317 l 290 1418 q 308 1428 299 1424 q 331 1433 318 1433 q 360 1422 349 1433 q 372 1392 372 1410 q 365 1367 372 1378 q 346 1349 358 1356 l 210 1281 q 195 1275 203 1278 q 179 1272 188 1272 z "},"İ":{"ha":347,"x_min":117,"x_max":232,"o":"m 218 43 q 203 13 217 25 q 174 0 190 0 q 142 13 154 0 q 131 43 131 25 l 131 929 q 143 960 131 947 q 175 972 156 972 q 205 960 192 972 q 218 929 218 947 l 218 43 m 175 1069 q 131 1084 146 1069 q 117 1125 117 1099 l 117 1139 q 133 1181 117 1167 q 176 1194 149 1194 q 217 1181 203 1194 q 232 1139 232 1167 l 232 1125 q 217 1083 232 1097 q 175 1069 203 1069 z "},"Ị":{"ha":347,"x_min":117,"x_max":232,"o":"m 218 43 q 203 13 217 25 q 174 0 190 0 q 142 13 154 0 q 131 43 131 25 l 131 929 q 143 960 131 947 q 175 972 156 972 q 205 960 192 972 q 218 929 218 947 l 218 43 m 175 -193 q 131 -179 146 -193 q 117 -139 117 -165 l 117 -124 q 133 -83 117 -97 q 175 -69 149 -69 q 217 -83 203 -69 q 232 -124 232 -97 l 232 -139 q 217 -179 232 -165 q 175 -193 203 -193 z "},"Ì":{"ha":347,"x_min":-19,"x_max":218,"o":"m 218 43 q 203 13 217 25 q 174 0 190 0 q 142 13 154 0 q 131 43 131 25 l 131 929 q 143 960 131 947 q 175 972 156 972 q 205 960 192 972 q 218 929 218 947 l 218 43 m 175 1038 q 160 1040 167 1038 q 144 1046 153 1043 l 10 1114 q -18 1157 -18 1129 q -6 1187 -18 1175 q 24 1199 6 1199 q 47 1194 36 1199 q 64 1183 57 1189 l 188 1088 q 198 1076 194 1082 q 201 1063 201 1069 q 195 1045 201 1053 q 175 1038 189 1038 z "},"Ỉ":{"ha":347,"x_min":54,"x_max":285,"o":"m 218 43 q 203 13 217 25 q 174 0 190 0 q 142 13 154 0 q 131 43 131 25 l 131 929 q 143 960 131 947 q 175 972 156 972 q 205 960 192 972 q 218 929 218 947 l 218 43 m 68 1254 q 114 1285 88 1272 q 171 1297 140 1297 q 240 1281 215 1297 q 274 1240 264 1264 q 285 1194 285 1215 q 272 1152 285 1171 q 238 1111 260 1133 q 226 1094 231 1103 q 221 1074 221 1086 q 210 1057 219 1063 q 189 1051 201 1051 q 170 1058 178 1051 q 163 1075 163 1065 q 166 1102 163 1088 q 182 1131 169 1117 q 211 1163 200 1149 q 222 1193 222 1176 q 208 1223 222 1211 q 172 1235 193 1235 q 137 1227 153 1235 q 108 1210 121 1219 q 86 1199 99 1200 q 63 1210 74 1199 q 56 1231 54 1219 q 68 1254 57 1243 z "},"Ȋ":{"ha":347,"x_min":-12,"x_max":357,"o":"m 218 43 q 203 13 217 25 q 174 0 190 0 q 142 13 154 0 q 131 43 131 25 l 131 929 q 143 960 131 947 q 175 972 156 972 q 205 960 192 972 q 218 929 218 947 l 218 43 m 174 1201 q 261 1183 222 1201 q 325 1134 300 1165 q 354 1065 350 1103 q 349 1038 358 1049 q 324 1028 339 1028 q 298 1037 307 1028 q 282 1061 289 1046 q 242 1114 272 1096 q 174 1132 213 1132 q 103 1114 133 1132 q 65 1061 74 1096 q 50 1037 60 1046 q 22 1028 40 1028 q -2 1038 7 1028 q -8 1064 -11 1049 q 21 1134 -4 1103 q 85 1183 46 1165 q 174 1201 125 1201 z "},"Ī":{"ha":347,"x_min":-39,"x_max":397,"o":"m 218 43 q 203 13 217 25 q 174 0 190 0 q 142 13 154 0 q 131 43 131 25 l 131 929 q 143 960 131 947 q 175 972 156 972 q 205 960 192 972 q 218 929 218 947 l 218 43 m 3 1094 q -37 1129 -37 1094 q 3 1165 -37 1165 l 357 1165 q 397 1129 397 1165 q 357 1094 397 1094 l 3 1094 z "},"Į":{"ha":326,"x_min":7,"x_max":256,"o":"m 140 -264 q 48 -229 89 -264 q 7 -132 7 -194 q 20 -64 7 -93 q 56 -12 33 -35 q 104 24 78 10 q 158 46 131 38 l 157 19 l 128 33 l 128 929 q 141 960 128 947 q 174 972 154 972 q 204 960 192 972 q 217 929 217 947 l 217 43 q 210 21 217 29 q 188 6 204 13 q 115 -40 149 -8 q 81 -115 81 -71 q 101 -173 81 -153 q 149 -193 122 -193 q 183 -184 172 -193 q 203 -165 194 -175 q 225 -156 213 -156 q 247 -165 239 -156 q 256 -187 256 -174 q 240 -225 256 -207 q 198 -253 224 -243 q 140 -264 172 -264 z "},"Ĩ":{"ha":347,"x_min":-40,"x_max":390,"o":"m 218 43 q 203 13 217 25 q 174 0 190 0 q 142 13 154 0 q 131 43 131 25 l 131 929 q 143 960 131 947 q 175 972 156 972 q 205 960 192 972 q 218 929 218 947 l 218 43 m -4 1071 q -31 1087 -22 1071 q -36 1132 -40 1103 q 8 1201 -26 1176 q 85 1225 42 1225 q 154 1205 119 1225 q 222 1165 189 1185 q 278 1144 254 1144 q 309 1160 297 1144 q 324 1199 321 1175 q 331 1225 322 1215 q 354 1235 340 1235 q 383 1218 375 1235 q 388 1175 392 1201 q 367 1122 383 1144 q 328 1088 351 1100 q 275 1076 306 1076 q 206 1097 242 1076 q 138 1136 171 1117 q 81 1156 104 1156 q 47 1142 61 1156 q 26 1101 33 1129 q 17 1079 28 1088 q -4 1071 7 1071 z "},"J":{"ha":794,"x_min":92,"x_max":664,"o":"m 361 -14 q 204 35 274 -14 q 99 163 135 83 q 92 185 92 175 q 106 213 92 203 q 133 224 119 224 q 156 217 147 224 q 172 200 165 210 q 249 106 199 142 q 361 69 299 69 q 474 97 425 69 q 549 172 522 124 q 576 283 576 221 l 576 931 q 590 960 576 947 q 621 972 603 972 q 652 960 640 972 q 664 931 664 947 l 664 283 q 625 130 664 197 q 518 24 586 63 q 361 -14 450 -14 z "},"Ĵ":{"ha":794,"x_min":92,"x_max":792,"o":"m 361 -14 q 204 35 274 -14 q 99 163 135 83 q 92 185 92 175 q 106 213 92 203 q 133 224 119 224 q 156 217 147 224 q 172 200 165 210 q 249 106 199 142 q 361 69 299 69 q 474 97 425 69 q 549 172 522 124 q 576 283 576 221 l 576 931 q 590 960 576 947 q 621 972 603 972 q 652 960 640 972 q 664 931 664 947 l 664 283 q 625 130 664 197 q 518 24 586 63 q 361 -14 450 -14 m 632 1171 l 510 1075 q 490 1063 499 1068 q 472 1057 481 1057 q 456 1064 463 1057 q 449 1078 449 1071 q 451 1090 449 1085 q 460 1101 454 1094 l 567 1215 q 587 1233 576 1226 q 613 1239 597 1239 l 628 1239 q 653 1233 643 1239 q 675 1215 664 1226 l 781 1103 q 790 1090 788 1096 q 792 1079 792 1085 q 785 1065 792 1072 q 769 1058 779 1058 q 752 1063 761 1058 q 732 1076 743 1068 l 607 1167 l 632 1171 z "},"K":{"ha":938,"x_min":131,"x_max":872,"o":"m 825 -6 q 794 10 807 -6 l 400 506 l 465 571 l 863 68 q 872 39 872 54 q 856 6 872 17 q 825 -6 840 -6 m 810 969 q 838 957 826 969 q 850 929 850 944 q 838 900 850 913 l 207 310 l 196 404 l 779 956 q 810 969 793 969 m 174 0 q 142 13 154 0 q 131 43 131 25 l 131 929 q 143 960 131 947 q 175 972 156 972 q 206 960 193 972 q 218 929 218 947 l 218 43 q 204 13 217 25 q 174 0 192 0 z "},"Ķ":{"ha":938,"x_min":131,"x_max":872,"o":"m 825 -6 q 794 10 807 -6 l 400 506 l 465 571 l 863 68 q 872 39 872 54 q 856 6 872 17 q 825 -6 840 -6 m 810 969 q 838 957 826 969 q 850 929 850 944 q 838 900 850 913 l 207 310 l 196 404 l 779 956 q 810 969 793 969 m 174 0 q 142 13 154 0 q 131 43 131 25 l 131 929 q 143 960 131 947 q 175 972 156 972 q 206 960 193 972 q 218 929 218 947 l 218 43 q 204 13 217 25 q 174 0 192 0 m 510 -149 q 494 -201 510 -176 q 455 -240 479 -225 q 403 -254 431 -254 q 365 -246 376 -254 q 354 -226 354 -237 q 360 -207 354 -214 q 375 -200 367 -200 q 391 -203 382 -200 q 415 -204 400 -207 q 435 -192 428 -203 q 442 -160 442 -181 q 428 -143 442 -143 q 415 -149 419 -143 q 397 -154 410 -154 q 371 -143 381 -156 q 361 -117 361 -131 q 381 -79 361 -93 q 433 -65 400 -65 q 488 -86 465 -65 q 510 -149 510 -107 z "},"L":{"ha":739,"x_min":131,"x_max":710,"o":"m 668 82 q 697 70 685 82 q 710 42 710 58 q 697 12 710 24 q 668 0 685 0 l 172 0 q 142 13 154 0 q 131 42 131 25 l 131 931 q 143 960 131 947 q 175 972 156 972 q 205 960 192 972 q 218 931 218 947 l 218 58 l 192 82 l 668 82 z "},"Ǉ":{"ha":1533,"x_min":131,"x_max":1403,"o":"m 668 82 q 697 70 685 82 q 710 42 710 58 q 697 12 710 24 q 668 0 685 0 l 172 0 q 142 13 154 0 q 131 42 131 25 l 131 931 q 143 960 131 947 q 175 972 156 972 q 205 960 192 972 q 218 931 218 947 l 218 58 l 192 82 l 668 82 m 1100 -14 q 943 35 1013 -14 q 838 163 874 83 q 831 185 831 175 q 844 213 831 203 q 872 224 858 224 q 895 217 886 224 q 911 200 904 210 q 988 106 938 142 q 1100 69 1038 69 q 1213 97 1164 69 q 1288 172 1261 124 q 1315 283 1315 221 l 1315 931 q 1328 960 1315 947 q 1360 972 1342 972 q 1391 960 1379 972 q 1403 931 1403 947 l 1403 283 q 1364 130 1403 197 q 1257 24 1325 63 q 1100 -14 1189 -14 z "},"Ĺ":{"ha":739,"x_min":131,"x_max":710,"o":"m 668 82 q 697 70 685 82 q 710 42 710 58 q 697 12 710 24 q 668 0 685 0 l 172 0 q 142 13 154 0 q 131 42 131 25 l 131 931 q 143 960 131 947 q 175 972 156 972 q 205 960 192 972 q 218 931 218 947 l 218 58 l 192 82 l 668 82 m 165 1036 q 145 1044 151 1036 q 139 1061 139 1051 q 142 1074 139 1068 q 153 1086 146 1081 l 276 1182 q 294 1192 285 1188 q 317 1197 304 1197 q 347 1185 335 1197 q 358 1156 358 1174 q 351 1131 358 1142 q 332 1113 344 1119 l 196 1044 q 181 1039 189 1042 q 165 1036 174 1036 z "},"Ľ":{"ha":739,"x_min":131,"x_max":710,"o":"m 668 82 q 697 70 685 82 q 710 42 710 58 q 697 12 710 24 q 668 0 685 0 l 172 0 q 142 13 154 0 q 131 42 131 25 l 131 931 q 143 960 131 947 q 175 972 156 972 q 205 960 192 972 q 218 931 218 947 l 218 58 l 192 82 l 668 82 m 567 938 q 544 865 567 900 q 490 806 522 829 q 428 783 458 783 q 406 790 417 783 q 396 817 396 797 q 409 838 396 836 q 442 851 422 840 q 478 879 465 863 q 490 918 490 896 q 480 946 490 936 q 456 956 469 956 q 436 953 446 956 q 418 944 426 950 q 406 960 411 951 q 401 981 400 968 q 427 1022 404 1004 q 481 1039 450 1039 q 542 1008 518 1039 q 567 938 567 978 z "},"Ḽ":{"ha":739,"x_min":131,"x_max":710,"o":"m 668 82 q 697 70 685 82 q 710 42 710 58 q 697 12 710 24 q 668 0 685 0 l 172 0 q 142 13 154 0 q 131 42 131 25 l 131 931 q 143 960 131 947 q 175 972 156 972 q 205 960 192 972 q 218 931 218 947 l 218 58 l 192 82 l 668 82 m 408 -157 l 288 -258 q 270 -272 278 -267 q 251 -278 263 -278 q 235 -271 242 -278 q 228 -257 228 -264 q 230 -245 228 -250 q 239 -233 232 -240 l 340 -122 q 386 -100 356 -100 l 408 -100 q 434 -104 424 -100 q 453 -122 444 -108 l 553 -232 q 560 -244 558 -239 q 563 -256 563 -250 q 556 -269 563 -262 q 540 -276 550 -276 q 521 -271 529 -276 q 503 -258 513 -265 l 379 -158 l 408 -157 z "},"Ļ":{"ha":739,"x_min":131,"x_max":710,"o":"m 668 82 q 697 70 685 82 q 710 42 710 58 q 697 12 710 24 q 668 0 685 0 l 172 0 q 142 13 154 0 q 131 42 131 25 l 131 931 q 143 960 131 947 q 175 972 156 972 q 205 960 192 972 q 218 931 218 947 l 218 58 l 192 82 l 668 82 m 478 -149 q 463 -201 478 -176 q 423 -240 447 -225 q 371 -254 399 -254 q 333 -246 344 -254 q 322 -226 322 -237 q 328 -207 322 -214 q 343 -200 335 -200 q 359 -203 350 -200 q 383 -204 368 -207 q 403 -192 396 -203 q 410 -160 410 -181 q 396 -143 410 -143 q 383 -149 388 -143 q 365 -154 378 -154 q 339 -143 349 -156 q 329 -117 329 -131 q 349 -79 329 -93 q 401 -65 368 -65 q 456 -86 433 -65 q 478 -149 478 -107 z "},"Ŀ":{"ha":747,"x_min":131,"x_max":710,"o":"m 668 82 q 697 70 685 82 q 710 42 710 58 q 697 12 710 24 q 668 0 685 0 l 172 0 q 142 13 154 0 q 131 42 131 25 l 131 931 q 143 960 131 947 q 175 972 156 972 q 205 960 192 972 q 218 931 218 947 l 218 58 l 192 82 l 668 82 m 551 460 q 513 474 528 460 q 499 513 499 489 l 499 543 q 513 581 499 567 q 551 596 528 596 l 561 596 q 599 581 585 596 q 614 543 614 567 l 614 513 q 599 474 614 489 q 561 460 585 460 l 551 460 z "},"Ḷ":{"ha":739,"x_min":131,"x_max":710,"o":"m 668 82 q 697 70 685 82 q 710 42 710 58 q 697 12 710 24 q 668 0 685 0 l 172 0 q 142 13 154 0 q 131 42 131 25 l 131 931 q 143 960 131 947 q 175 972 156 972 q 205 960 192 972 q 218 931 218 947 l 218 58 l 192 82 l 668 82 m 396 -193 q 352 -179 367 -193 q 338 -139 338 -165 l 338 -124 q 353 -83 338 -97 q 396 -69 369 -69 q 438 -83 424 -69 q 453 -124 453 -97 l 453 -139 q 438 -179 453 -165 q 396 -193 424 -193 z "},"ǈ":{"ha":1114,"x_min":131,"x_max":965,"o":"m 668 82 q 697 70 685 82 q 710 42 710 58 q 697 12 710 24 q 668 0 685 0 l 172 0 q 142 13 154 0 q 131 42 131 25 l 131 931 q 143 960 131 947 q 175 972 156 972 q 205 960 192 972 q 218 931 218 947 l 218 58 l 192 82 l 668 82 m 950 -64 q 919 -177 950 -131 q 842 -249 888 -224 q 750 -274 796 -274 q 722 -262 732 -274 q 711 -236 711 -251 l 711 -231 q 722 -204 711 -214 q 747 -192 733 -194 q 806 -168 779 -185 q 850 -122 833 -151 q 867 -51 867 -93 l 867 665 q 878 694 867 682 q 908 707 890 707 q 938 694 926 707 q 950 665 950 682 l 950 -64 m 908 817 q 865 830 879 817 q 850 868 850 843 l 850 882 q 866 920 850 907 q 910 933 882 933 q 951 920 936 933 q 965 882 965 907 l 965 868 q 951 830 965 843 q 908 817 936 817 z "},"Ḻ":{"ha":739,"x_min":131,"x_max":710,"o":"m 668 82 q 697 70 685 82 q 710 42 710 58 q 697 12 710 24 q 668 0 685 0 l 172 0 q 142 13 154 0 q 131 42 131 25 l 131 931 q 143 960 131 947 q 175 972 156 972 q 205 960 192 972 q 218 931 218 947 l 218 58 l 192 82 l 668 82 m 258 -175 q 219 -140 219 -175 q 258 -106 219 -106 l 550 -106 q 589 -140 589 -106 q 550 -175 589 -175 l 258 -175 z "},"Ł":{"ha":804,"x_min":64,"x_max":775,"o":"m 101 457 q 73 469 82 457 q 64 494 64 481 q 88 529 64 518 l 399 667 q 418 671 408 671 q 446 657 438 671 q 454 632 454 643 q 429 597 454 608 l 118 460 q 110 458 115 458 q 101 457 104 457 m 279 71 l 269 83 l 733 83 q 763 71 750 83 q 775 42 775 58 q 763 12 775 24 q 733 0 750 0 l 238 0 q 208 13 219 0 q 196 42 196 25 l 196 931 q 208 960 196 947 q 238 972 221 972 q 267 960 256 972 q 279 931 279 947 l 279 71 z "},"M":{"ha":1149,"x_min":131,"x_max":1018,"o":"m 172 972 q 192 968 182 972 q 210 954 203 964 l 593 379 l 556 381 l 940 954 q 978 972 956 975 q 1006 960 994 972 q 1018 931 1018 949 l 1018 42 q 1006 13 1018 25 q 975 0 993 0 q 943 13 956 0 q 931 42 931 25 l 931 846 l 956 843 l 604 311 q 592 298 600 303 q 572 294 583 293 q 553 298 563 293 q 539 311 544 303 l 186 849 l 213 867 l 213 42 q 201 13 213 25 q 171 0 189 0 q 142 13 153 0 q 131 42 131 25 l 131 931 q 142 960 131 947 q 172 972 154 972 z "},"Ṃ":{"ha":1149,"x_min":131,"x_max":1018,"o":"m 172 972 q 192 968 182 972 q 210 954 203 964 l 593 379 l 556 381 l 940 954 q 978 972 956 975 q 1006 960 994 972 q 1018 931 1018 949 l 1018 42 q 1006 13 1018 25 q 975 0 993 0 q 943 13 956 0 q 931 42 931 25 l 931 846 l 956 843 l 604 311 q 592 298 600 303 q 572 294 583 293 q 553 298 563 293 q 539 311 544 303 l 186 849 l 213 867 l 213 42 q 201 13 213 25 q 171 0 189 0 q 142 13 153 0 q 131 42 131 25 l 131 931 q 142 960 131 947 q 172 972 154 972 m 575 -193 q 531 -179 546 -193 q 517 -139 517 -165 l 517 -124 q 533 -83 517 -97 q 575 -69 549 -69 q 617 -83 603 -69 q 632 -124 632 -97 l 632 -139 q 617 -179 632 -165 q 575 -193 603 -193 z "},"N":{"ha":1011,"x_min":131,"x_max":881,"o":"m 842 972 q 870 961 860 972 q 881 933 881 950 l 881 44 q 867 12 881 24 q 838 0 854 0 q 819 3 829 0 q 804 14 810 7 l 185 849 l 208 861 l 208 38 q 197 11 208 22 q 169 0 186 0 q 141 11 151 0 q 131 38 131 22 l 131 931 q 143 962 131 951 q 171 972 156 972 q 189 969 179 972 q 204 957 199 965 l 817 132 l 803 107 l 803 933 q 815 961 803 950 q 842 972 826 972 z "},"Ǌ":{"ha":1804,"x_min":131,"x_max":1674,"o":"m 842 972 q 870 961 860 972 q 881 933 881 950 l 881 44 q 867 12 881 24 q 838 0 854 0 q 819 3 829 0 q 804 14 810 7 l 185 849 l 208 861 l 208 38 q 197 11 208 22 q 169 0 186 0 q 141 11 151 0 q 131 38 131 22 l 131 931 q 143 962 131 951 q 171 972 156 972 q 189 969 179 972 q 204 957 199 965 l 817 132 l 803 107 l 803 933 q 815 961 803 950 q 842 972 826 972 m 1372 -14 q 1215 35 1285 -14 q 1110 163 1146 83 q 1103 185 1103 175 q 1117 213 1103 203 q 1144 224 1131 224 q 1167 217 1158 224 q 1183 200 1176 210 q 1260 106 1210 142 q 1372 69 1310 69 q 1485 97 1436 69 q 1560 172 1533 124 q 1588 283 1588 221 l 1588 931 q 1601 960 1588 947 q 1632 972 1614 972 q 1663 960 1651 972 q 1675 931 1675 947 l 1675 283 q 1636 130 1675 197 q 1529 24 1597 63 q 1372 -14 1461 -14 z "},"Ń":{"ha":1011,"x_min":131,"x_max":881,"o":"m 842 972 q 870 961 860 972 q 881 933 881 950 l 881 44 q 867 12 881 24 q 838 0 854 0 q 819 3 829 0 q 804 14 810 7 l 185 849 l 208 861 l 208 38 q 197 11 208 22 q 169 0 186 0 q 141 11 151 0 q 131 38 131 22 l 131 931 q 143 962 131 951 q 171 972 156 972 q 189 969 179 972 q 204 957 199 965 l 817 132 l 803 107 l 803 933 q 815 961 803 950 q 842 972 826 972 m 510 1036 q 490 1044 496 1036 q 483 1061 483 1051 q 487 1074 483 1068 q 497 1086 490 1081 l 621 1182 q 639 1192 629 1188 q 661 1197 649 1197 q 691 1185 679 1197 q 703 1156 703 1174 q 696 1131 703 1142 q 676 1113 689 1119 l 540 1044 q 526 1039 533 1042 q 510 1036 518 1036 z "},"Ň":{"ha":1011,"x_min":131,"x_max":881,"o":"m 842 972 q 870 961 860 972 q 881 933 881 950 l 881 44 q 867 12 881 24 q 838 0 854 0 q 819 3 829 0 q 804 14 810 7 l 185 849 l 208 861 l 208 38 q 197 11 208 22 q 169 0 186 0 q 141 11 151 0 q 131 38 131 22 l 131 931 q 143 962 131 951 q 171 972 156 972 q 189 969 179 972 q 204 957 199 965 l 817 132 l 803 107 l 803 933 q 815 961 803 950 q 842 972 826 972 m 494 1114 l 617 1211 q 638 1225 628 1221 q 654 1229 647 1229 q 672 1223 665 1229 q 678 1208 678 1217 q 675 1197 678 1203 q 667 1185 672 1192 l 560 1071 q 540 1053 551 1058 q 514 1047 529 1047 l 499 1047 q 472 1053 483 1047 q 451 1071 461 1058 l 346 1183 q 337 1196 339 1190 q 335 1207 335 1201 q 341 1222 335 1215 q 357 1228 347 1228 q 394 1211 372 1228 l 519 1118 l 494 1114 z "},"Ṋ":{"ha":1011,"x_min":131,"x_max":881,"o":"m 842 972 q 870 961 860 972 q 881 933 881 950 l 881 44 q 867 12 881 24 q 838 0 854 0 q 819 3 829 0 q 804 14 810 7 l 185 849 l 208 861 l 208 38 q 197 11 208 22 q 169 0 186 0 q 141 11 151 0 q 131 38 131 22 l 131 931 q 143 962 131 951 q 171 972 156 972 q 189 969 179 972 q 204 957 199 965 l 817 132 l 803 107 l 803 933 q 815 961 803 950 q 842 972 826 972 m 518 -157 l 397 -258 q 380 -272 388 -267 q 361 -278 372 -278 q 344 -271 351 -278 q 338 -257 338 -264 q 340 -245 338 -250 q 349 -233 342 -240 l 450 -122 q 496 -100 465 -100 l 518 -100 q 544 -104 533 -100 q 563 -122 554 -108 l 663 -232 q 670 -244 668 -239 q 672 -256 672 -250 q 666 -269 672 -262 q 650 -276 660 -276 q 631 -271 639 -276 q 613 -258 622 -265 l 489 -158 l 518 -157 z "},"Ņ":{"ha":1011,"x_min":131,"x_max":881,"o":"m 842 972 q 870 961 860 972 q 881 933 881 950 l 881 44 q 867 12 881 24 q 838 0 854 0 q 819 3 829 0 q 804 14 810 7 l 185 849 l 208 861 l 208 38 q 197 11 208 22 q 169 0 186 0 q 141 11 151 0 q 131 38 131 22 l 131 931 q 143 962 131 951 q 171 972 156 972 q 189 969 179 972 q 204 957 199 965 l 817 132 l 803 107 l 803 933 q 815 961 803 950 q 842 972 826 972 m 589 -149 q 574 -201 589 -176 q 534 -240 558 -225 q 482 -254 510 -254 q 444 -246 456 -254 q 433 -226 433 -237 q 440 -207 433 -214 q 454 -200 446 -200 q 470 -203 461 -200 q 494 -204 479 -207 q 514 -192 507 -203 q 521 -160 521 -181 q 507 -143 521 -143 q 494 -149 499 -143 q 476 -154 489 -154 q 450 -143 460 -156 q 440 -117 440 -131 q 460 -79 440 -93 q 513 -65 479 -65 q 567 -86 544 -65 q 589 -149 589 -107 z "},"Ṅ":{"ha":1011,"x_min":131,"x_max":881,"o":"m 842 972 q 870 961 860 972 q 881 933 881 950 l 881 44 q 867 12 881 24 q 838 0 854 0 q 819 3 829 0 q 804 14 810 7 l 185 849 l 208 861 l 208 38 q 197 11 208 22 q 169 0 186 0 q 141 11 151 0 q 131 38 131 22 l 131 931 q 143 962 131 951 q 171 972 156 972 q 189 969 179 972 q 204 957 199 965 l 817 132 l 803 107 l 803 933 q 815 961 803 950 q 842 972 826 972 m 506 1069 q 462 1084 476 1069 q 447 1125 447 1099 l 447 1139 q 463 1181 447 1167 q 507 1194 479 1194 q 548 1181 533 1194 q 563 1139 563 1167 l 563 1125 q 548 1083 563 1097 q 506 1069 533 1069 z "},"Ṇ":{"ha":1011,"x_min":131,"x_max":881,"o":"m 842 972 q 870 961 860 972 q 881 933 881 950 l 881 44 q 867 12 881 24 q 838 0 854 0 q 819 3 829 0 q 804 14 810 7 l 185 849 l 208 861 l 208 38 q 197 11 208 22 q 169 0 186 0 q 141 11 151 0 q 131 38 131 22 l 131 931 q 143 962 131 951 q 171 972 156 972 q 189 969 179 972 q 204 957 199 965 l 817 132 l 803 107 l 803 933 q 815 961 803 950 q 842 972 826 972 m 506 -193 q 462 -179 476 -193 q 447 -139 447 -165 l 447 -124 q 463 -83 447 -97 q 506 -69 479 -69 q 548 -83 533 -69 q 563 -124 563 -97 l 563 -139 q 548 -179 563 -165 q 506 -193 533 -193 z "},"Ɲ":{"ha":1011,"x_min":-28,"x_max":881,"o":"m 15 -275 q -16 -264 -4 -275 q -28 -236 -28 -253 q -17 -205 -28 -215 q 10 -192 -7 -194 q 68 -168 40 -185 q 113 -122 96 -151 q 131 -51 131 -93 l 131 931 q 143 962 131 951 q 171 972 156 972 q 189 969 179 972 q 204 957 199 965 l 817 132 l 801 107 l 801 933 q 813 961 801 950 q 842 972 825 972 q 869 961 858 972 q 881 933 881 950 l 881 44 q 867 12 881 24 q 838 0 854 0 q 819 3 829 0 q 804 14 810 7 l 185 849 l 210 861 l 210 -64 q 196 -144 210 -110 q 161 -201 182 -178 q 114 -240 140 -225 q 62 -263 88 -256 q 15 -275 36 -271 z "},"ǋ":{"ha":1385,"x_min":131,"x_max":1238,"o":"m 842 972 q 870 961 860 972 q 881 933 881 950 l 881 44 q 867 12 881 24 q 838 0 854 0 q 819 3 829 0 q 804 14 810 7 l 185 849 l 208 861 l 208 38 q 197 11 208 22 q 169 0 186 0 q 141 11 151 0 q 131 38 131 22 l 131 931 q 143 962 131 951 q 171 972 156 972 q 189 969 179 972 q 204 957 199 965 l 817 132 l 803 107 l 803 933 q 815 961 803 950 q 842 972 826 972 m 1222 -64 q 1191 -177 1222 -131 q 1114 -249 1160 -224 q 1022 -274 1068 -274 q 994 -262 1004 -274 q 983 -236 983 -251 l 983 -231 q 994 -204 983 -214 q 1019 -192 1006 -194 q 1078 -168 1051 -185 q 1122 -122 1106 -151 q 1139 -51 1139 -93 l 1139 665 q 1151 694 1139 682 q 1181 707 1163 707 q 1210 694 1199 707 q 1222 665 1222 682 l 1222 -64 m 1179 817 q 1135 830 1150 817 q 1121 868 1121 843 l 1121 882 q 1137 920 1121 907 q 1181 933 1153 933 q 1222 920 1207 933 q 1236 882 1236 907 l 1236 868 q 1222 830 1236 843 q 1179 817 1207 817 z "},"Ṉ":{"ha":1011,"x_min":131,"x_max":881,"o":"m 842 972 q 870 961 860 972 q 881 933 881 950 l 881 44 q 867 12 881 24 q 838 0 854 0 q 819 3 829 0 q 804 14 810 7 l 185 849 l 208 861 l 208 38 q 197 11 208 22 q 169 0 186 0 q 141 11 151 0 q 131 38 131 22 l 131 931 q 143 962 131 951 q 171 972 156 972 q 189 969 179 972 q 204 957 199 965 l 817 132 l 803 107 l 803 933 q 815 961 803 950 q 842 972 826 972 m 369 -175 q 331 -140 331 -175 q 369 -106 331 -106 l 661 -106 q 700 -140 700 -106 q 661 -175 700 -175 l 369 -175 z "},"Ñ":{"ha":1011,"x_min":131,"x_max":881,"o":"m 842 972 q 870 961 860 972 q 881 933 881 950 l 881 44 q 867 12 881 24 q 838 0 854 0 q 819 3 829 0 q 804 14 810 7 l 185 849 l 208 861 l 208 38 q 197 11 208 22 q 169 0 186 0 q 141 11 151 0 q 131 38 131 22 l 131 931 q 143 962 131 951 q 171 972 156 972 q 189 969 179 972 q 204 957 199 965 l 817 132 l 803 107 l 803 933 q 815 961 803 950 q 842 972 826 972 m 326 1071 q 299 1087 308 1071 q 294 1132 290 1103 q 338 1201 304 1176 q 415 1225 372 1225 q 485 1205 450 1225 q 552 1165 519 1185 q 608 1144 585 1144 q 640 1160 628 1144 q 654 1199 651 1175 q 662 1225 653 1215 q 685 1235 671 1235 q 714 1218 706 1235 q 718 1175 722 1201 q 698 1122 714 1144 q 659 1088 682 1100 q 606 1076 636 1076 q 537 1097 572 1076 q 468 1136 501 1117 q 411 1156 435 1156 q 378 1142 392 1156 q 357 1101 364 1129 q 348 1079 358 1088 q 326 1071 338 1071 z "},"Ŋ":{"ha":1039,"x_min":131,"x_max":908,"o":"m 664 -278 q 632 -267 644 -278 q 619 -239 619 -257 q 631 -210 619 -221 q 661 -197 643 -199 q 764 -179 729 -197 q 812 -128 799 -161 q 825 -53 825 -96 l 826 57 l 835 14 l 207 822 l 214 825 l 214 42 q 201 13 214 25 q 172 0 189 0 q 142 13 154 0 q 131 42 131 25 l 131 931 q 143 961 131 950 q 174 972 156 972 q 193 967 183 972 q 207 954 203 961 l 838 142 l 825 131 l 825 926 q 838 956 825 943 q 867 968 850 968 q 897 956 885 968 q 908 926 908 943 l 908 61 l 908 -50 q 884 -167 908 -115 q 807 -249 860 -219 q 664 -278 754 -278 z "},"O":{"ha":1064,"x_min":67,"x_max":997,"o":"m 997 486 q 963 285 997 376 q 867 127 929 194 q 719 23 804 60 q 532 -14 633 -14 q 345 23 431 -14 q 197 127 260 60 q 101 285 135 194 q 67 486 67 376 q 101 687 67 596 q 197 845 135 778 q 345 949 260 913 q 532 986 431 986 q 719 949 633 986 q 867 845 804 913 q 963 687 929 778 q 997 486 997 596 m 908 486 q 860 703 908 610 q 728 850 813 797 q 532 903 643 903 q 337 850 422 903 q 203 703 251 797 q 156 486 156 610 q 203 269 156 363 q 337 122 251 175 q 532 69 422 69 q 728 122 643 69 q 860 269 813 175 q 908 486 908 363 z "},"Ó":{"ha":1064,"x_min":67,"x_max":997,"o":"m 997 486 q 963 285 997 376 q 867 127 929 194 q 719 23 804 60 q 532 -14 633 -14 q 345 23 431 -14 q 197 127 260 60 q 101 285 135 194 q 67 486 67 376 q 101 687 67 596 q 197 845 135 778 q 345 949 260 913 q 532 986 431 986 q 719 949 633 986 q 867 845 804 913 q 963 687 929 778 q 997 486 997 596 m 908 486 q 860 703 908 610 q 728 850 813 797 q 532 903 643 903 q 337 850 422 903 q 203 703 251 797 q 156 486 156 610 q 203 269 156 363 q 337 122 251 175 q 532 69 422 69 q 728 122 643 69 q 860 269 813 175 q 908 486 908 363 m 536 1036 q 516 1044 522 1036 q 510 1061 510 1051 q 513 1074 510 1068 q 524 1086 517 1081 l 647 1182 q 665 1192 656 1188 q 688 1197 675 1197 q 717 1185 706 1197 q 729 1156 729 1174 q 722 1131 729 1142 q 703 1113 715 1119 l 567 1044 q 552 1039 560 1042 q 536 1036 544 1036 z "},"Ŏ":{"ha":1064,"x_min":67,"x_max":997,"o":"m 997 486 q 963 285 997 376 q 867 127 929 194 q 719 23 804 60 q 532 -14 633 -14 q 345 23 431 -14 q 197 127 260 60 q 101 285 135 194 q 67 486 67 376 q 101 687 67 596 q 197 845 135 778 q 345 949 260 913 q 532 986 431 986 q 719 949 633 986 q 867 845 804 913 q 963 687 929 778 q 997 486 997 596 m 908 486 q 860 703 908 610 q 728 850 813 797 q 532 903 643 903 q 337 850 422 903 q 203 703 251 797 q 156 486 156 610 q 203 269 156 363 q 337 122 251 175 q 532 69 422 69 q 728 122 643 69 q 860 269 813 175 q 908 486 908 363 m 532 1075 q 411 1112 461 1075 q 342 1215 361 1149 q 343 1246 336 1235 q 368 1257 350 1257 q 392 1249 385 1257 q 410 1226 400 1242 q 458 1167 428 1188 q 532 1146 488 1146 q 654 1226 618 1146 q 672 1249 663 1242 q 696 1256 681 1256 q 721 1246 714 1256 q 722 1215 728 1236 q 654 1112 704 1149 q 532 1075 604 1075 z "},"Ǒ":{"ha":1064,"x_min":67,"x_max":997,"o":"m 997 486 q 963 285 997 376 q 867 127 929 194 q 719 23 804 60 q 532 -14 633 -14 q 345 23 431 -14 q 197 127 260 60 q 101 285 135 194 q 67 486 67 376 q 101 687 67 596 q 197 845 135 778 q 345 949 260 913 q 532 986 431 986 q 719 949 633 986 q 867 845 804 913 q 963 687 929 778 q 997 486 997 596 m 908 486 q 860 703 908 610 q 728 850 813 797 q 532 903 643 903 q 337 850 422 903 q 203 703 251 797 q 156 486 156 610 q 203 269 156 363 q 337 122 251 175 q 532 69 422 69 q 728 122 643 69 q 860 269 813 175 q 908 486 908 363 m 519 1114 l 642 1211 q 663 1225 653 1221 q 679 1229 672 1229 q 697 1223 690 1229 q 703 1208 703 1217 q 700 1197 703 1203 q 692 1185 697 1192 l 585 1071 q 565 1053 576 1058 q 539 1047 554 1047 l 524 1047 q 497 1053 508 1047 q 476 1071 486 1058 l 371 1183 q 362 1196 364 1190 q 360 1207 360 1201 q 366 1222 360 1215 q 382 1228 372 1228 q 419 1211 397 1228 l 544 1118 l 519 1114 z "},"Ô":{"ha":1064,"x_min":67,"x_max":997,"o":"m 997 486 q 963 285 997 376 q 867 127 929 194 q 719 23 804 60 q 532 -14 633 -14 q 345 23 431 -14 q 197 127 260 60 q 101 285 135 194 q 67 486 67 376 q 101 687 67 596 q 197 845 135 778 q 345 949 260 913 q 532 986 431 986 q 719 949 633 986 q 867 845 804 913 q 963 687 929 778 q 997 486 997 596 m 908 486 q 860 703 908 610 q 728 850 813 797 q 532 903 643 903 q 337 850 422 903 q 203 703 251 797 q 156 486 156 610 q 203 269 156 363 q 337 122 251 175 q 532 69 422 69 q 728 122 643 69 q 860 269 813 175 q 908 486 908 363 m 543 1171 l 421 1075 q 401 1063 410 1068 q 383 1057 392 1057 q 367 1064 374 1057 q 360 1078 360 1071 q 363 1090 360 1085 q 371 1101 365 1094 l 478 1215 q 498 1233 488 1226 q 524 1239 508 1239 l 539 1239 q 565 1233 554 1239 q 586 1215 575 1226 l 692 1103 q 701 1090 699 1096 q 703 1079 703 1085 q 697 1065 703 1072 q 681 1058 690 1058 q 663 1063 672 1058 q 643 1076 654 1068 l 518 1167 l 543 1171 z "},"Ố":{"ha":1064,"x_min":67,"x_max":997,"o":"m 997 486 q 963 285 997 376 q 867 127 929 194 q 719 23 804 60 q 532 -14 633 -14 q 345 23 431 -14 q 197 127 260 60 q 101 285 135 194 q 67 486 67 376 q 101 687 67 596 q 197 845 135 778 q 345 949 260 913 q 532 986 431 986 q 719 949 633 986 q 867 845 804 913 q 963 687 929 778 q 997 486 997 596 m 908 486 q 860 703 908 610 q 728 850 813 797 q 532 903 643 903 q 337 850 422 903 q 203 703 251 797 q 156 486 156 610 q 203 269 156 363 q 337 122 251 175 q 532 69 422 69 q 728 122 643 69 q 860 269 813 175 q 908 486 908 363 m 543 1171 l 421 1075 q 401 1063 410 1068 q 383 1057 392 1057 q 367 1064 374 1057 q 360 1078 360 1071 q 363 1090 360 1085 q 371 1101 365 1094 l 478 1215 q 498 1233 488 1226 q 524 1239 508 1239 l 539 1239 q 565 1233 554 1239 q 586 1215 575 1226 l 692 1103 q 701 1090 699 1096 q 703 1079 703 1085 q 697 1065 703 1072 q 681 1058 690 1058 q 663 1063 672 1058 q 643 1076 654 1068 l 518 1167 l 543 1171 m 724 1146 q 703 1153 710 1146 q 697 1171 697 1161 q 701 1184 697 1178 q 711 1196 704 1190 l 835 1292 q 853 1302 843 1297 q 875 1307 863 1307 q 905 1295 893 1307 q 917 1265 917 1283 q 910 1240 917 1251 q 890 1222 903 1229 l 754 1154 q 740 1149 747 1151 q 724 1146 732 1146 z "},"Ộ":{"ha":1064,"x_min":67,"x_max":997,"o":"m 997 486 q 963 285 997 376 q 867 127 929 194 q 719 23 804 60 q 532 -14 633 -14 q 345 23 431 -14 q 197 127 260 60 q 101 285 135 194 q 67 486 67 376 q 101 687 67 596 q 197 845 135 778 q 345 949 260 913 q 532 986 431 986 q 719 949 633 986 q 867 845 804 913 q 963 687 929 778 q 997 486 997 596 m 908 486 q 860 703 908 610 q 728 850 813 797 q 532 903 643 903 q 337 850 422 903 q 203 703 251 797 q 156 486 156 610 q 203 269 156 363 q 337 122 251 175 q 532 69 422 69 q 728 122 643 69 q 860 269 813 175 q 908 486 908 363 m 532 -193 q 488 -179 503 -193 q 474 -139 474 -165 l 474 -124 q 490 -83 474 -97 q 532 -69 506 -69 q 574 -83 560 -69 q 589 -124 589 -97 l 589 -139 q 574 -179 589 -165 q 532 -193 560 -193 m 543 1171 l 421 1075 q 401 1063 410 1068 q 383 1057 392 1057 q 367 1064 374 1057 q 360 1078 360 1071 q 363 1090 360 1085 q 371 1101 365 1094 l 478 1215 q 498 1233 488 1226 q 524 1239 508 1239 l 539 1239 q 565 1233 554 1239 q 586 1215 575 1226 l 692 1103 q 701 1090 699 1096 q 703 1079 703 1085 q 697 1065 703 1072 q 681 1058 690 1058 q 663 1063 672 1058 q 643 1076 654 1068 l 518 1167 l 543 1171 z "},"Ồ":{"ha":1064,"x_min":67,"x_max":997,"o":"m 997 486 q 963 285 997 376 q 867 127 929 194 q 719 23 804 60 q 532 -14 633 -14 q 345 23 431 -14 q 197 127 260 60 q 101 285 135 194 q 67 486 67 376 q 101 687 67 596 q 197 845 135 778 q 345 949 260 913 q 532 986 431 986 q 719 949 633 986 q 867 845 804 913 q 963 687 929 778 q 997 486 997 596 m 908 486 q 860 703 908 610 q 728 850 813 797 q 532 903 643 903 q 337 850 422 903 q 203 703 251 797 q 156 486 156 610 q 203 269 156 363 q 337 122 251 175 q 532 69 422 69 q 728 122 643 69 q 860 269 813 175 q 908 486 908 363 m 543 1171 l 421 1075 q 401 1063 410 1068 q 383 1057 392 1057 q 367 1064 374 1057 q 360 1078 360 1071 q 363 1090 360 1085 q 371 1101 365 1094 l 478 1215 q 498 1233 488 1226 q 524 1239 508 1239 l 539 1239 q 565 1233 554 1239 q 586 1215 575 1226 l 692 1103 q 701 1090 699 1096 q 703 1079 703 1085 q 697 1065 703 1072 q 681 1058 690 1058 q 663 1063 672 1058 q 643 1076 654 1068 l 518 1167 l 543 1171 m 708 1221 q 693 1224 700 1221 q 678 1229 686 1226 l 543 1297 q 515 1340 515 1313 q 527 1370 515 1358 q 557 1382 539 1382 q 580 1377 569 1382 q 597 1367 590 1372 l 721 1271 q 731 1259 728 1265 q 735 1246 735 1253 q 728 1228 735 1236 q 708 1221 722 1221 z "},"Ổ":{"ha":1064,"x_min":67,"x_max":997,"o":"m 997 486 q 963 285 997 376 q 867 127 929 194 q 719 23 804 60 q 532 -14 633 -14 q 345 23 431 -14 q 197 127 260 60 q 101 285 135 194 q 67 486 67 376 q 101 687 67 596 q 197 845 135 778 q 345 949 260 913 q 532 986 431 986 q 719 949 633 986 q 867 845 804 913 q 963 687 929 778 q 997 486 997 596 m 908 486 q 860 703 908 610 q 728 850 813 797 q 532 903 643 903 q 337 850 422 903 q 203 703 251 797 q 156 486 156 610 q 203 269 156 363 q 337 122 251 175 q 532 69 422 69 q 728 122 643 69 q 860 269 813 175 q 908 486 908 363 m 543 1190 l 422 1089 q 405 1075 413 1081 q 386 1069 397 1069 q 369 1076 376 1069 q 363 1092 363 1083 q 365 1103 363 1097 q 374 1114 367 1108 l 475 1225 q 521 1249 490 1249 l 543 1249 q 569 1244 558 1249 q 588 1225 579 1239 l 688 1115 q 695 1103 693 1108 q 697 1092 697 1099 q 691 1078 697 1085 q 675 1071 685 1071 q 656 1076 664 1071 q 638 1090 647 1082 l 514 1189 l 543 1190 m 617 1356 q 663 1386 638 1374 q 721 1399 689 1399 q 788 1382 764 1399 q 823 1341 813 1365 q 833 1296 833 1317 q 821 1253 833 1272 q 788 1213 808 1235 q 775 1196 779 1204 q 769 1175 771 1188 q 760 1157 768 1164 q 740 1150 751 1150 q 719 1158 726 1150 q 711 1176 711 1167 q 715 1203 711 1189 q 732 1232 718 1218 q 760 1264 749 1250 q 772 1294 772 1278 q 757 1324 772 1313 q 721 1336 742 1336 q 687 1328 703 1336 q 658 1311 671 1321 q 635 1301 647 1301 q 611 1311 622 1300 q 604 1333 603 1321 q 617 1356 606 1344 z "},"Ỗ":{"ha":1064,"x_min":67,"x_max":997,"o":"m 997 486 q 963 285 997 376 q 867 127 929 194 q 719 23 804 60 q 532 -14 633 -14 q 345 23 431 -14 q 197 127 260 60 q 101 285 135 194 q 67 486 67 376 q 101 687 67 596 q 197 845 135 778 q 345 949 260 913 q 532 986 431 986 q 719 949 633 986 q 867 845 804 913 q 963 687 929 778 q 997 486 997 596 m 908 486 q 860 703 908 610 q 728 850 813 797 q 532 903 643 903 q 337 850 422 903 q 203 703 251 797 q 156 486 156 610 q 203 269 156 363 q 337 122 251 175 q 532 69 422 69 q 728 122 643 69 q 860 269 813 175 q 908 486 908 363 m 543 1171 l 421 1075 q 401 1063 410 1068 q 383 1057 392 1057 q 367 1064 374 1057 q 360 1078 360 1071 q 363 1090 360 1085 q 371 1101 365 1094 l 478 1215 q 498 1233 488 1226 q 524 1239 508 1239 l 539 1239 q 565 1233 554 1239 q 586 1215 575 1226 l 692 1103 q 701 1090 699 1096 q 703 1079 703 1085 q 697 1065 703 1072 q 681 1058 690 1058 q 663 1063 672 1058 q 643 1076 654 1068 l 518 1167 l 543 1171 m 356 1246 q 328 1262 338 1246 q 324 1307 319 1278 q 367 1376 333 1351 q 444 1400 401 1400 q 514 1380 479 1400 q 581 1340 549 1360 q 638 1319 614 1319 q 669 1335 657 1319 q 683 1374 681 1350 q 691 1400 682 1390 q 714 1410 700 1410 q 743 1393 735 1410 q 747 1350 751 1376 q 727 1297 743 1319 q 688 1263 711 1275 q 635 1251 665 1251 q 566 1272 601 1251 q 497 1311 531 1292 q 440 1331 464 1331 q 407 1317 421 1331 q 386 1276 393 1304 q 377 1254 388 1263 q 356 1246 367 1246 z "},"Ȍ":{"ha":1064,"x_min":67,"x_max":997,"o":"m 997 486 q 963 285 997 376 q 867 127 929 194 q 719 23 804 60 q 532 -14 633 -14 q 345 23 431 -14 q 197 127 260 60 q 101 285 135 194 q 67 486 67 376 q 101 687 67 596 q 197 845 135 778 q 345 949 260 913 q 532 986 431 986 q 719 949 633 986 q 867 845 804 913 q 963 687 929 778 q 997 486 997 596 m 908 486 q 860 703 908 610 q 728 850 813 797 q 532 903 643 903 q 337 850 422 903 q 203 703 251 797 q 156 486 156 610 q 203 269 156 363 q 337 122 251 175 q 532 69 422 69 q 728 122 643 69 q 860 269 813 175 q 908 486 908 363 m 464 1049 q 449 1052 456 1049 q 433 1058 442 1056 l 299 1125 q 271 1169 271 1140 q 283 1199 271 1186 q 313 1211 294 1211 q 335 1206 325 1211 q 353 1194 346 1201 l 476 1099 q 487 1088 483 1093 q 490 1074 490 1082 q 484 1056 490 1064 q 464 1049 478 1049 m 697 1049 q 681 1051 689 1049 q 667 1057 674 1054 l 531 1125 q 504 1168 504 1140 q 516 1198 504 1186 q 546 1210 528 1210 q 568 1205 558 1210 q 586 1194 578 1200 l 710 1099 q 720 1087 717 1093 q 724 1074 724 1081 q 717 1056 724 1064 q 697 1049 711 1049 z "},"Ö":{"ha":1064,"x_min":67,"x_max":997,"o":"m 997 486 q 963 285 997 376 q 867 127 929 194 q 719 23 804 60 q 532 -14 633 -14 q 345 23 431 -14 q 197 127 260 60 q 101 285 135 194 q 67 486 67 376 q 101 687 67 596 q 197 845 135 778 q 345 949 260 913 q 532 986 431 986 q 719 949 633 986 q 867 845 804 913 q 963 687 929 778 q 997 486 997 596 m 908 486 q 860 703 908 610 q 728 850 813 797 q 532 903 643 903 q 337 850 422 903 q 203 703 251 797 q 156 486 156 610 q 203 269 156 363 q 337 122 251 175 q 532 69 422 69 q 728 122 643 69 q 860 269 813 175 q 908 486 908 363 m 651 1076 q 610 1091 625 1076 q 594 1132 594 1106 l 594 1146 q 610 1187 594 1172 q 653 1201 626 1201 q 694 1187 679 1201 q 710 1146 710 1172 l 710 1132 q 694 1090 710 1104 q 651 1076 679 1076 m 413 1076 q 371 1091 386 1076 q 356 1132 356 1106 l 356 1146 q 372 1187 356 1172 q 414 1201 388 1201 q 456 1187 440 1201 q 471 1146 471 1172 l 471 1132 q 456 1090 471 1104 q 413 1076 440 1076 z "},"Ȫ":{"ha":1064,"x_min":67,"x_max":997,"o":"m 997 486 q 963 285 997 376 q 867 127 929 194 q 719 23 804 60 q 532 -14 633 -14 q 345 23 431 -14 q 197 127 260 60 q 101 285 135 194 q 67 486 67 376 q 101 687 67 596 q 197 845 135 778 q 345 949 260 913 q 532 986 431 986 q 719 949 633 986 q 867 845 804 913 q 963 687 929 778 q 997 486 997 596 m 908 486 q 860 703 908 610 q 728 850 813 797 q 532 903 643 903 q 337 850 422 903 q 203 703 251 797 q 156 486 156 610 q 203 269 156 363 q 337 122 251 175 q 532 69 422 69 q 728 122 643 69 q 860 269 813 175 q 908 486 908 363 m 651 1076 q 610 1091 625 1076 q 594 1132 594 1106 l 594 1146 q 610 1187 594 1172 q 653 1201 626 1201 q 694 1187 679 1201 q 710 1146 710 1172 l 710 1132 q 694 1090 710 1104 q 651 1076 679 1076 m 413 1076 q 371 1091 386 1076 q 356 1132 356 1106 l 356 1146 q 372 1187 356 1172 q 414 1201 388 1201 q 456 1187 440 1201 q 471 1146 471 1172 l 471 1132 q 456 1090 471 1104 q 413 1076 440 1076 m 360 1329 q 319 1364 319 1329 q 360 1400 319 1400 l 714 1400 q 754 1364 754 1400 q 714 1329 754 1329 l 360 1329 z "},"Ȱ":{"ha":1064,"x_min":67,"x_max":997,"o":"m 997 486 q 963 285 997 376 q 867 127 929 194 q 719 23 804 60 q 532 -14 633 -14 q 345 23 431 -14 q 197 127 260 60 q 101 285 135 194 q 67 486 67 376 q 101 687 67 596 q 197 845 135 778 q 345 949 260 913 q 532 986 431 986 q 719 949 633 986 q 867 845 804 913 q 963 687 929 778 q 997 486 997 596 m 908 486 q 860 703 908 610 q 728 850 813 797 q 532 903 643 903 q 337 850 422 903 q 203 703 251 797 q 156 486 156 610 q 203 269 156 363 q 337 122 251 175 q 532 69 422 69 q 728 122 643 69 q 860 269 813 175 q 908 486 908 363 m 532 1069 q 488 1084 503 1069 q 474 1125 474 1099 l 474 1139 q 490 1181 474 1167 q 533 1194 506 1194 q 574 1181 560 1194 q 589 1139 589 1167 l 589 1125 q 574 1083 589 1097 q 532 1069 560 1069 m 360 1331 q 319 1365 319 1331 q 360 1401 319 1401 l 714 1401 q 754 1365 754 1401 q 714 1331 754 1331 l 360 1331 z "},"Ọ":{"ha":1064,"x_min":67,"x_max":997,"o":"m 997 486 q 963 285 997 376 q 867 127 929 194 q 719 23 804 60 q 532 -14 633 -14 q 345 23 431 -14 q 197 127 260 60 q 101 285 135 194 q 67 486 67 376 q 101 687 67 596 q 197 845 135 778 q 345 949 260 913 q 532 986 431 986 q 719 949 633 986 q 867 845 804 913 q 963 687 929 778 q 997 486 997 596 m 908 486 q 860 703 908 610 q 728 850 813 797 q 532 903 643 903 q 337 850 422 903 q 203 703 251 797 q 156 486 156 610 q 203 269 156 363 q 337 122 251 175 q 532 69 422 69 q 728 122 643 69 q 860 269 813 175 q 908 486 908 363 m 532 -193 q 488 -179 503 -193 q 474 -139 474 -165 l 474 -124 q 490 -83 474 -97 q 532 -69 506 -69 q 574 -83 560 -69 q 589 -124 589 -97 l 589 -139 q 574 -179 589 -165 q 532 -193 560 -193 z "},"Ò":{"ha":1064,"x_min":67,"x_max":997,"o":"m 997 486 q 963 285 997 376 q 867 127 929 194 q 719 23 804 60 q 532 -14 633 -14 q 345 23 431 -14 q 197 127 260 60 q 101 285 135 194 q 67 486 67 376 q 101 687 67 596 q 197 845 135 778 q 345 949 260 913 q 532 986 431 986 q 719 949 633 986 q 867 845 804 913 q 963 687 929 778 q 997 486 997 596 m 908 486 q 860 703 908 610 q 728 850 813 797 q 532 903 643 903 q 337 850 422 903 q 203 703 251 797 q 156 486 156 610 q 203 269 156 363 q 337 122 251 175 q 532 69 422 69 q 728 122 643 69 q 860 269 813 175 q 908 486 908 363 m 532 1038 q 517 1040 524 1038 q 501 1046 510 1043 l 367 1114 q 339 1157 339 1129 q 351 1187 339 1175 q 381 1199 363 1199 q 403 1194 393 1199 q 421 1183 414 1189 l 544 1088 q 555 1076 551 1082 q 558 1063 558 1069 q 552 1045 558 1053 q 532 1038 546 1038 z "},"Ỏ":{"ha":1064,"x_min":67,"x_max":997,"o":"m 997 486 q 963 285 997 376 q 867 127 929 194 q 719 23 804 60 q 532 -14 633 -14 q 345 23 431 -14 q 197 127 260 60 q 101 285 135 194 q 67 486 67 376 q 101 687 67 596 q 197 845 135 778 q 345 949 260 913 q 532 986 431 986 q 719 949 633 986 q 867 845 804 913 q 963 687 929 778 q 997 486 997 596 m 908 486 q 860 703 908 610 q 728 850 813 797 q 532 903 643 903 q 337 850 422 903 q 203 703 251 797 q 156 486 156 610 q 203 269 156 363 q 337 122 251 175 q 532 69 422 69 q 728 122 643 69 q 860 269 813 175 q 908 486 908 363 m 426 1254 q 472 1285 446 1272 q 529 1297 499 1297 q 598 1281 574 1297 q 633 1240 622 1264 q 643 1194 643 1215 q 631 1152 643 1171 q 596 1111 618 1133 q 584 1094 589 1103 q 579 1074 579 1086 q 569 1057 578 1063 q 547 1051 560 1051 q 528 1058 536 1051 q 521 1075 521 1065 q 524 1102 521 1088 q 540 1131 528 1117 q 569 1163 558 1149 q 581 1193 581 1176 q 566 1223 581 1211 q 531 1235 551 1235 q 495 1227 511 1235 q 467 1210 479 1219 q 444 1199 457 1200 q 421 1210 432 1199 q 414 1231 413 1219 q 426 1254 415 1243 z "},"Ơ":{"ha":1064,"x_min":67,"x_max":997,"o":"m 997 486 q 963 285 997 376 q 867 127 929 194 q 719 23 804 60 q 532 -14 633 -14 q 345 23 431 -14 q 197 127 260 60 q 101 285 135 194 q 67 486 67 376 q 101 687 67 596 q 197 845 135 778 q 345 949 260 913 q 532 986 431 986 q 719 949 633 986 q 867 845 804 913 q 963 687 929 778 q 997 486 997 596 m 908 486 q 860 703 908 610 q 728 850 813 797 q 532 903 643 903 q 337 850 422 903 q 203 703 251 797 q 156 486 156 610 q 203 269 156 363 q 337 122 251 175 q 532 69 422 69 q 728 122 643 69 q 860 269 813 175 q 908 486 908 363 m 642 897 l 642 971 q 740 995 707 971 q 772 1078 772 1019 q 781 1113 772 1097 q 808 1128 790 1128 q 838 1111 831 1128 q 844 1078 844 1094 q 820 983 844 1024 q 751 919 796 942 q 642 897 707 897 z "},"Ớ":{"ha":1064,"x_min":67,"x_max":997,"o":"m 997 486 q 963 285 997 376 q 867 127 929 194 q 719 23 804 60 q 532 -14 633 -14 q 345 23 431 -14 q 197 127 260 60 q 101 285 135 194 q 67 486 67 376 q 101 687 67 596 q 197 845 135 778 q 345 949 260 913 q 532 986 431 986 q 719 949 633 986 q 867 845 804 913 q 963 687 929 778 q 997 486 997 596 m 908 486 q 860 703 908 610 q 728 850 813 797 q 532 903 643 903 q 337 850 422 903 q 203 703 251 797 q 156 486 156 610 q 203 269 156 363 q 337 122 251 175 q 532 69 422 69 q 728 122 643 69 q 860 269 813 175 q 908 486 908 363 m 642 897 l 642 971 q 740 995 707 971 q 772 1078 772 1019 q 781 1113 772 1097 q 808 1128 790 1128 q 838 1111 831 1128 q 844 1078 844 1094 q 820 983 844 1024 q 751 919 796 942 q 642 897 707 897 m 536 1036 q 516 1044 522 1036 q 510 1061 510 1051 q 513 1074 510 1068 q 524 1086 517 1081 l 647 1182 q 665 1192 656 1188 q 688 1197 675 1197 q 717 1185 706 1197 q 729 1156 729 1174 q 722 1131 729 1142 q 703 1113 715 1119 l 567 1044 q 552 1039 560 1042 q 536 1036 544 1036 z "},"Ợ":{"ha":1064,"x_min":67,"x_max":997,"o":"m 997 486 q 963 285 997 376 q 867 127 929 194 q 719 23 804 60 q 532 -14 633 -14 q 345 23 431 -14 q 197 127 260 60 q 101 285 135 194 q 67 486 67 376 q 101 687 67 596 q 197 845 135 778 q 345 949 260 913 q 532 986 431 986 q 719 949 633 986 q 867 845 804 913 q 963 687 929 778 q 997 486 997 596 m 908 486 q 860 703 908 610 q 728 850 813 797 q 532 903 643 903 q 337 850 422 903 q 203 703 251 797 q 156 486 156 610 q 203 269 156 363 q 337 122 251 175 q 532 69 422 69 q 728 122 643 69 q 860 269 813 175 q 908 486 908 363 m 642 897 l 642 971 q 740 995 707 971 q 772 1078 772 1019 q 781 1113 772 1097 q 808 1128 790 1128 q 838 1111 831 1128 q 844 1078 844 1094 q 820 983 844 1024 q 751 919 796 942 q 642 897 707 897 m 532 -193 q 488 -179 503 -193 q 474 -139 474 -165 l 474 -124 q 490 -83 474 -97 q 532 -69 506 -69 q 574 -83 560 -69 q 589 -124 589 -97 l 589 -139 q 574 -179 589 -165 q 532 -193 560 -193 z "},"Ờ":{"ha":1064,"x_min":67,"x_max":997,"o":"m 997 486 q 963 285 997 376 q 867 127 929 194 q 719 23 804 60 q 532 -14 633 -14 q 345 23 431 -14 q 197 127 260 60 q 101 285 135 194 q 67 486 67 376 q 101 687 67 596 q 197 845 135 778 q 345 949 260 913 q 532 986 431 986 q 719 949 633 986 q 867 845 804 913 q 963 687 929 778 q 997 486 997 596 m 908 486 q 860 703 908 610 q 728 850 813 797 q 532 903 643 903 q 337 850 422 903 q 203 703 251 797 q 156 486 156 610 q 203 269 156 363 q 337 122 251 175 q 532 69 422 69 q 728 122 643 69 q 860 269 813 175 q 908 486 908 363 m 642 897 l 642 971 q 740 995 707 971 q 772 1078 772 1019 q 781 1113 772 1097 q 808 1128 790 1128 q 838 1111 831 1128 q 844 1078 844 1094 q 820 983 844 1024 q 751 919 796 942 q 642 897 707 897 m 532 1038 q 517 1040 524 1038 q 501 1046 510 1043 l 367 1114 q 339 1157 339 1129 q 351 1187 339 1175 q 381 1199 363 1199 q 403 1194 393 1199 q 421 1183 414 1189 l 544 1088 q 555 1076 551 1082 q 558 1063 558 1069 q 552 1045 558 1053 q 532 1038 546 1038 z "},"Ở":{"ha":1064,"x_min":67,"x_max":997,"o":"m 997 486 q 963 285 997 376 q 867 127 929 194 q 719 23 804 60 q 532 -14 633 -14 q 345 23 431 -14 q 197 127 260 60 q 101 285 135 194 q 67 486 67 376 q 101 687 67 596 q 197 845 135 778 q 345 949 260 913 q 532 986 431 986 q 719 949 633 986 q 867 845 804 913 q 963 687 929 778 q 997 486 997 596 m 908 486 q 860 703 908 610 q 728 850 813 797 q 532 903 643 903 q 337 850 422 903 q 203 703 251 797 q 156 486 156 610 q 203 269 156 363 q 337 122 251 175 q 532 69 422 69 q 728 122 643 69 q 860 269 813 175 q 908 486 908 363 m 642 897 l 642 971 q 740 995 707 971 q 772 1078 772 1019 q 781 1113 772 1097 q 808 1128 790 1128 q 838 1111 831 1128 q 844 1078 844 1094 q 820 983 844 1024 q 751 919 796 942 q 642 897 707 897 m 426 1254 q 472 1285 446 1272 q 529 1297 499 1297 q 598 1281 574 1297 q 633 1240 622 1264 q 643 1194 643 1215 q 631 1152 643 1171 q 596 1111 618 1133 q 584 1094 589 1103 q 579 1074 579 1086 q 569 1057 578 1063 q 547 1051 560 1051 q 528 1058 536 1051 q 521 1075 521 1065 q 524 1102 521 1088 q 540 1131 528 1117 q 569 1163 558 1149 q 581 1193 581 1176 q 566 1223 581 1211 q 531 1235 551 1235 q 495 1227 511 1235 q 467 1210 479 1219 q 444 1199 457 1200 q 421 1210 432 1199 q 414 1231 413 1219 q 426 1254 415 1243 z "},"Ỡ":{"ha":1064,"x_min":67,"x_max":997,"o":"m 997 486 q 963 285 997 376 q 867 127 929 194 q 719 23 804 60 q 532 -14 633 -14 q 345 23 431 -14 q 197 127 260 60 q 101 285 135 194 q 67 486 67 376 q 101 687 67 596 q 197 845 135 778 q 345 949 260 913 q 532 986 431 986 q 719 949 633 986 q 867 845 804 913 q 963 687 929 778 q 997 486 997 596 m 908 486 q 860 703 908 610 q 728 850 813 797 q 532 903 643 903 q 337 850 422 903 q 203 703 251 797 q 156 486 156 610 q 203 269 156 363 q 337 122 251 175 q 532 69 422 69 q 728 122 643 69 q 860 269 813 175 q 908 486 908 363 m 642 897 l 642 971 q 740 995 707 971 q 772 1078 772 1019 q 781 1113 772 1097 q 808 1128 790 1128 q 838 1111 831 1128 q 844 1078 844 1094 q 820 983 844 1024 q 751 919 796 942 q 642 897 707 897 m 347 1076 q 320 1092 329 1076 q 315 1138 311 1108 q 359 1206 325 1182 q 436 1231 393 1231 q 506 1210 471 1231 q 573 1170 540 1190 q 629 1150 606 1150 q 660 1165 649 1150 q 675 1204 672 1181 q 683 1231 674 1221 q 706 1240 692 1240 q 735 1224 726 1240 q 739 1181 743 1207 q 719 1128 735 1150 q 680 1094 703 1106 q 626 1082 657 1082 q 558 1102 593 1082 q 489 1142 522 1122 q 432 1161 456 1161 q 399 1148 413 1161 q 378 1107 385 1135 q 369 1085 379 1093 q 347 1076 358 1076 z "},"Ő":{"ha":1064,"x_min":67,"x_max":997,"o":"m 997 486 q 963 285 997 376 q 867 127 929 194 q 719 23 804 60 q 532 -14 633 -14 q 345 23 431 -14 q 197 127 260 60 q 101 285 135 194 q 67 486 67 376 q 101 687 67 596 q 197 845 135 778 q 345 949 260 913 q 532 986 431 986 q 719 949 633 986 q 867 845 804 913 q 963 687 929 778 q 997 486 997 596 m 908 486 q 860 703 908 610 q 728 850 813 797 q 532 903 643 903 q 337 850 422 903 q 203 703 251 797 q 156 486 156 610 q 203 269 156 363 q 337 122 251 175 q 532 69 422 69 q 728 122 643 69 q 860 269 813 175 q 908 486 908 363 m 394 1035 q 374 1057 374 1035 q 383 1082 374 1067 l 461 1201 q 478 1220 468 1211 q 506 1229 489 1229 q 538 1217 525 1229 q 551 1186 551 1206 q 548 1169 551 1176 q 539 1156 544 1163 l 443 1060 q 422 1042 433 1050 q 394 1035 410 1035 m 613 1035 q 590 1056 590 1035 q 600 1082 590 1067 l 679 1201 q 697 1219 686 1211 q 724 1228 707 1228 q 755 1218 740 1228 q 769 1186 769 1208 q 766 1169 769 1176 q 756 1156 763 1163 l 661 1060 q 639 1042 650 1050 q 613 1035 628 1035 z "},"Ȏ":{"ha":1064,"x_min":67,"x_max":997,"o":"m 997 486 q 963 285 997 376 q 867 127 929 194 q 719 23 804 60 q 532 -14 633 -14 q 345 23 431 -14 q 197 127 260 60 q 101 285 135 194 q 67 486 67 376 q 101 687 67 596 q 197 845 135 778 q 345 949 260 913 q 532 986 431 986 q 719 949 633 986 q 867 845 804 913 q 963 687 929 778 q 997 486 997 596 m 908 486 q 860 703 908 610 q 728 850 813 797 q 532 903 643 903 q 337 850 422 903 q 203 703 251 797 q 156 486 156 610 q 203 269 156 363 q 337 122 251 175 q 532 69 422 69 q 728 122 643 69 q 860 269 813 175 q 908 486 908 363 m 531 1201 q 618 1183 579 1201 q 682 1134 657 1165 q 711 1065 707 1103 q 706 1038 715 1049 q 681 1028 696 1028 q 655 1037 664 1028 q 639 1061 646 1046 q 599 1114 629 1096 q 531 1132 569 1132 q 460 1114 490 1132 q 422 1061 431 1096 q 407 1037 417 1046 q 379 1028 397 1028 q 355 1038 364 1028 q 349 1064 346 1049 q 378 1134 353 1103 q 442 1183 403 1165 q 531 1201 482 1201 z "},"Ō":{"ha":1064,"x_min":67,"x_max":997,"o":"m 997 486 q 963 285 997 376 q 867 127 929 194 q 719 23 804 60 q 532 -14 633 -14 q 345 23 431 -14 q 197 127 260 60 q 101 285 135 194 q 67 486 67 376 q 101 687 67 596 q 197 845 135 778 q 345 949 260 913 q 532 986 431 986 q 719 949 633 986 q 867 845 804 913 q 963 687 929 778 q 997 486 997 596 m 908 486 q 860 703 908 610 q 728 850 813 797 q 532 903 643 903 q 337 850 422 903 q 203 703 251 797 q 156 486 156 610 q 203 269 156 363 q 337 122 251 175 q 532 69 422 69 q 728 122 643 69 q 860 269 813 175 q 908 486 908 363 m 360 1094 q 319 1129 319 1094 q 360 1165 319 1165 l 714 1165 q 754 1129 754 1165 q 714 1094 754 1094 l 360 1094 z "},"Ṓ":{"ha":1064,"x_min":67,"x_max":997,"o":"m 997 486 q 963 285 997 376 q 867 127 929 194 q 719 23 804 60 q 532 -14 633 -14 q 345 23 431 -14 q 197 127 260 60 q 101 285 135 194 q 67 486 67 376 q 101 687 67 596 q 197 845 135 778 q 345 949 260 913 q 532 986 431 986 q 719 949 633 986 q 867 845 804 913 q 963 687 929 778 q 997 486 997 596 m 908 486 q 860 703 908 610 q 728 850 813 797 q 532 903 643 903 q 337 850 422 903 q 203 703 251 797 q 156 486 156 610 q 203 269 156 363 q 337 122 251 175 q 532 69 422 69 q 728 122 643 69 q 860 269 813 175 q 908 486 908 363 m 360 1094 q 319 1129 319 1094 q 360 1165 319 1165 l 714 1165 q 754 1129 754 1165 q 714 1094 754 1094 l 360 1094 m 536 1250 q 516 1258 522 1250 q 510 1275 510 1265 q 513 1288 510 1282 q 524 1300 517 1294 l 647 1396 q 665 1406 656 1401 q 688 1411 675 1411 q 717 1399 706 1411 q 729 1369 729 1388 q 722 1344 729 1356 q 703 1326 715 1333 l 567 1258 q 552 1253 560 1256 q 536 1250 544 1250 z "},"Ṑ":{"ha":1064,"x_min":67,"x_max":997,"o":"m 997 486 q 963 285 997 376 q 867 127 929 194 q 719 23 804 60 q 532 -14 633 -14 q 345 23 431 -14 q 197 127 260 60 q 101 285 135 194 q 67 486 67 376 q 101 687 67 596 q 197 845 135 778 q 345 949 260 913 q 532 986 431 986 q 719 949 633 986 q 867 845 804 913 q 963 687 929 778 q 997 486 997 596 m 908 486 q 860 703 908 610 q 728 850 813 797 q 532 903 643 903 q 337 850 422 903 q 203 703 251 797 q 156 486 156 610 q 203 269 156 363 q 337 122 251 175 q 532 69 422 69 q 728 122 643 69 q 860 269 813 175 q 908 486 908 363 m 360 1094 q 319 1129 319 1094 q 360 1165 319 1165 l 714 1165 q 754 1129 754 1165 q 714 1094 754 1094 l 360 1094 m 532 1251 q 517 1254 524 1251 q 501 1260 510 1257 l 367 1328 q 339 1371 339 1343 q 351 1401 339 1389 q 381 1413 363 1413 q 403 1408 393 1413 q 421 1397 414 1403 l 544 1301 q 555 1290 551 1296 q 558 1276 558 1283 q 552 1259 558 1267 q 532 1251 546 1251 z "},"Ǫ":{"ha":1064,"x_min":67,"x_max":997,"o":"m 589 -264 q 497 -229 538 -264 q 456 -132 456 -194 q 469 -64 456 -93 q 506 -14 483 -35 q 555 22 528 7 q 608 44 582 36 l 663 4 q 597 -16 626 1 q 548 -60 567 -33 q 529 -115 529 -86 q 550 -173 529 -153 q 597 -193 571 -193 q 619 -191 610 -193 q 633 -182 628 -189 q 653 -162 642 -169 q 674 -156 664 -156 q 696 -165 688 -156 q 704 -187 704 -174 q 688 -225 704 -207 q 647 -253 672 -243 q 589 -264 621 -264 m 997 486 q 963 285 997 376 q 867 127 929 194 q 719 23 804 60 q 532 -14 633 -14 q 345 23 431 -14 q 197 127 260 60 q 101 285 135 194 q 67 486 67 376 q 101 687 67 596 q 197 845 135 778 q 345 949 260 913 q 532 986 431 986 q 719 949 633 986 q 867 845 804 913 q 963 687 929 778 q 997 486 997 596 m 908 486 q 860 703 908 610 q 728 850 813 797 q 532 903 643 903 q 337 850 422 903 q 203 703 251 797 q 156 486 156 610 q 203 269 156 363 q 337 122 251 175 q 532 69 422 69 q 728 122 643 69 q 860 269 813 175 q 908 486 908 363 z "},"Ø":{"ha":1008,"x_min":67,"x_max":997,"o":"m 129 -32 q 105 -22 115 -32 q 94 4 94 -11 q 103 29 94 17 l 899 990 q 915 1005 907 1001 q 935 1008 924 1008 q 960 999 949 1008 q 971 975 971 990 q 960 947 971 960 l 169 -8 q 153 -25 163 -18 q 129 -32 143 -32 m 997 486 q 963 285 997 376 q 867 127 929 194 q 719 23 804 60 q 532 -14 633 -14 q 345 23 431 -14 q 197 127 260 60 q 101 285 135 194 q 67 486 67 376 q 101 687 67 596 q 197 845 135 778 q 345 949 260 913 q 532 986 431 986 q 719 949 633 986 q 867 845 804 913 q 963 687 929 778 q 997 486 997 596 m 908 486 q 860 703 908 610 q 728 850 813 797 q 532 903 643 903 q 337 850 422 903 q 203 703 251 797 q 156 486 156 610 q 203 269 156 363 q 337 122 251 175 q 532 69 422 69 q 728 122 643 69 q 860 269 813 175 q 908 486 908 363 z "},"Ǿ":{"ha":1008,"x_min":67,"x_max":997,"o":"m 129 -32 q 105 -22 115 -32 q 94 4 94 -11 q 103 29 94 17 l 899 990 q 915 1005 907 1001 q 935 1008 924 1008 q 960 999 949 1008 q 971 975 971 990 q 960 947 971 960 l 169 -8 q 153 -25 163 -18 q 129 -32 143 -32 m 997 486 q 963 285 997 376 q 867 127 929 194 q 719 23 804 60 q 532 -14 633 -14 q 345 23 431 -14 q 197 127 260 60 q 101 285 135 194 q 67 486 67 376 q 101 687 67 596 q 197 845 135 778 q 345 949 260 913 q 532 986 431 986 q 719 949 633 986 q 867 845 804 913 q 963 687 929 778 q 997 486 997 596 m 908 486 q 860 703 908 610 q 728 850 813 797 q 532 903 643 903 q 337 850 422 903 q 203 703 251 797 q 156 486 156 610 q 203 269 156 363 q 337 122 251 175 q 532 69 422 69 q 728 122 643 69 q 860 269 813 175 q 908 486 908 363 m 508 1036 q 488 1044 494 1036 q 482 1061 482 1051 q 485 1074 482 1068 q 496 1086 489 1081 l 619 1182 q 638 1192 628 1188 q 660 1197 647 1197 q 690 1185 678 1197 q 701 1156 701 1174 q 694 1131 701 1142 q 675 1113 688 1119 l 539 1044 q 524 1039 532 1042 q 508 1036 517 1036 z "},"Õ":{"ha":1064,"x_min":67,"x_max":997,"o":"m 997 486 q 963 285 997 376 q 867 127 929 194 q 719 23 804 60 q 532 -14 633 -14 q 345 23 431 -14 q 197 127 260 60 q 101 285 135 194 q 67 486 67 376 q 101 687 67 596 q 197 845 135 778 q 345 949 260 913 q 532 986 431 986 q 719 949 633 986 q 867 845 804 913 q 963 687 929 778 q 997 486 997 596 m 908 486 q 860 703 908 610 q 728 850 813 797 q 532 903 643 903 q 337 850 422 903 q 203 703 251 797 q 156 486 156 610 q 203 269 156 363 q 337 122 251 175 q 532 69 422 69 q 728 122 643 69 q 860 269 813 175 q 908 486 908 363 m 353 1071 q 326 1087 335 1071 q 321 1132 317 1103 q 365 1201 331 1176 q 442 1225 399 1225 q 511 1205 476 1225 q 578 1165 546 1185 q 635 1144 611 1144 q 666 1160 654 1144 q 681 1199 678 1175 q 688 1225 679 1215 q 711 1235 697 1235 q 740 1218 732 1235 q 744 1175 749 1201 q 724 1122 740 1144 q 685 1088 708 1100 q 632 1076 663 1076 q 563 1097 599 1076 q 494 1136 528 1117 q 438 1156 461 1156 q 404 1142 418 1156 q 383 1101 390 1129 q 374 1079 385 1088 q 353 1071 364 1071 z "},"Ṍ":{"ha":1064,"x_min":67,"x_max":997,"o":"m 997 486 q 963 285 997 376 q 867 127 929 194 q 719 23 804 60 q 532 -14 633 -14 q 345 23 431 -14 q 197 127 260 60 q 101 285 135 194 q 67 486 67 376 q 101 687 67 596 q 197 845 135 778 q 345 949 260 913 q 532 986 431 986 q 719 949 633 986 q 867 845 804 913 q 963 687 929 778 q 997 486 997 596 m 908 486 q 860 703 908 610 q 728 850 813 797 q 532 903 643 903 q 337 850 422 903 q 203 703 251 797 q 156 486 156 610 q 203 269 156 363 q 337 122 251 175 q 532 69 422 69 q 728 122 643 69 q 860 269 813 175 q 908 486 908 363 m 353 1071 q 326 1087 335 1071 q 321 1132 317 1103 q 365 1201 331 1176 q 442 1225 399 1225 q 511 1205 476 1225 q 578 1165 546 1185 q 635 1144 611 1144 q 666 1160 654 1144 q 681 1199 678 1175 q 688 1225 679 1215 q 711 1235 697 1235 q 740 1218 732 1235 q 744 1175 749 1201 q 724 1122 740 1144 q 685 1088 708 1100 q 632 1076 663 1076 q 563 1097 599 1076 q 494 1136 528 1117 q 438 1156 461 1156 q 404 1142 418 1156 q 383 1101 390 1129 q 374 1079 385 1088 q 353 1071 364 1071 m 536 1303 q 516 1310 522 1303 q 510 1328 510 1318 q 513 1341 510 1335 q 524 1353 517 1347 l 647 1449 q 665 1459 656 1454 q 688 1464 675 1464 q 717 1452 706 1464 q 729 1422 729 1440 q 722 1397 729 1408 q 703 1379 715 1386 l 567 1311 q 552 1306 560 1308 q 536 1303 544 1303 z "},"Ṏ":{"ha":1064,"x_min":67,"x_max":997,"o":"m 997 486 q 963 285 997 376 q 867 127 929 194 q 719 23 804 60 q 532 -14 633 -14 q 345 23 431 -14 q 197 127 260 60 q 101 285 135 194 q 67 486 67 376 q 101 687 67 596 q 197 845 135 778 q 345 949 260 913 q 532 986 431 986 q 719 949 633 986 q 867 845 804 913 q 963 687 929 778 q 997 486 997 596 m 908 486 q 860 703 908 610 q 728 850 813 797 q 532 903 643 903 q 337 850 422 903 q 203 703 251 797 q 156 486 156 610 q 203 269 156 363 q 337 122 251 175 q 532 69 422 69 q 728 122 643 69 q 860 269 813 175 q 908 486 908 363 m 353 1071 q 326 1087 335 1071 q 321 1132 317 1103 q 365 1201 331 1176 q 442 1225 399 1225 q 511 1205 476 1225 q 578 1165 546 1185 q 635 1144 611 1144 q 666 1160 654 1144 q 681 1199 678 1175 q 688 1225 679 1215 q 711 1235 697 1235 q 740 1218 732 1235 q 744 1175 749 1201 q 724 1122 740 1144 q 685 1088 708 1100 q 632 1076 663 1076 q 563 1097 599 1076 q 494 1136 528 1117 q 438 1156 461 1156 q 404 1142 418 1156 q 383 1101 390 1129 q 374 1079 385 1088 q 353 1071 364 1071 m 651 1343 q 610 1358 625 1343 q 594 1399 594 1372 l 594 1413 q 610 1453 594 1439 q 653 1468 626 1468 q 694 1453 679 1468 q 710 1413 710 1439 l 710 1399 q 694 1357 710 1371 q 651 1343 679 1343 m 413 1343 q 371 1358 386 1343 q 356 1399 356 1372 l 356 1413 q 372 1453 356 1439 q 414 1468 388 1468 q 456 1453 440 1468 q 471 1413 471 1439 l 471 1399 q 456 1357 471 1371 q 413 1343 440 1343 z "},"Ȭ":{"ha":1064,"x_min":67,"x_max":997,"o":"m 997 486 q 963 285 997 376 q 867 127 929 194 q 719 23 804 60 q 532 -14 633 -14 q 345 23 431 -14 q 197 127 260 60 q 101 285 135 194 q 67 486 67 376 q 101 687 67 596 q 197 845 135 778 q 345 949 260 913 q 532 986 431 986 q 719 949 633 986 q 867 845 804 913 q 963 687 929 778 q 997 486 997 596 m 908 486 q 860 703 908 610 q 728 850 813 797 q 532 903 643 903 q 337 850 422 903 q 203 703 251 797 q 156 486 156 610 q 203 269 156 363 q 337 122 251 175 q 532 69 422 69 q 728 122 643 69 q 860 269 813 175 q 908 486 908 363 m 353 1071 q 326 1087 335 1071 q 321 1132 317 1103 q 365 1201 331 1176 q 442 1225 399 1225 q 511 1205 476 1225 q 578 1165 546 1185 q 635 1144 611 1144 q 666 1160 654 1144 q 681 1199 678 1175 q 688 1225 679 1215 q 711 1235 697 1235 q 740 1218 732 1235 q 744 1175 749 1201 q 724 1122 740 1144 q 685 1088 708 1100 q 632 1076 663 1076 q 563 1097 599 1076 q 494 1136 528 1117 q 438 1156 461 1156 q 404 1142 418 1156 q 383 1101 390 1129 q 374 1079 385 1088 q 353 1071 364 1071 m 360 1361 q 319 1396 319 1361 q 360 1432 319 1432 l 714 1432 q 754 1396 754 1432 q 714 1361 754 1361 l 360 1361 z "},"Œ":{"ha":1375,"x_min":67,"x_max":1310,"o":"m 1268 83 q 1297 71 1285 83 q 1310 42 1310 58 q 1297 12 1310 24 q 1268 0 1285 0 l 472 0 q 244 66 335 0 q 110 242 154 132 q 67 486 67 353 q 91 669 67 582 q 165 826 115 757 q 292 933 215 894 q 472 972 369 972 l 1268 972 q 1297 960 1285 972 q 1310 931 1310 947 q 1297 901 1310 913 q 1268 889 1285 889 l 804 889 l 814 900 l 814 526 l 803 543 l 1206 543 q 1235 531 1222 543 q 1247 500 1247 518 q 1235 471 1247 482 q 1206 460 1222 460 l 803 460 l 814 472 l 814 74 l 806 83 l 1268 83 m 742 83 l 729 68 l 729 901 l 738 889 l 483 889 q 332 857 394 889 q 228 769 269 825 q 169 640 188 713 q 150 486 150 567 q 184 283 150 375 q 292 138 218 192 q 483 83 367 83 l 742 83 z "},"P":{"ha":828,"x_min":131,"x_max":768,"o":"m 501 972 q 639 937 579 972 q 733 839 699 901 q 768 696 768 776 q 733 551 768 615 q 639 449 699 486 q 501 411 579 411 l 207 411 l 214 425 l 214 42 q 201 13 214 25 q 172 0 189 0 q 142 13 153 0 q 131 42 131 25 l 131 931 q 143 960 131 947 q 172 972 156 972 l 501 972 m 501 492 q 596 519 556 492 q 659 592 636 546 q 682 696 682 639 q 659 797 682 753 q 596 865 636 840 q 501 890 556 890 l 207 890 l 214 903 l 214 483 l 206 492 l 501 492 z "},"Þ":{"ha":817,"x_min":131,"x_max":756,"o":"m 214 42 q 201 13 214 25 q 172 0 189 0 q 142 13 153 0 q 131 42 131 25 l 131 986 q 143 1015 131 1003 q 172 1028 156 1028 q 202 1015 190 1028 q 214 986 214 1003 l 214 42 m 196 346 l 490 346 q 585 372 544 346 q 648 444 625 399 q 671 546 671 490 q 648 647 671 604 q 585 715 625 690 q 490 740 544 740 l 197 740 l 161 824 l 490 824 q 628 788 568 824 q 722 690 688 753 q 756 546 756 628 q 722 402 756 467 q 627 300 688 338 q 490 263 567 263 l 175 263 l 196 346 z "},"Q":{"ha":1076,"x_min":67,"x_max":1101,"o":"m 1064 -78 q 1090 -88 1079 -78 q 1101 -115 1101 -99 q 1077 -161 1101 -139 q 1013 -202 1053 -183 q 930 -231 974 -221 q 847 -242 886 -242 q 710 -224 765 -242 q 613 -182 654 -206 q 528 -140 571 -158 q 425 -122 485 -122 q 381 -131 400 -122 q 347 -147 363 -139 q 313 -154 331 -154 q 284 -142 296 -154 q 272 -111 272 -129 q 296 -76 272 -86 l 535 10 l 663 6 l 442 -69 l 460 -50 q 564 -67 518 -50 q 652 -106 610 -83 q 742 -147 694 -129 q 850 -164 789 -164 q 940 -148 904 -164 q 997 -119 975 -132 q 1033 -92 1018 -107 q 1064 -78 1047 -78 m 997 486 q 963 285 997 376 q 867 127 929 194 q 719 23 804 60 q 532 -14 633 -14 q 345 23 431 -14 q 197 127 260 60 q 101 285 135 194 q 67 486 67 376 q 101 687 67 596 q 197 845 135 778 q 345 949 260 913 q 532 986 431 986 q 719 949 633 986 q 867 845 804 913 q 963 687 929 778 q 997 486 997 596 m 908 486 q 860 703 908 610 q 728 850 813 797 q 532 903 643 903 q 337 850 422 903 q 203 703 251 797 q 156 486 156 610 q 203 269 156 363 q 337 122 251 175 q 532 69 422 69 q 728 122 643 69 q 860 269 813 175 q 908 486 908 363 z "},"R":{"ha":931,"x_min":131,"x_max":864,"o":"m 178 0 q 144 13 157 0 q 131 42 131 25 l 131 931 q 143 960 131 947 q 172 972 156 972 l 547 972 q 689 938 626 972 q 787 844 751 904 q 822 710 822 785 q 800 597 822 649 q 738 510 778 546 q 647 458 697 475 l 599 474 q 694 441 650 469 q 766 363 739 413 q 794 244 793 314 q 801 151 796 185 q 815 101 806 118 q 840 75 825 85 q 859 51 854 67 q 856 22 864 36 q 840 6 850 11 q 818 1 829 1 q 796 7 807 1 q 756 42 776 18 q 723 111 736 65 q 710 239 710 157 q 692 328 710 293 q 648 381 675 363 q 588 408 621 400 q 526 415 556 415 l 203 415 l 218 435 l 218 42 q 207 13 218 25 q 178 0 196 0 m 203 492 l 551 492 q 640 523 599 496 q 708 597 682 550 q 733 707 733 644 q 680 838 733 786 q 540 890 626 890 l 208 890 l 218 910 l 218 472 l 203 492 z "},"Ŕ":{"ha":931,"x_min":131,"x_max":864,"o":"m 178 0 q 144 13 157 0 q 131 42 131 25 l 131 931 q 143 960 131 947 q 172 972 156 972 l 547 972 q 689 938 626 972 q 787 844 751 904 q 822 710 822 785 q 800 597 822 649 q 738 510 778 546 q 647 458 697 475 l 599 474 q 694 441 650 469 q 766 363 739 413 q 794 244 793 314 q 801 151 796 185 q 815 101 806 118 q 840 75 825 85 q 859 51 854 67 q 856 22 864 36 q 840 6 850 11 q 818 1 829 1 q 796 7 807 1 q 756 42 776 18 q 723 111 736 65 q 710 239 710 157 q 692 328 710 293 q 648 381 675 363 q 588 408 621 400 q 526 415 556 415 l 203 415 l 218 435 l 218 42 q 207 13 218 25 q 178 0 196 0 m 203 492 l 551 492 q 640 523 599 496 q 708 597 682 550 q 733 707 733 644 q 680 838 733 786 q 540 890 626 890 l 208 890 l 218 910 l 218 472 l 203 492 m 464 1036 q 444 1044 450 1036 q 438 1061 438 1051 q 441 1074 438 1068 q 451 1086 444 1081 l 575 1182 q 593 1192 583 1188 q 615 1197 603 1197 q 645 1185 633 1197 q 657 1156 657 1174 q 650 1131 657 1142 q 631 1113 643 1119 l 494 1044 q 480 1039 488 1042 q 464 1036 472 1036 z "},"Ř":{"ha":931,"x_min":131,"x_max":864,"o":"m 178 0 q 144 13 157 0 q 131 42 131 25 l 131 931 q 143 960 131 947 q 172 972 156 972 l 547 972 q 689 938 626 972 q 787 844 751 904 q 822 710 822 785 q 800 597 822 649 q 738 510 778 546 q 647 458 697 475 l 599 474 q 694 441 650 469 q 766 363 739 413 q 794 244 793 314 q 801 151 796 185 q 815 101 806 118 q 840 75 825 85 q 859 51 854 67 q 856 22 864 36 q 840 6 850 11 q 818 1 829 1 q 796 7 807 1 q 756 42 776 18 q 723 111 736 65 q 710 239 710 157 q 692 328 710 293 q 648 381 675 363 q 588 408 621 400 q 526 415 556 415 l 203 415 l 218 435 l 218 42 q 207 13 218 25 q 178 0 196 0 m 203 492 l 551 492 q 640 523 599 496 q 708 597 682 550 q 733 707 733 644 q 680 838 733 786 q 540 890 626 890 l 208 890 l 218 910 l 218 472 l 203 492 m 449 1114 l 571 1211 q 592 1225 582 1221 q 608 1229 601 1229 q 626 1223 619 1229 q 632 1208 632 1217 q 629 1197 632 1203 q 621 1185 626 1192 l 514 1071 q 494 1053 506 1058 q 468 1047 483 1047 l 453 1047 q 426 1053 438 1047 q 406 1071 415 1058 l 300 1183 q 291 1196 293 1190 q 289 1207 289 1201 q 295 1222 289 1215 q 311 1228 301 1228 q 349 1211 326 1228 l 474 1118 l 449 1114 z "},"Ŗ":{"ha":931,"x_min":131,"x_max":864,"o":"m 178 0 q 144 13 157 0 q 131 42 131 25 l 131 931 q 143 960 131 947 q 172 972 156 972 l 547 972 q 689 938 626 972 q 787 844 751 904 q 822 710 822 785 q 800 597 822 649 q 738 510 778 546 q 647 458 697 475 l 599 474 q 694 441 650 469 q 766 363 739 413 q 794 244 793 314 q 801 151 796 185 q 815 101 806 118 q 840 75 825 85 q 859 51 854 67 q 856 22 864 36 q 840 6 850 11 q 818 1 829 1 q 796 7 807 1 q 756 42 776 18 q 723 111 736 65 q 710 239 710 157 q 692 328 710 293 q 648 381 675 363 q 588 408 621 400 q 526 415 556 415 l 203 415 l 218 435 l 218 42 q 207 13 218 25 q 178 0 196 0 m 203 492 l 551 492 q 640 523 599 496 q 708 597 682 550 q 733 707 733 644 q 680 838 733 786 q 540 890 626 890 l 208 890 l 218 910 l 218 472 l 203 492 m 543 -149 q 528 -201 543 -176 q 488 -240 513 -225 q 436 -254 464 -254 q 399 -246 410 -254 q 388 -226 388 -237 q 394 -207 388 -214 q 408 -200 400 -200 q 424 -203 415 -200 q 449 -204 433 -207 q 468 -192 461 -203 q 475 -160 475 -181 q 461 -143 475 -143 q 448 -149 453 -143 q 431 -154 443 -154 q 404 -143 414 -156 q 394 -117 394 -131 q 414 -79 394 -93 q 467 -65 433 -65 q 521 -86 499 -65 q 543 -149 543 -107 z "},"Ȑ":{"ha":931,"x_min":131,"x_max":864,"o":"m 178 0 q 144 13 157 0 q 131 42 131 25 l 131 931 q 143 960 131 947 q 172 972 156 972 l 547 972 q 689 938 626 972 q 787 844 751 904 q 822 710 822 785 q 800 597 822 649 q 738 510 778 546 q 647 458 697 475 l 599 474 q 694 441 650 469 q 766 363 739 413 q 794 244 793 314 q 801 151 796 185 q 815 101 806 118 q 840 75 825 85 q 859 51 854 67 q 856 22 864 36 q 840 6 850 11 q 818 1 829 1 q 796 7 807 1 q 756 42 776 18 q 723 111 736 65 q 710 239 710 157 q 692 328 710 293 q 648 381 675 363 q 588 408 621 400 q 526 415 556 415 l 203 415 l 218 435 l 218 42 q 207 13 218 25 q 178 0 196 0 m 203 492 l 551 492 q 640 523 599 496 q 708 597 682 550 q 733 707 733 644 q 680 838 733 786 q 540 890 626 890 l 208 890 l 218 910 l 218 472 l 203 492 m 393 1049 q 378 1052 385 1049 q 363 1058 371 1056 l 228 1125 q 200 1169 200 1140 q 212 1199 200 1186 q 242 1211 224 1211 q 265 1206 254 1211 q 282 1194 275 1201 l 406 1099 q 416 1088 413 1093 q 419 1074 419 1082 q 413 1056 419 1064 q 393 1049 407 1049 m 626 1049 q 610 1051 618 1049 q 596 1057 603 1054 l 460 1125 q 433 1168 433 1140 q 445 1198 433 1186 q 475 1210 457 1210 q 497 1205 488 1210 q 515 1194 507 1200 l 639 1099 q 649 1087 646 1093 q 653 1074 653 1081 q 647 1056 653 1064 q 626 1049 640 1049 z "},"Ṛ":{"ha":931,"x_min":131,"x_max":864,"o":"m 178 0 q 144 13 157 0 q 131 42 131 25 l 131 931 q 143 960 131 947 q 172 972 156 972 l 547 972 q 689 938 626 972 q 787 844 751 904 q 822 710 822 785 q 800 597 822 649 q 738 510 778 546 q 647 458 697 475 l 599 474 q 694 441 650 469 q 766 363 739 413 q 794 244 793 314 q 801 151 796 185 q 815 101 806 118 q 840 75 825 85 q 859 51 854 67 q 856 22 864 36 q 840 6 850 11 q 818 1 829 1 q 796 7 807 1 q 756 42 776 18 q 723 111 736 65 q 710 239 710 157 q 692 328 710 293 q 648 381 675 363 q 588 408 621 400 q 526 415 556 415 l 203 415 l 218 435 l 218 42 q 207 13 218 25 q 178 0 196 0 m 203 492 l 551 492 q 640 523 599 496 q 708 597 682 550 q 733 707 733 644 q 680 838 733 786 q 540 890 626 890 l 208 890 l 218 910 l 218 472 l 203 492 m 460 -193 q 416 -179 431 -193 q 401 -139 401 -165 l 401 -124 q 417 -83 401 -97 q 460 -69 433 -69 q 502 -83 488 -69 q 517 -124 517 -97 l 517 -139 q 502 -179 517 -165 q 460 -193 488 -193 z "},"Ȓ":{"ha":931,"x_min":131,"x_max":864,"o":"m 178 0 q 144 13 157 0 q 131 42 131 25 l 131 931 q 143 960 131 947 q 172 972 156 972 l 547 972 q 689 938 626 972 q 787 844 751 904 q 822 710 822 785 q 800 597 822 649 q 738 510 778 546 q 647 458 697 475 l 599 474 q 694 441 650 469 q 766 363 739 413 q 794 244 793 314 q 801 151 796 185 q 815 101 806 118 q 840 75 825 85 q 859 51 854 67 q 856 22 864 36 q 840 6 850 11 q 818 1 829 1 q 796 7 807 1 q 756 42 776 18 q 723 111 736 65 q 710 239 710 157 q 692 328 710 293 q 648 381 675 363 q 588 408 621 400 q 526 415 556 415 l 203 415 l 218 435 l 218 42 q 207 13 218 25 q 178 0 196 0 m 203 492 l 551 492 q 640 523 599 496 q 708 597 682 550 q 733 707 733 644 q 680 838 733 786 q 540 890 626 890 l 208 890 l 218 910 l 218 472 l 203 492 m 458 1201 q 546 1183 507 1201 q 610 1134 585 1165 q 639 1065 635 1103 q 633 1038 643 1049 q 608 1028 624 1028 q 583 1037 592 1028 q 567 1061 574 1046 q 527 1114 557 1096 q 458 1132 497 1132 q 388 1114 418 1132 q 350 1061 358 1096 q 335 1037 344 1046 q 307 1028 325 1028 q 283 1038 292 1028 q 276 1064 274 1049 q 306 1134 281 1103 q 370 1183 331 1165 q 458 1201 410 1201 z "},"Ṟ":{"ha":931,"x_min":131,"x_max":864,"o":"m 178 0 q 144 13 157 0 q 131 42 131 25 l 131 931 q 143 960 131 947 q 172 972 156 972 l 547 972 q 689 938 626 972 q 787 844 751 904 q 822 710 822 785 q 800 597 822 649 q 738 510 778 546 q 647 458 697 475 l 599 474 q 694 441 650 469 q 766 363 739 413 q 794 244 793 314 q 801 151 796 185 q 815 101 806 118 q 840 75 825 85 q 859 51 854 67 q 856 22 864 36 q 840 6 850 11 q 818 1 829 1 q 796 7 807 1 q 756 42 776 18 q 723 111 736 65 q 710 239 710 157 q 692 328 710 293 q 648 381 675 363 q 588 408 621 400 q 526 415 556 415 l 203 415 l 218 435 l 218 42 q 207 13 218 25 q 178 0 196 0 m 203 492 l 551 492 q 640 523 599 496 q 708 597 682 550 q 733 707 733 644 q 680 838 733 786 q 540 890 626 890 l 208 890 l 218 910 l 218 472 l 203 492 m 324 -175 q 285 -140 285 -175 q 324 -106 285 -106 l 615 -106 q 654 -140 654 -106 q 615 -175 654 -175 l 324 -175 z "},"S":{"ha":781,"x_min":50,"x_max":714,"o":"m 399 -14 q 215 19 293 -15 q 67 124 138 54 q 55 138 60 129 q 50 157 50 146 q 63 188 50 174 q 93 201 76 201 q 124 188 110 201 q 247 99 178 129 q 394 68 315 68 q 513 89 461 68 q 596 149 565 110 q 626 239 626 188 q 592 342 626 303 q 500 408 557 382 q 374 454 443 433 q 265 492 317 471 q 174 545 214 514 q 111 622 133 576 q 89 733 89 668 q 128 864 89 807 q 238 953 167 921 q 404 986 310 986 q 562 958 486 986 q 682 876 638 931 q 703 836 703 854 q 689 808 703 822 q 658 794 675 794 q 635 804 644 794 q 575 856 611 833 q 495 892 539 879 q 404 904 451 904 q 287 884 339 904 q 205 826 235 864 q 175 736 175 789 q 208 640 175 678 q 296 578 242 603 q 411 533 350 554 q 526 495 471 517 q 623 442 581 474 q 690 361 665 410 q 714 239 714 313 q 674 111 714 168 q 563 21 633 54 q 399 -14 493 -12 z "},"Ś":{"ha":781,"x_min":50,"x_max":714,"o":"m 399 -14 q 215 19 293 -15 q 67 124 138 54 q 55 138 60 129 q 50 157 50 146 q 63 188 50 174 q 93 201 76 201 q 124 188 110 201 q 247 99 178 129 q 394 68 315 68 q 513 89 461 68 q 596 149 565 110 q 626 239 626 188 q 592 342 626 303 q 500 408 557 382 q 374 454 443 433 q 265 492 317 471 q 174 545 214 514 q 111 622 133 576 q 89 733 89 668 q 128 864 89 807 q 238 953 167 921 q 404 986 310 986 q 562 958 486 986 q 682 876 638 931 q 703 836 703 854 q 689 808 703 822 q 658 794 675 794 q 635 804 644 794 q 575 856 611 833 q 495 892 539 879 q 404 904 451 904 q 287 884 339 904 q 205 826 235 864 q 175 736 175 789 q 208 640 175 678 q 296 578 242 603 q 411 533 350 554 q 526 495 471 517 q 623 442 581 474 q 690 361 665 410 q 714 239 714 313 q 674 111 714 168 q 563 21 633 54 q 399 -14 493 -12 m 394 1036 q 374 1044 381 1036 q 368 1061 368 1051 q 372 1074 368 1068 q 382 1086 375 1081 l 506 1182 q 524 1192 514 1188 q 546 1197 533 1197 q 576 1185 564 1197 q 588 1156 588 1174 q 581 1131 588 1142 q 561 1113 574 1119 l 425 1044 q 410 1039 418 1042 q 394 1036 403 1036 z "},"Ṥ":{"ha":781,"x_min":50,"x_max":714,"o":"m 399 -14 q 215 19 293 -15 q 67 124 138 54 q 55 138 60 129 q 50 157 50 146 q 63 188 50 174 q 93 201 76 201 q 124 188 110 201 q 247 99 178 129 q 394 68 315 68 q 513 89 461 68 q 596 149 565 110 q 626 239 626 188 q 592 342 626 303 q 500 408 557 382 q 374 454 443 433 q 265 492 317 471 q 174 545 214 514 q 111 622 133 576 q 89 733 89 668 q 128 864 89 807 q 238 953 167 921 q 404 986 310 986 q 562 958 486 986 q 682 876 638 931 q 703 836 703 854 q 689 808 703 822 q 658 794 675 794 q 635 804 644 794 q 575 856 611 833 q 495 892 539 879 q 404 904 451 904 q 287 884 339 904 q 205 826 235 864 q 175 736 175 789 q 208 640 175 678 q 296 578 242 603 q 411 533 350 554 q 526 495 471 517 q 623 442 581 474 q 690 361 665 410 q 714 239 714 313 q 674 111 714 168 q 563 21 633 54 q 399 -14 493 -12 m 394 1036 q 374 1044 381 1036 q 368 1061 368 1051 q 372 1074 368 1068 q 382 1086 375 1081 l 506 1182 q 524 1192 514 1188 q 546 1197 533 1197 q 576 1185 564 1197 q 588 1156 588 1174 q 581 1131 588 1142 q 561 1113 574 1119 l 425 1044 q 410 1039 418 1042 q 394 1036 403 1036 m 453 1288 q 409 1302 424 1288 q 394 1343 394 1317 l 394 1357 q 410 1399 394 1385 q 454 1413 426 1413 q 495 1399 481 1413 q 510 1357 510 1385 l 510 1343 q 495 1301 510 1315 q 453 1288 481 1288 z "},"Š":{"ha":781,"x_min":50,"x_max":714,"o":"m 399 -14 q 215 19 293 -15 q 67 124 138 54 q 55 138 60 129 q 50 157 50 146 q 63 188 50 174 q 93 201 76 201 q 124 188 110 201 q 247 99 178 129 q 394 68 315 68 q 513 89 461 68 q 596 149 565 110 q 626 239 626 188 q 592 342 626 303 q 500 408 557 382 q 374 454 443 433 q 265 492 317 471 q 174 545 214 514 q 111 622 133 576 q 89 733 89 668 q 128 864 89 807 q 238 953 167 921 q 404 986 310 986 q 562 958 486 986 q 682 876 638 931 q 703 836 703 854 q 689 808 703 822 q 658 794 675 794 q 635 804 644 794 q 575 856 611 833 q 495 892 539 879 q 404 904 451 904 q 287 884 339 904 q 205 826 235 864 q 175 736 175 789 q 208 640 175 678 q 296 578 242 603 q 411 533 350 554 q 526 495 471 517 q 623 442 581 474 q 690 361 665 410 q 714 239 714 313 q 674 111 714 168 q 563 21 633 54 q 399 -14 493 -12 m 378 1114 l 500 1211 q 521 1225 511 1221 q 538 1229 531 1229 q 555 1223 549 1229 q 561 1208 561 1217 q 558 1197 561 1203 q 550 1185 556 1192 l 443 1071 q 424 1053 435 1058 q 397 1047 413 1047 l 382 1047 q 356 1053 367 1047 q 335 1071 344 1058 l 229 1183 q 220 1196 222 1190 q 218 1207 218 1201 q 224 1222 218 1215 q 240 1228 231 1228 q 278 1211 256 1228 l 403 1118 l 378 1114 z "},"Ṧ":{"ha":781,"x_min":50,"x_max":714,"o":"m 399 -14 q 215 19 293 -15 q 67 124 138 54 q 55 138 60 129 q 50 157 50 146 q 63 188 50 174 q 93 201 76 201 q 124 188 110 201 q 247 99 178 129 q 394 68 315 68 q 513 89 461 68 q 596 149 565 110 q 626 239 626 188 q 592 342 626 303 q 500 408 557 382 q 374 454 443 433 q 265 492 317 471 q 174 545 214 514 q 111 622 133 576 q 89 733 89 668 q 128 864 89 807 q 238 953 167 921 q 404 986 310 986 q 562 958 486 986 q 682 876 638 931 q 703 836 703 854 q 689 808 703 822 q 658 794 675 794 q 635 804 644 794 q 575 856 611 833 q 495 892 539 879 q 404 904 451 904 q 287 884 339 904 q 205 826 235 864 q 175 736 175 789 q 208 640 175 678 q 296 578 242 603 q 411 533 350 554 q 526 495 471 517 q 623 442 581 474 q 690 361 665 410 q 714 239 714 313 q 674 111 714 168 q 563 21 633 54 q 399 -14 493 -12 m 378 1114 l 500 1211 q 521 1225 511 1221 q 538 1229 531 1229 q 555 1223 549 1229 q 561 1208 561 1217 q 558 1197 561 1203 q 550 1185 556 1192 l 443 1071 q 424 1053 435 1058 q 397 1047 413 1047 l 382 1047 q 356 1053 367 1047 q 335 1071 344 1058 l 229 1183 q 220 1196 222 1190 q 218 1207 218 1201 q 224 1222 218 1215 q 240 1228 231 1228 q 278 1211 256 1228 l 403 1118 l 378 1114 m 390 1315 q 347 1330 361 1315 q 332 1371 332 1344 l 332 1385 q 348 1426 332 1413 q 392 1440 364 1440 q 433 1426 418 1440 q 447 1385 447 1413 l 447 1371 q 433 1329 447 1343 q 390 1315 418 1315 z "},"Ş":{"ha":781,"x_min":50,"x_max":714,"o":"m 399 -14 q 215 19 293 -15 q 67 124 138 54 q 55 138 60 129 q 50 157 50 146 q 63 188 50 174 q 93 201 76 201 q 124 188 110 201 q 247 99 178 129 q 394 68 315 68 q 513 89 461 68 q 596 149 565 110 q 626 239 626 188 q 592 342 626 303 q 500 408 557 382 q 374 454 443 433 q 265 492 317 471 q 174 545 214 514 q 111 622 133 576 q 89 733 89 668 q 128 864 89 807 q 238 953 167 921 q 404 986 310 986 q 562 958 486 986 q 682 876 638 931 q 703 836 703 854 q 689 808 703 822 q 658 794 675 794 q 635 804 644 794 q 575 856 611 833 q 495 892 539 879 q 404 904 451 904 q 287 884 339 904 q 205 826 235 864 q 175 736 175 789 q 208 640 175 678 q 296 578 242 603 q 411 533 350 554 q 526 495 471 517 q 623 442 581 474 q 690 361 665 410 q 714 239 714 313 q 674 111 714 168 q 563 21 633 54 q 399 -14 493 -12 m 299 -199 q 276 -193 290 -199 q 251 -177 263 -187 q 240 -156 240 -167 q 250 -131 240 -140 l 371 21 l 424 21 l 335 -172 q 299 -199 324 -199 z "},"Ŝ":{"ha":781,"x_min":50,"x_max":714,"o":"m 399 -14 q 215 19 293 -15 q 67 124 138 54 q 55 138 60 129 q 50 157 50 146 q 63 188 50 174 q 93 201 76 201 q 124 188 110 201 q 247 99 178 129 q 394 68 315 68 q 513 89 461 68 q 596 149 565 110 q 626 239 626 188 q 592 342 626 303 q 500 408 557 382 q 374 454 443 433 q 265 492 317 471 q 174 545 214 514 q 111 622 133 576 q 89 733 89 668 q 128 864 89 807 q 238 953 167 921 q 404 986 310 986 q 562 958 486 986 q 682 876 638 931 q 703 836 703 854 q 689 808 703 822 q 658 794 675 794 q 635 804 644 794 q 575 856 611 833 q 495 892 539 879 q 404 904 451 904 q 287 884 339 904 q 205 826 235 864 q 175 736 175 789 q 208 640 175 678 q 296 578 242 603 q 411 533 350 554 q 526 495 471 517 q 623 442 581 474 q 690 361 665 410 q 714 239 714 313 q 674 111 714 168 q 563 21 633 54 q 399 -14 493 -12 m 401 1171 l 279 1075 q 259 1063 268 1068 q 242 1057 250 1057 q 225 1064 232 1057 q 218 1078 218 1071 q 221 1090 218 1085 q 229 1101 224 1094 l 336 1215 q 356 1233 346 1226 q 382 1239 367 1239 l 397 1239 q 423 1233 413 1239 q 444 1215 433 1226 l 550 1103 q 559 1090 557 1096 q 561 1079 561 1085 q 555 1065 561 1072 q 539 1058 549 1058 q 522 1063 531 1058 q 501 1076 513 1068 l 376 1167 l 401 1171 z "},"Ș":{"ha":781,"x_min":50,"x_max":714,"o":"m 399 -14 q 215 19 293 -15 q 67 124 138 54 q 55 138 60 129 q 50 157 50 146 q 63 188 50 174 q 93 201 76 201 q 124 188 110 201 q 247 99 178 129 q 394 68 315 68 q 513 89 461 68 q 596 149 565 110 q 626 239 626 188 q 592 342 626 303 q 500 408 557 382 q 374 454 443 433 q 265 492 317 471 q 174 545 214 514 q 111 622 133 576 q 89 733 89 668 q 128 864 89 807 q 238 953 167 921 q 404 986 310 986 q 562 958 486 986 q 682 876 638 931 q 703 836 703 854 q 689 808 703 822 q 658 794 675 794 q 635 804 644 794 q 575 856 611 833 q 495 892 539 879 q 404 904 451 904 q 287 884 339 904 q 205 826 235 864 q 175 736 175 789 q 208 640 175 678 q 296 578 242 603 q 411 533 350 554 q 526 495 471 517 q 623 442 581 474 q 690 361 665 410 q 714 239 714 313 q 674 111 714 168 q 563 21 633 54 q 399 -14 493 -12 m 474 -149 q 458 -201 474 -176 q 419 -240 443 -225 q 367 -254 394 -254 q 329 -246 340 -254 q 318 -226 318 -237 q 324 -207 318 -214 q 339 -200 331 -200 q 355 -203 346 -200 q 379 -204 364 -207 q 399 -192 392 -203 q 406 -160 406 -181 q 392 -143 406 -143 q 378 -149 383 -143 q 361 -154 374 -154 q 335 -143 344 -156 q 325 -117 325 -131 q 344 -79 325 -93 q 397 -65 364 -65 q 451 -86 429 -65 q 474 -149 474 -107 z "},"Ṡ":{"ha":781,"x_min":50,"x_max":714,"o":"m 399 -14 q 215 19 293 -15 q 67 124 138 54 q 55 138 60 129 q 50 157 50 146 q 63 188 50 174 q 93 201 76 201 q 124 188 110 201 q 247 99 178 129 q 394 68 315 68 q 513 89 461 68 q 596 149 565 110 q 626 239 626 188 q 592 342 626 303 q 500 408 557 382 q 374 454 443 433 q 265 492 317 471 q 174 545 214 514 q 111 622 133 576 q 89 733 89 668 q 128 864 89 807 q 238 953 167 921 q 404 986 310 986 q 562 958 486 986 q 682 876 638 931 q 703 836 703 854 q 689 808 703 822 q 658 794 675 794 q 635 804 644 794 q 575 856 611 833 q 495 892 539 879 q 404 904 451 904 q 287 884 339 904 q 205 826 235 864 q 175 736 175 789 q 208 640 175 678 q 296 578 242 603 q 411 533 350 554 q 526 495 471 517 q 623 442 581 474 q 690 361 665 410 q 714 239 714 313 q 674 111 714 168 q 563 21 633 54 q 399 -14 493 -12 m 390 1069 q 347 1084 361 1069 q 332 1125 332 1099 l 332 1139 q 348 1181 332 1167 q 392 1194 364 1194 q 433 1181 418 1194 q 447 1139 447 1167 l 447 1125 q 433 1083 447 1097 q 390 1069 418 1069 z "},"Ṣ":{"ha":781,"x_min":50,"x_max":714,"o":"m 399 -14 q 215 19 293 -15 q 67 124 138 54 q 55 138 60 129 q 50 157 50 146 q 63 188 50 174 q 93 201 76 201 q 124 188 110 201 q 247 99 178 129 q 394 68 315 68 q 513 89 461 68 q 596 149 565 110 q 626 239 626 188 q 592 342 626 303 q 500 408 557 382 q 374 454 443 433 q 265 492 317 471 q 174 545 214 514 q 111 622 133 576 q 89 733 89 668 q 128 864 89 807 q 238 953 167 921 q 404 986 310 986 q 562 958 486 986 q 682 876 638 931 q 703 836 703 854 q 689 808 703 822 q 658 794 675 794 q 635 804 644 794 q 575 856 611 833 q 495 892 539 879 q 404 904 451 904 q 287 884 339 904 q 205 826 235 864 q 175 736 175 789 q 208 640 175 678 q 296 578 242 603 q 411 533 350 554 q 526 495 471 517 q 623 442 581 474 q 690 361 665 410 q 714 239 714 313 q 674 111 714 168 q 563 21 633 54 q 399 -14 493 -12 m 390 -193 q 347 -179 361 -193 q 332 -139 332 -165 l 332 -124 q 348 -83 332 -97 q 390 -69 364 -69 q 433 -83 418 -69 q 447 -124 447 -97 l 447 -139 q 433 -179 447 -165 q 390 -193 418 -193 z "},"Ṩ":{"ha":781,"x_min":50,"x_max":714,"o":"m 399 -14 q 215 19 293 -15 q 67 124 138 54 q 55 138 60 129 q 50 157 50 146 q 63 188 50 174 q 93 201 76 201 q 124 188 110 201 q 247 99 178 129 q 394 68 315 68 q 513 89 461 68 q 596 149 565 110 q 626 239 626 188 q 592 342 626 303 q 500 408 557 382 q 374 454 443 433 q 265 492 317 471 q 174 545 214 514 q 111 622 133 576 q 89 733 89 668 q 128 864 89 807 q 238 953 167 921 q 404 986 310 986 q 562 958 486 986 q 682 876 638 931 q 703 836 703 854 q 689 808 703 822 q 658 794 675 794 q 635 804 644 794 q 575 856 611 833 q 495 892 539 879 q 404 904 451 904 q 287 884 339 904 q 205 826 235 864 q 175 736 175 789 q 208 640 175 678 q 296 578 242 603 q 411 533 350 554 q 526 495 471 517 q 623 442 581 474 q 690 361 665 410 q 714 239 714 313 q 674 111 714 168 q 563 21 633 54 q 399 -14 493 -12 m 390 -193 q 347 -179 361 -193 q 332 -139 332 -165 l 332 -124 q 348 -83 332 -97 q 390 -69 364 -69 q 433 -83 418 -69 q 447 -124 447 -97 l 447 -139 q 433 -179 447 -165 q 390 -193 418 -193 m 390 1069 q 347 1084 361 1069 q 332 1125 332 1099 l 332 1139 q 348 1181 332 1167 q 392 1194 364 1194 q 433 1181 418 1194 q 447 1139 447 1167 l 447 1125 q 433 1083 447 1097 q 390 1069 418 1069 z "},"ẞ":{"ha":981,"x_min":131,"x_max":913,"o":"m 640 -14 q 547 -1 590 -14 q 466 39 503 13 q 399 104 429 65 q 392 117 397 107 q 386 140 386 128 q 399 171 386 157 q 429 185 411 185 q 445 181 436 185 q 461 169 454 178 q 541 97 494 125 q 635 69 588 69 q 730 90 688 69 q 798 147 772 110 q 824 232 824 183 q 796 324 821 288 q 733 385 771 360 q 651 432 694 410 q 565 487 607 458 q 497 560 524 515 q 471 671 471 604 q 492 763 471 722 q 553 834 514 804 q 646 881 592 864 q 767 903 700 899 l 788 861 q 723 901 760 885 q 644 925 686 917 q 550 933 601 933 q 398 910 461 933 q 295 843 335 886 q 238 744 256 800 q 219 625 219 688 l 217 46 q 206 15 217 26 q 174 4 194 4 q 142 15 153 4 q 131 46 131 26 l 133 613 q 155 758 133 688 q 226 885 176 828 q 354 975 275 942 q 546 1008 433 1008 q 696 989 625 1008 q 813 939 767 969 q 851 886 851 915 q 844 865 851 872 q 824 855 836 858 q 797 849 813 851 q 668 815 721 838 q 588 760 615 793 q 561 685 561 728 q 581 608 561 639 q 635 556 601 578 q 706 514 668 533 q 778 473 742 494 q 845 421 814 451 q 894 346 876 390 q 913 236 913 301 q 878 113 913 169 q 782 22 843 57 q 640 -14 721 -12 z "},"Ə":{"ha":1054,"x_min":67,"x_max":988,"o":"m 526 -14 q 356 22 438 -14 q 210 120 274 57 q 108 268 146 183 q 67 453 69 353 l 67 479 q 81 511 67 500 q 113 522 94 522 l 940 522 l 947 439 l 154 439 q 192 295 160 363 q 275 177 224 228 q 390 98 326 126 q 526 69 454 69 q 669 100 601 69 q 788 186 736 131 q 869 317 839 242 q 899 485 899 393 q 869 654 899 578 q 788 786 839 731 q 669 872 736 842 q 525 903 601 903 q 342 867 421 903 q 199 753 263 831 q 172 740 186 742 q 143 747 157 738 q 126 777 128 758 q 138 810 124 796 q 306 942 213 899 q 525 986 400 986 q 705 947 621 986 q 852 840 789 908 q 951 681 915 771 q 988 486 988 590 q 952 292 988 382 q 853 133 917 201 q 706 25 789 64 q 526 -14 622 -14 z "},"T":{"ha":839,"x_min":47,"x_max":792,"o":"m 419 0 q 388 13 400 0 q 376 42 376 25 l 376 926 l 463 926 l 463 42 q 450 13 463 25 q 419 0 438 0 m 89 893 q 60 904 72 893 q 47 933 47 915 q 60 961 47 950 q 89 972 72 972 l 750 972 q 779 961 767 972 q 792 932 792 950 q 779 903 792 914 q 750 893 767 893 l 89 893 z "},"Ŧ":{"ha":839,"x_min":47,"x_max":792,"o":"m 310 419 q 279 430 290 419 q 268 460 268 440 q 279 487 268 476 q 310 497 290 497 l 538 497 q 568 487 557 497 q 579 458 579 476 q 568 430 579 440 q 538 419 557 419 l 310 419 m 419 0 q 388 13 400 0 q 376 42 376 25 l 376 926 l 463 926 l 463 42 q 450 13 463 25 q 419 0 438 0 m 89 893 q 60 904 72 893 q 47 933 47 915 q 60 961 47 950 q 89 972 72 972 l 750 972 q 779 961 767 972 q 792 932 792 950 q 779 903 792 914 q 750 893 767 893 l 89 893 z "},"Ť":{"ha":839,"x_min":47,"x_max":792,"o":"m 419 0 q 388 13 400 0 q 376 42 376 25 l 376 926 l 463 926 l 463 42 q 450 13 463 25 q 419 0 438 0 m 89 893 q 60 904 72 893 q 47 933 47 915 q 60 961 47 950 q 89 972 72 972 l 750 972 q 779 961 767 972 q 792 932 792 950 q 779 903 792 914 q 750 893 767 893 l 89 893 m 407 1114 l 529 1211 q 550 1225 540 1221 q 567 1229 560 1229 q 584 1223 578 1229 q 590 1208 590 1217 q 588 1197 590 1203 q 579 1185 585 1192 l 472 1071 q 453 1053 464 1058 q 426 1047 442 1047 l 411 1047 q 385 1053 396 1047 q 364 1071 374 1058 l 258 1183 q 249 1196 251 1190 q 247 1207 247 1201 q 253 1222 247 1215 q 269 1228 260 1228 q 307 1211 285 1228 l 432 1118 l 407 1114 z "},"Ţ":{"ha":839,"x_min":47,"x_max":792,"o":"m 419 0 q 388 13 400 0 q 376 42 376 25 l 376 926 l 463 926 l 463 42 q 450 13 463 25 q 419 0 438 0 m 89 893 q 60 904 72 893 q 47 933 47 915 q 60 961 47 950 q 89 972 72 972 l 750 972 q 779 961 767 972 q 792 932 792 950 q 779 903 792 914 q 750 893 767 893 l 89 893 m 326 -199 q 304 -193 318 -199 q 279 -177 290 -187 q 268 -156 268 -167 q 278 -131 268 -140 l 399 21 l 451 21 l 363 -172 q 326 -199 351 -199 z "},"Ṱ":{"ha":839,"x_min":47,"x_max":792,"o":"m 419 0 q 388 13 400 0 q 376 42 376 25 l 376 926 l 463 926 l 463 42 q 450 13 463 25 q 419 0 438 0 m 89 893 q 60 904 72 893 q 47 933 47 915 q 60 961 47 950 q 89 972 72 972 l 750 972 q 779 961 767 972 q 792 932 792 950 q 779 903 792 914 q 750 893 767 893 l 89 893 m 432 -157 l 311 -258 q 294 -272 301 -267 q 275 -278 286 -278 q 258 -271 265 -278 q 251 -257 251 -264 q 253 -245 251 -250 q 263 -233 256 -240 l 364 -122 q 410 -100 379 -100 l 432 -100 q 458 -104 447 -100 q 476 -122 468 -108 l 576 -232 q 584 -244 582 -239 q 586 -256 586 -250 q 580 -269 586 -262 q 564 -276 574 -276 q 544 -271 553 -276 q 526 -258 536 -265 l 403 -158 l 432 -157 z "},"Ț":{"ha":839,"x_min":47,"x_max":792,"o":"m 419 0 q 388 13 400 0 q 376 42 376 25 l 376 926 l 463 926 l 463 42 q 450 13 463 25 q 419 0 438 0 m 89 893 q 60 904 72 893 q 47 933 47 915 q 60 961 47 950 q 89 972 72 972 l 750 972 q 779 961 767 972 q 792 932 792 950 q 779 903 792 914 q 750 893 767 893 l 89 893 m 501 -149 q 486 -201 501 -176 q 447 -240 471 -225 q 394 -254 422 -254 q 357 -246 368 -254 q 346 -226 346 -237 q 352 -207 346 -214 q 367 -200 358 -200 q 383 -203 374 -200 q 407 -204 392 -207 q 426 -192 419 -203 q 433 -160 433 -181 q 419 -143 433 -143 q 406 -149 411 -143 q 389 -154 401 -154 q 363 -143 372 -156 q 353 -117 353 -131 q 372 -79 353 -93 q 425 -65 392 -65 q 479 -86 457 -65 q 501 -149 501 -107 z "},"Ṭ":{"ha":839,"x_min":47,"x_max":792,"o":"m 419 0 q 388 13 400 0 q 376 42 376 25 l 376 926 l 463 926 l 463 42 q 450 13 463 25 q 419 0 438 0 m 89 893 q 60 904 72 893 q 47 933 47 915 q 60 961 47 950 q 89 972 72 972 l 750 972 q 779 961 767 972 q 792 932 792 950 q 779 903 792 914 q 750 893 767 893 l 89 893 m 419 -193 q 376 -179 390 -193 q 361 -139 361 -165 l 361 -124 q 377 -83 361 -97 q 419 -69 393 -69 q 462 -83 447 -69 q 476 -124 476 -97 l 476 -139 q 462 -179 476 -165 q 419 -193 447 -193 z "},"Ṯ":{"ha":839,"x_min":47,"x_max":792,"o":"m 419 0 q 388 13 400 0 q 376 42 376 25 l 376 926 l 463 926 l 463 42 q 450 13 463 25 q 419 0 438 0 m 89 893 q 60 904 72 893 q 47 933 47 915 q 60 961 47 950 q 89 972 72 972 l 750 972 q 779 961 767 972 q 792 932 792 950 q 779 903 792 914 q 750 893 767 893 l 89 893 m 282 -175 q 243 -140 243 -175 q 282 -106 243 -106 l 574 -106 q 613 -140 613 -106 q 574 -175 613 -175 l 282 -175 z "},"U":{"ha":990,"x_min":131,"x_max":860,"o":"m 818 972 q 849 960 838 972 q 860 931 860 949 l 860 356 q 811 169 860 253 q 681 37 763 86 q 496 -12 599 -12 q 310 37 393 -12 q 179 169 228 86 q 131 356 131 253 l 131 931 q 142 960 131 949 q 175 972 154 972 q 204 960 192 972 q 217 931 217 949 l 217 356 q 255 211 217 275 q 357 109 293 147 q 496 71 421 71 q 638 109 574 71 q 740 211 701 147 q 778 356 778 275 l 778 931 q 789 960 778 949 q 818 972 800 972 z "},"Ú":{"ha":990,"x_min":131,"x_max":860,"o":"m 818 972 q 849 960 838 972 q 860 931 860 949 l 860 356 q 811 169 860 253 q 681 37 763 86 q 496 -12 599 -12 q 310 37 393 -12 q 179 169 228 86 q 131 356 131 253 l 131 931 q 142 960 131 949 q 175 972 154 972 q 204 960 192 972 q 217 931 217 949 l 217 356 q 255 211 217 275 q 357 109 293 147 q 496 71 421 71 q 638 109 574 71 q 740 211 701 147 q 778 356 778 275 l 778 931 q 789 960 778 949 q 818 972 800 972 m 500 1036 q 480 1044 486 1036 q 474 1061 474 1051 q 477 1074 474 1068 q 488 1086 481 1081 l 611 1182 q 629 1192 619 1188 q 651 1197 639 1197 q 681 1185 669 1197 q 693 1156 693 1174 q 686 1131 693 1142 q 667 1113 679 1119 l 531 1044 q 516 1039 524 1042 q 500 1036 508 1036 z "},"Ŭ":{"ha":990,"x_min":131,"x_max":860,"o":"m 818 972 q 849 960 838 972 q 860 931 860 949 l 860 356 q 811 169 860 253 q 681 37 763 86 q 496 -12 599 -12 q 310 37 393 -12 q 179 169 228 86 q 131 356 131 253 l 131 931 q 142 960 131 949 q 175 972 154 972 q 204 960 192 972 q 217 931 217 949 l 217 356 q 255 211 217 275 q 357 109 293 147 q 496 71 421 71 q 638 109 574 71 q 740 211 701 147 q 778 356 778 275 l 778 931 q 789 960 778 949 q 818 972 800 972 m 496 1075 q 375 1112 425 1075 q 306 1215 325 1149 q 307 1246 300 1235 q 332 1257 314 1257 q 356 1249 349 1257 q 374 1226 364 1242 q 422 1167 392 1188 q 496 1146 451 1146 q 618 1226 582 1146 q 635 1249 626 1242 q 660 1256 644 1256 q 685 1246 678 1256 q 686 1215 692 1236 q 618 1112 668 1149 q 496 1075 568 1075 z "},"Ǔ":{"ha":990,"x_min":131,"x_max":860,"o":"m 818 972 q 849 960 838 972 q 860 931 860 949 l 860 356 q 811 169 860 253 q 681 37 763 86 q 496 -12 599 -12 q 310 37 393 -12 q 179 169 228 86 q 131 356 131 253 l 131 931 q 142 960 131 949 q 175 972 154 972 q 204 960 192 972 q 217 931 217 949 l 217 356 q 255 211 217 275 q 357 109 293 147 q 496 71 421 71 q 638 109 574 71 q 740 211 701 147 q 778 356 778 275 l 778 931 q 789 960 778 949 q 818 972 800 972 m 483 1114 l 606 1211 q 626 1225 617 1221 q 643 1229 636 1229 q 660 1223 654 1229 q 667 1208 667 1217 q 664 1197 667 1203 q 656 1185 661 1192 l 549 1071 q 529 1053 540 1058 q 503 1047 518 1047 l 488 1047 q 461 1053 472 1047 q 440 1071 450 1058 l 335 1183 q 326 1196 328 1190 q 324 1207 324 1201 q 330 1222 324 1215 q 346 1228 336 1228 q 383 1211 361 1228 l 508 1118 l 483 1114 z "},"Û":{"ha":990,"x_min":131,"x_max":860,"o":"m 818 972 q 849 960 838 972 q 860 931 860 949 l 860 356 q 811 169 860 253 q 681 37 763 86 q 496 -12 599 -12 q 310 37 393 -12 q 179 169 228 86 q 131 356 131 253 l 131 931 q 142 960 131 949 q 175 972 154 972 q 204 960 192 972 q 217 931 217 949 l 217 356 q 255 211 217 275 q 357 109 293 147 q 496 71 421 71 q 638 109 574 71 q 740 211 701 147 q 778 356 778 275 l 778 931 q 789 960 778 949 q 818 972 800 972 m 506 1171 l 383 1075 q 363 1063 372 1068 q 346 1057 354 1057 q 329 1064 336 1057 q 322 1078 322 1071 q 325 1090 322 1085 q 333 1101 328 1094 l 440 1215 q 460 1233 450 1226 q 486 1239 471 1239 l 501 1239 q 527 1233 517 1239 q 549 1215 538 1226 l 654 1103 q 663 1090 661 1096 q 665 1079 665 1085 q 659 1065 665 1072 q 643 1058 653 1058 q 626 1063 635 1058 q 606 1076 617 1068 l 481 1167 l 506 1171 z "},"Ȕ":{"ha":990,"x_min":131,"x_max":860,"o":"m 818 972 q 849 960 838 972 q 860 931 860 949 l 860 356 q 811 169 860 253 q 681 37 763 86 q 496 -12 599 -12 q 310 37 393 -12 q 179 169 228 86 q 131 356 131 253 l 131 931 q 142 960 131 949 q 175 972 154 972 q 204 960 192 972 q 217 931 217 949 l 217 356 q 255 211 217 275 q 357 109 293 147 q 496 71 421 71 q 638 109 574 71 q 740 211 701 147 q 778 356 778 275 l 778 931 q 789 960 778 949 q 818 972 800 972 m 428 1049 q 413 1052 419 1049 q 397 1058 406 1056 l 263 1125 q 235 1169 235 1140 q 247 1199 235 1186 q 276 1211 258 1211 q 299 1206 289 1211 q 317 1194 310 1201 l 440 1099 q 451 1088 447 1093 q 454 1074 454 1082 q 448 1056 454 1064 q 428 1049 442 1049 m 661 1049 q 645 1051 653 1049 q 631 1057 638 1054 l 494 1125 q 468 1168 468 1140 q 480 1198 468 1186 q 510 1210 492 1210 q 532 1205 522 1210 q 550 1194 542 1200 l 674 1099 q 684 1087 681 1093 q 688 1074 688 1081 q 681 1056 688 1064 q 661 1049 675 1049 z "},"Ü":{"ha":990,"x_min":131,"x_max":860,"o":"m 818 972 q 849 960 838 972 q 860 931 860 949 l 860 356 q 811 169 860 253 q 681 37 763 86 q 496 -12 599 -12 q 310 37 393 -12 q 179 169 228 86 q 131 356 131 253 l 131 931 q 142 960 131 949 q 175 972 154 972 q 204 960 192 972 q 217 931 217 949 l 217 356 q 255 211 217 275 q 357 109 293 147 q 496 71 421 71 q 638 109 574 71 q 740 211 701 147 q 778 356 778 275 l 778 931 q 789 960 778 949 q 818 972 800 972 m 615 1076 q 574 1091 589 1076 q 558 1132 558 1106 l 558 1146 q 574 1187 558 1172 q 617 1201 590 1201 q 658 1187 643 1201 q 674 1146 674 1172 l 674 1132 q 658 1090 674 1104 q 615 1076 643 1076 m 376 1076 q 335 1091 350 1076 q 319 1132 319 1106 l 319 1146 q 335 1187 319 1172 q 378 1201 351 1201 q 419 1187 404 1201 q 435 1146 435 1172 l 435 1132 q 419 1090 435 1104 q 376 1076 404 1076 z "},"Ụ":{"ha":990,"x_min":131,"x_max":860,"o":"m 818 972 q 849 960 838 972 q 860 931 860 949 l 860 356 q 811 169 860 253 q 681 37 763 86 q 496 -12 599 -12 q 310 37 393 -12 q 179 169 228 86 q 131 356 131 253 l 131 931 q 142 960 131 949 q 175 972 154 972 q 204 960 192 972 q 217 931 217 949 l 217 356 q 255 211 217 275 q 357 109 293 147 q 496 71 421 71 q 638 109 574 71 q 740 211 701 147 q 778 356 778 275 l 778 931 q 789 960 778 949 q 818 972 800 972 m 496 -193 q 452 -179 467 -193 q 438 -139 438 -165 l 438 -124 q 453 -83 438 -97 q 496 -69 469 -69 q 538 -83 524 -69 q 553 -124 553 -97 l 553 -139 q 538 -179 553 -165 q 496 -193 524 -193 z "},"Ù":{"ha":990,"x_min":131,"x_max":860,"o":"m 818 972 q 849 960 838 972 q 860 931 860 949 l 860 356 q 811 169 860 253 q 681 37 763 86 q 496 -12 599 -12 q 310 37 393 -12 q 179 169 228 86 q 131 356 131 253 l 131 931 q 142 960 131 949 q 175 972 154 972 q 204 960 192 972 q 217 931 217 949 l 217 356 q 255 211 217 275 q 357 109 293 147 q 496 71 421 71 q 638 109 574 71 q 740 211 701 147 q 778 356 778 275 l 778 931 q 789 960 778 949 q 818 972 800 972 m 496 1038 q 481 1040 488 1038 q 465 1046 474 1043 l 331 1114 q 303 1157 303 1129 q 315 1187 303 1175 q 344 1199 326 1199 q 367 1194 357 1199 q 385 1183 378 1189 l 508 1088 q 519 1076 515 1082 q 522 1063 522 1069 q 516 1045 522 1053 q 496 1038 510 1038 z "},"Ủ":{"ha":990,"x_min":131,"x_max":860,"o":"m 818 972 q 849 960 838 972 q 860 931 860 949 l 860 356 q 811 169 860 253 q 681 37 763 86 q 496 -12 599 -12 q 310 37 393 -12 q 179 169 228 86 q 131 356 131 253 l 131 931 q 142 960 131 949 q 175 972 154 972 q 204 960 192 972 q 217 931 217 949 l 217 356 q 255 211 217 275 q 357 109 293 147 q 496 71 421 71 q 638 109 574 71 q 740 211 701 147 q 778 356 778 275 l 778 931 q 789 960 778 949 q 818 972 800 972 m 389 1254 q 435 1285 408 1272 q 492 1297 461 1297 q 560 1281 536 1297 q 595 1240 585 1264 q 606 1194 606 1215 q 593 1152 606 1171 q 558 1111 581 1133 q 547 1094 551 1103 q 542 1074 542 1086 q 531 1057 540 1063 q 510 1051 522 1051 q 491 1058 499 1051 q 483 1075 483 1065 q 487 1102 483 1088 q 503 1131 490 1117 q 532 1163 521 1149 q 543 1193 543 1176 q 528 1223 543 1211 q 493 1235 514 1235 q 458 1227 474 1235 q 429 1210 442 1219 q 407 1199 419 1200 q 383 1210 394 1199 q 376 1231 375 1219 q 389 1254 378 1243 z "},"Ư":{"ha":990,"x_min":131,"x_max":1017,"o":"m 818 972 q 849 960 838 972 q 860 931 860 949 l 860 356 q 811 169 860 253 q 681 37 763 86 q 496 -12 599 -12 q 310 37 393 -12 q 179 169 228 86 q 131 356 131 253 l 131 931 q 142 960 131 949 q 175 972 154 972 q 204 960 192 972 q 217 931 217 949 l 217 356 q 255 211 217 275 q 357 109 293 147 q 496 71 421 71 q 638 109 574 71 q 740 211 701 147 q 778 356 778 275 l 778 931 q 789 960 778 949 q 818 972 800 972 m 814 899 l 814 972 q 912 997 879 972 q 944 1079 944 1021 q 953 1114 944 1099 q 981 1129 963 1129 q 1010 1113 1003 1129 q 1017 1079 1017 1096 q 992 984 1017 1025 q 924 921 968 943 q 814 899 879 899 z "},"Ứ":{"ha":990,"x_min":131,"x_max":1017,"o":"m 818 972 q 849 960 838 972 q 860 931 860 949 l 860 356 q 811 169 860 253 q 681 37 763 86 q 496 -12 599 -12 q 310 37 393 -12 q 179 169 228 86 q 131 356 131 253 l 131 931 q 142 960 131 949 q 175 972 154 972 q 204 960 192 972 q 217 931 217 949 l 217 356 q 255 211 217 275 q 357 109 293 147 q 496 71 421 71 q 638 109 574 71 q 740 211 701 147 q 778 356 778 275 l 778 931 q 789 960 778 949 q 818 972 800 972 m 814 899 l 814 972 q 912 997 879 972 q 944 1079 944 1021 q 953 1114 944 1099 q 981 1129 963 1129 q 1010 1113 1003 1129 q 1017 1079 1017 1096 q 992 984 1017 1025 q 924 921 968 943 q 814 899 879 899 m 503 1036 q 483 1044 489 1036 q 476 1061 476 1051 q 480 1074 476 1068 q 490 1086 483 1081 l 614 1182 q 632 1192 622 1188 q 654 1197 642 1197 q 684 1185 672 1197 q 696 1156 696 1174 q 689 1131 696 1142 q 669 1113 682 1119 l 533 1044 q 519 1039 526 1042 q 503 1036 511 1036 z "},"Ự":{"ha":990,"x_min":131,"x_max":1017,"o":"m 818 972 q 849 960 838 972 q 860 931 860 949 l 860 356 q 811 169 860 253 q 681 37 763 86 q 496 -12 599 -12 q 310 37 393 -12 q 179 169 228 86 q 131 356 131 253 l 131 931 q 142 960 131 949 q 175 972 154 972 q 204 960 192 972 q 217 931 217 949 l 217 356 q 255 211 217 275 q 357 109 293 147 q 496 71 421 71 q 638 109 574 71 q 740 211 701 147 q 778 356 778 275 l 778 931 q 789 960 778 949 q 818 972 800 972 m 814 899 l 814 972 q 912 997 879 972 q 944 1079 944 1021 q 953 1114 944 1099 q 981 1129 963 1129 q 1010 1113 1003 1129 q 1017 1079 1017 1096 q 992 984 1017 1025 q 924 921 968 943 q 814 899 879 899 m 499 -193 q 455 -179 469 -193 q 440 -139 440 -165 l 440 -124 q 456 -83 440 -97 q 499 -69 472 -69 q 541 -83 526 -69 q 556 -124 556 -97 l 556 -139 q 541 -179 556 -165 q 499 -193 526 -193 z "},"Ừ":{"ha":990,"x_min":131,"x_max":1017,"o":"m 818 972 q 849 960 838 972 q 860 931 860 949 l 860 356 q 811 169 860 253 q 681 37 763 86 q 496 -12 599 -12 q 310 37 393 -12 q 179 169 228 86 q 131 356 131 253 l 131 931 q 142 960 131 949 q 175 972 154 972 q 204 960 192 972 q 217 931 217 949 l 217 356 q 255 211 217 275 q 357 109 293 147 q 496 71 421 71 q 638 109 574 71 q 740 211 701 147 q 778 356 778 275 l 778 931 q 789 960 778 949 q 818 972 800 972 m 814 899 l 814 972 q 912 997 879 972 q 944 1079 944 1021 q 953 1114 944 1099 q 981 1129 963 1129 q 1010 1113 1003 1129 q 1017 1079 1017 1096 q 992 984 1017 1025 q 924 921 968 943 q 814 899 879 899 m 499 1038 q 483 1040 490 1038 q 468 1046 476 1043 l 333 1114 q 306 1157 306 1129 q 317 1187 306 1175 q 347 1199 329 1199 q 370 1194 360 1199 q 388 1183 381 1189 l 511 1088 q 522 1076 518 1082 q 525 1063 525 1069 q 519 1045 525 1053 q 499 1038 513 1038 z "},"Ử":{"ha":990,"x_min":131,"x_max":1017,"o":"m 818 972 q 849 960 838 972 q 860 931 860 949 l 860 356 q 811 169 860 253 q 681 37 763 86 q 496 -12 599 -12 q 310 37 393 -12 q 179 169 228 86 q 131 356 131 253 l 131 931 q 142 960 131 949 q 175 972 154 972 q 204 960 192 972 q 217 931 217 949 l 217 356 q 255 211 217 275 q 357 109 293 147 q 496 71 421 71 q 638 109 574 71 q 740 211 701 147 q 778 356 778 275 l 778 931 q 789 960 778 949 q 818 972 800 972 m 814 899 l 814 972 q 912 997 879 972 q 944 1079 944 1021 q 953 1114 944 1099 q 981 1129 963 1129 q 1010 1113 1003 1129 q 1017 1079 1017 1096 q 992 984 1017 1025 q 924 921 968 943 q 814 899 879 899 m 392 1254 q 438 1285 411 1272 q 494 1297 464 1297 q 563 1281 539 1297 q 598 1240 588 1264 q 608 1194 608 1215 q 596 1152 608 1171 q 561 1111 583 1133 q 549 1094 554 1103 q 544 1074 544 1086 q 534 1057 543 1063 q 513 1051 525 1051 q 494 1058 501 1051 q 486 1075 486 1065 q 490 1102 486 1088 q 506 1131 493 1117 q 535 1163 524 1149 q 546 1193 546 1176 q 531 1223 546 1211 q 496 1235 517 1235 q 460 1227 476 1235 q 432 1210 444 1219 q 410 1199 422 1200 q 386 1210 397 1199 q 379 1231 378 1219 q 392 1254 381 1243 z "},"Ữ":{"ha":990,"x_min":131,"x_max":1017,"o":"m 818 972 q 849 960 838 972 q 860 931 860 949 l 860 356 q 811 169 860 253 q 681 37 763 86 q 496 -12 599 -12 q 310 37 393 -12 q 179 169 228 86 q 131 356 131 253 l 131 931 q 142 960 131 949 q 175 972 154 972 q 204 960 192 972 q 217 931 217 949 l 217 356 q 255 211 217 275 q 357 109 293 147 q 496 71 421 71 q 638 109 574 71 q 740 211 701 147 q 778 356 778 275 l 778 931 q 789 960 778 949 q 818 972 800 972 m 814 899 l 814 972 q 912 997 879 972 q 944 1079 944 1021 q 953 1114 944 1099 q 981 1129 963 1129 q 1010 1113 1003 1129 q 1017 1079 1017 1096 q 992 984 1017 1025 q 924 921 968 943 q 814 899 879 899 m 319 1071 q 292 1087 301 1071 q 288 1132 283 1103 q 331 1201 297 1176 q 408 1225 365 1225 q 478 1205 443 1225 q 545 1165 513 1185 q 601 1144 578 1144 q 633 1160 621 1144 q 647 1199 644 1175 q 655 1225 646 1215 q 678 1235 664 1235 q 707 1218 699 1235 q 711 1175 715 1201 q 691 1122 707 1144 q 652 1088 675 1100 q 599 1076 629 1076 q 530 1097 565 1076 q 461 1136 494 1117 q 404 1156 428 1156 q 371 1142 385 1156 q 350 1101 357 1129 q 341 1079 351 1088 q 319 1071 331 1071 z "},"Ű":{"ha":990,"x_min":131,"x_max":860,"o":"m 818 972 q 849 960 838 972 q 860 931 860 949 l 860 356 q 811 169 860 253 q 681 37 763 86 q 496 -12 599 -12 q 310 37 393 -12 q 179 169 228 86 q 131 356 131 253 l 131 931 q 142 960 131 949 q 175 972 154 972 q 204 960 192 972 q 217 931 217 949 l 217 356 q 255 211 217 275 q 357 109 293 147 q 496 71 421 71 q 638 109 574 71 q 740 211 701 147 q 778 356 778 275 l 778 931 q 789 960 778 949 q 818 972 800 972 m 357 1035 q 336 1057 336 1035 q 346 1082 336 1067 l 424 1201 q 441 1220 431 1211 q 468 1229 451 1229 q 501 1217 488 1229 q 514 1186 514 1206 q 510 1169 514 1176 q 501 1156 507 1163 l 406 1060 q 384 1042 396 1050 q 357 1035 372 1035 m 575 1035 q 553 1056 553 1035 q 563 1082 553 1067 l 642 1201 q 659 1219 649 1211 q 686 1228 669 1228 q 717 1218 703 1228 q 732 1186 732 1208 q 728 1169 732 1176 q 718 1156 725 1163 l 624 1060 q 601 1042 613 1050 q 575 1035 590 1035 z "},"Ȗ":{"ha":990,"x_min":131,"x_max":860,"o":"m 818 972 q 849 960 838 972 q 860 931 860 949 l 860 356 q 811 169 860 253 q 681 37 763 86 q 496 -12 599 -12 q 310 37 393 -12 q 179 169 228 86 q 131 356 131 253 l 131 931 q 142 960 131 949 q 175 972 154 972 q 204 960 192 972 q 217 931 217 949 l 217 356 q 255 211 217 275 q 357 109 293 147 q 496 71 421 71 q 638 109 574 71 q 740 211 701 147 q 778 356 778 275 l 778 931 q 789 960 778 949 q 818 972 800 972 m 494 1201 q 582 1183 543 1201 q 646 1134 621 1165 q 675 1065 671 1103 q 669 1038 679 1049 q 644 1028 660 1028 q 619 1037 628 1028 q 603 1061 610 1046 q 563 1114 593 1096 q 494 1132 533 1132 q 424 1114 454 1132 q 386 1061 394 1096 q 371 1037 381 1046 q 343 1028 361 1028 q 319 1038 328 1028 q 313 1064 310 1049 q 342 1134 317 1103 q 406 1183 367 1165 q 494 1201 446 1201 z "},"Ū":{"ha":990,"x_min":131,"x_max":860,"o":"m 818 972 q 849 960 838 972 q 860 931 860 949 l 860 356 q 811 169 860 253 q 681 37 763 86 q 496 -12 599 -12 q 310 37 393 -12 q 179 169 228 86 q 131 356 131 253 l 131 931 q 142 960 131 949 q 175 972 154 972 q 204 960 192 972 q 217 931 217 949 l 217 356 q 255 211 217 275 q 357 109 293 147 q 496 71 421 71 q 638 109 574 71 q 740 211 701 147 q 778 356 778 275 l 778 931 q 789 960 778 949 q 818 972 800 972 m 324 1094 q 283 1129 283 1094 q 324 1165 283 1165 l 678 1165 q 718 1129 718 1165 q 678 1094 718 1094 l 324 1094 z "},"Ṻ":{"ha":990,"x_min":131,"x_max":860,"o":"m 818 972 q 849 960 838 972 q 860 931 860 949 l 860 356 q 811 169 860 253 q 681 37 763 86 q 496 -12 599 -12 q 310 37 393 -12 q 179 169 228 86 q 131 356 131 253 l 131 931 q 142 960 131 949 q 175 972 154 972 q 204 960 192 972 q 217 931 217 949 l 217 356 q 255 211 217 275 q 357 109 293 147 q 496 71 421 71 q 638 109 574 71 q 740 211 701 147 q 778 356 778 275 l 778 931 q 789 960 778 949 q 818 972 800 972 m 324 1094 q 283 1129 283 1094 q 324 1165 283 1165 l 678 1165 q 718 1129 718 1165 q 678 1094 718 1094 l 324 1094 m 615 1290 q 574 1305 589 1290 q 558 1346 558 1319 l 558 1360 q 574 1401 558 1386 q 617 1415 590 1415 q 658 1401 643 1415 q 674 1360 674 1386 l 674 1346 q 658 1304 674 1318 q 615 1290 643 1290 m 376 1290 q 335 1305 350 1290 q 319 1346 319 1319 l 319 1360 q 335 1401 319 1386 q 378 1415 351 1415 q 419 1401 404 1415 q 435 1360 435 1386 l 435 1346 q 419 1304 435 1318 q 376 1290 404 1290 z "},"Ų":{"ha":990,"x_min":131,"x_max":860,"o":"m 600 -264 q 508 -229 549 -264 q 467 -132 467 -194 q 481 -62 467 -93 q 519 -9 496 -32 q 569 29 542 14 q 624 53 597 44 l 549 -8 q 523 -11 536 -10 q 496 -12 510 -12 q 310 37 393 -12 q 179 169 228 86 q 131 356 131 253 l 131 931 q 142 960 131 949 q 175 972 154 972 q 205 960 193 972 q 217 931 217 949 l 217 356 q 255 211 217 275 q 357 109 293 147 q 496 71 421 71 q 639 109 575 71 q 740 211 703 147 q 778 356 778 275 l 778 931 q 790 960 778 949 q 818 972 801 972 q 849 960 838 972 q 860 931 860 949 l 860 356 q 839 228 860 290 q 778 117 818 167 q 679 38 738 67 q 619 2 651 22 q 563 -46 586 -18 q 540 -115 540 -74 q 562 -173 540 -153 q 608 -193 583 -193 q 649 -179 639 -193 q 666 -161 657 -167 q 685 -156 675 -156 q 707 -165 699 -156 q 715 -187 715 -174 q 700 -225 715 -207 q 658 -253 685 -243 q 600 -264 632 -264 z "},"Ů":{"ha":990,"x_min":131,"x_max":860,"o":"m 818 972 q 849 960 838 972 q 860 931 860 949 l 860 356 q 811 169 860 253 q 681 37 763 86 q 496 -12 599 -12 q 310 37 393 -12 q 179 169 228 86 q 131 356 131 253 l 131 931 q 142 960 131 949 q 175 972 154 972 q 204 960 192 972 q 217 931 217 949 l 217 356 q 255 211 217 275 q 357 109 293 147 q 496 71 421 71 q 638 109 574 71 q 740 211 701 147 q 778 356 778 275 l 778 931 q 789 960 778 949 q 818 972 800 972 m 496 1032 q 426 1050 458 1032 q 374 1099 393 1068 q 354 1167 354 1131 q 374 1236 354 1206 q 426 1285 393 1267 q 496 1304 458 1304 q 566 1285 533 1304 q 618 1236 599 1267 q 638 1167 638 1206 q 618 1099 638 1131 q 566 1050 599 1068 q 496 1032 533 1032 m 496 1089 q 553 1112 529 1089 q 576 1167 576 1135 q 553 1224 576 1201 q 496 1246 529 1246 q 440 1224 464 1246 q 417 1167 417 1201 q 440 1112 417 1135 q 496 1089 464 1089 z "},"Ũ":{"ha":990,"x_min":131,"x_max":860,"o":"m 818 972 q 849 960 838 972 q 860 931 860 949 l 860 356 q 811 169 860 253 q 681 37 763 86 q 496 -12 599 -12 q 310 37 393 -12 q 179 169 228 86 q 131 356 131 253 l 131 931 q 142 960 131 949 q 175 972 154 972 q 204 960 192 972 q 217 931 217 949 l 217 356 q 255 211 217 275 q 357 109 293 147 q 496 71 421 71 q 638 109 574 71 q 740 211 701 147 q 778 356 778 275 l 778 931 q 789 960 778 949 q 818 972 800 972 m 317 1071 q 290 1087 299 1071 q 285 1132 281 1103 q 328 1201 294 1176 q 406 1225 363 1225 q 475 1205 440 1225 q 542 1165 510 1185 q 599 1144 575 1144 q 630 1160 618 1144 q 644 1199 642 1175 q 652 1225 643 1215 q 675 1235 661 1235 q 704 1218 696 1235 q 708 1175 713 1201 q 688 1122 704 1144 q 649 1088 672 1100 q 596 1076 626 1076 q 527 1097 563 1076 q 458 1136 492 1117 q 401 1156 425 1156 q 368 1142 382 1156 q 347 1101 354 1129 q 338 1079 349 1088 q 317 1071 328 1071 z "},"Ṹ":{"ha":990,"x_min":131,"x_max":860,"o":"m 818 972 q 849 960 838 972 q 860 931 860 949 l 860 356 q 811 169 860 253 q 681 37 763 86 q 496 -12 599 -12 q 310 37 393 -12 q 179 169 228 86 q 131 356 131 253 l 131 931 q 142 960 131 949 q 175 972 154 972 q 204 960 192 972 q 217 931 217 949 l 217 356 q 255 211 217 275 q 357 109 293 147 q 496 71 421 71 q 638 109 574 71 q 740 211 701 147 q 778 356 778 275 l 778 931 q 789 960 778 949 q 818 972 800 972 m 317 1071 q 290 1087 299 1071 q 285 1132 281 1103 q 328 1201 294 1176 q 406 1225 363 1225 q 475 1205 440 1225 q 542 1165 510 1185 q 599 1144 575 1144 q 630 1160 618 1144 q 644 1199 642 1175 q 652 1225 643 1215 q 675 1235 661 1235 q 704 1218 696 1235 q 708 1175 713 1201 q 688 1122 704 1144 q 649 1088 672 1100 q 596 1076 626 1076 q 527 1097 563 1076 q 458 1136 492 1117 q 401 1156 425 1156 q 368 1142 382 1156 q 347 1101 354 1129 q 338 1079 349 1088 q 317 1071 328 1071 m 500 1303 q 480 1310 486 1303 q 474 1328 474 1318 q 477 1341 474 1335 q 488 1353 481 1347 l 611 1449 q 629 1459 619 1454 q 651 1464 639 1464 q 681 1452 669 1464 q 693 1422 693 1440 q 686 1397 693 1408 q 667 1379 679 1386 l 531 1311 q 516 1306 524 1308 q 500 1303 508 1303 z "},"V":{"ha":924,"x_min":49,"x_max":876,"o":"m 833 974 q 865 963 853 974 q 876 935 876 951 q 872 914 876 925 l 501 28 q 483 7 494 14 q 461 0 472 0 q 438 7 449 0 q 422 26 426 14 l 53 911 q 50 921 51 915 q 49 933 49 926 q 62 963 49 951 q 89 974 75 974 q 131 943 118 974 l 478 113 l 453 113 l 794 946 q 833 974 808 974 z "},"W":{"ha":1342,"x_min":42,"x_max":1300,"o":"m 1256 975 q 1287 965 1274 975 q 1300 933 1300 954 q 1297 915 1300 926 l 990 26 q 975 7 986 14 q 953 0 964 0 q 928 6 939 0 q 911 26 917 13 l 665 635 l 676 632 l 431 26 q 413 6 425 13 q 389 0 401 0 q 367 7 378 0 q 353 26 357 14 l 46 915 q 42 932 42 926 q 57 964 42 953 q 88 975 72 975 q 113 968 101 975 q 128 949 124 961 l 407 135 l 392 133 l 633 736 q 648 756 638 749 q 672 763 658 764 q 697 756 686 764 q 713 736 707 749 l 951 136 l 936 131 l 1214 949 q 1229 968 1218 961 q 1256 975 1240 975 z "},"Ẃ":{"ha":1342,"x_min":42,"x_max":1300,"o":"m 1256 975 q 1287 965 1274 975 q 1300 933 1300 954 q 1297 915 1300 926 l 990 26 q 975 7 986 14 q 953 0 964 0 q 928 6 939 0 q 911 26 917 13 l 665 635 l 676 632 l 431 26 q 413 6 425 13 q 389 0 401 0 q 367 7 378 0 q 353 26 357 14 l 46 915 q 42 932 42 926 q 57 964 42 953 q 88 975 72 975 q 113 968 101 975 q 128 949 124 961 l 407 135 l 392 133 l 633 736 q 648 756 638 749 q 672 763 658 764 q 697 756 686 764 q 713 736 707 749 l 951 136 l 936 131 l 1214 949 q 1229 968 1218 961 q 1256 975 1240 975 m 675 1036 q 655 1044 661 1036 q 649 1061 649 1051 q 652 1074 649 1068 q 663 1086 656 1081 l 786 1182 q 804 1192 794 1188 q 826 1197 814 1197 q 856 1185 844 1197 q 868 1156 868 1174 q 861 1131 868 1142 q 842 1113 854 1119 l 706 1044 q 691 1039 699 1042 q 675 1036 683 1036 z "},"Ŵ":{"ha":1342,"x_min":42,"x_max":1300,"o":"m 1256 975 q 1287 965 1274 975 q 1300 933 1300 954 q 1297 915 1300 926 l 990 26 q 975 7 986 14 q 953 0 964 0 q 928 6 939 0 q 911 26 917 13 l 665 635 l 676 632 l 431 26 q 413 6 425 13 q 389 0 401 0 q 367 7 378 0 q 353 26 357 14 l 46 915 q 42 932 42 926 q 57 964 42 953 q 88 975 72 975 q 113 968 101 975 q 128 949 124 961 l 407 135 l 392 133 l 633 736 q 648 756 638 749 q 672 763 658 764 q 697 756 686 764 q 713 736 707 749 l 951 136 l 936 131 l 1214 949 q 1229 968 1218 961 q 1256 975 1240 975 m 682 1171 l 560 1075 q 540 1063 549 1068 q 522 1057 531 1057 q 506 1064 513 1057 q 499 1078 499 1071 q 501 1090 499 1085 q 510 1101 504 1094 l 617 1215 q 637 1233 626 1226 q 663 1239 647 1239 l 678 1239 q 703 1233 693 1239 q 725 1215 714 1226 l 831 1103 q 840 1090 838 1096 q 842 1079 842 1085 q 835 1065 842 1072 q 819 1058 829 1058 q 802 1063 811 1058 q 782 1076 793 1068 l 657 1167 l 682 1171 z "},"Ẅ":{"ha":1342,"x_min":42,"x_max":1300,"o":"m 1256 975 q 1287 965 1274 975 q 1300 933 1300 954 q 1297 915 1300 926 l 990 26 q 975 7 986 14 q 953 0 964 0 q 928 6 939 0 q 911 26 917 13 l 665 635 l 676 632 l 431 26 q 413 6 425 13 q 389 0 401 0 q 367 7 378 0 q 353 26 357 14 l 46 915 q 42 932 42 926 q 57 964 42 953 q 88 975 72 975 q 113 968 101 975 q 128 949 124 961 l 407 135 l 392 133 l 633 736 q 648 756 638 749 q 672 763 658 764 q 697 756 686 764 q 713 736 707 749 l 951 136 l 936 131 l 1214 949 q 1229 968 1218 961 q 1256 975 1240 975 m 790 1076 q 749 1091 764 1076 q 733 1132 733 1106 l 733 1146 q 749 1187 733 1172 q 792 1201 765 1201 q 833 1187 818 1201 q 849 1146 849 1172 l 849 1132 q 833 1090 849 1104 q 790 1076 818 1076 m 551 1076 q 510 1091 525 1076 q 494 1132 494 1106 l 494 1146 q 510 1187 494 1172 q 553 1201 526 1201 q 594 1187 579 1201 q 610 1146 610 1172 l 610 1132 q 594 1090 610 1104 q 551 1076 579 1076 z "},"Ẁ":{"ha":1342,"x_min":42,"x_max":1300,"o":"m 1256 975 q 1287 965 1274 975 q 1300 933 1300 954 q 1297 915 1300 926 l 990 26 q 975 7 986 14 q 953 0 964 0 q 928 6 939 0 q 911 26 917 13 l 665 635 l 676 632 l 431 26 q 413 6 425 13 q 389 0 401 0 q 367 7 378 0 q 353 26 357 14 l 46 915 q 42 932 42 926 q 57 964 42 953 q 88 975 72 975 q 113 968 101 975 q 128 949 124 961 l 407 135 l 392 133 l 633 736 q 648 756 638 749 q 672 763 658 764 q 697 756 686 764 q 713 736 707 749 l 951 136 l 936 131 l 1214 949 q 1229 968 1218 961 q 1256 975 1240 975 m 671 1038 q 656 1040 663 1038 q 640 1046 649 1043 l 506 1114 q 478 1157 478 1129 q 490 1187 478 1175 q 519 1199 501 1199 q 542 1194 532 1199 q 560 1183 553 1189 l 683 1088 q 694 1076 690 1082 q 697 1063 697 1069 q 691 1045 697 1053 q 671 1038 685 1038 z "},"X":{"ha":842,"x_min":47,"x_max":794,"o":"m 754 976 q 783 966 771 976 q 794 940 794 956 q 785 914 794 926 l 465 479 l 419 547 l 721 958 q 754 976 735 976 m 90 976 q 125 960 113 976 l 785 63 q 794 38 794 50 q 781 7 794 18 q 751 -4 767 -4 q 718 13 729 -4 l 57 910 q 47 935 47 921 q 60 965 47 953 q 90 976 74 976 m 86 -4 q 58 8 68 -4 q 49 32 49 19 q 58 60 49 44 l 378 494 l 422 425 l 119 14 q 86 -4 107 -4 z "},"Y":{"ha":776,"x_min":26,"x_max":751,"o":"m 710 978 q 740 965 728 978 q 751 936 751 951 q 749 923 751 929 q 743 910 747 917 l 417 461 l 433 515 l 433 42 q 421 13 433 25 q 390 0 408 0 q 360 13 372 0 q 349 42 349 25 l 349 506 l 356 472 l 38 907 q 29 922 32 914 q 26 936 26 929 q 41 966 26 954 q 71 978 56 978 q 106 958 92 978 l 404 551 l 383 554 l 674 958 q 710 978 688 978 z "},"Ý":{"ha":776,"x_min":26,"x_max":751,"o":"m 710 978 q 740 965 728 978 q 751 936 751 951 q 749 923 751 929 q 743 910 747 917 l 417 461 l 433 515 l 433 42 q 421 13 433 25 q 390 0 408 0 q 360 13 372 0 q 349 42 349 25 l 349 506 l 356 472 l 38 907 q 29 922 32 914 q 26 936 26 929 q 41 966 26 954 q 71 978 56 978 q 106 958 92 978 l 404 551 l 383 554 l 674 958 q 710 978 688 978 m 393 1036 q 373 1044 379 1036 q 367 1061 367 1051 q 370 1074 367 1068 q 381 1086 374 1081 l 504 1182 q 522 1192 513 1188 q 544 1197 532 1197 q 574 1185 563 1197 q 586 1156 586 1174 q 579 1131 586 1142 q 560 1113 572 1119 l 424 1044 q 409 1039 417 1042 q 393 1036 401 1036 z "},"Ŷ":{"ha":776,"x_min":26,"x_max":751,"o":"m 710 978 q 740 965 728 978 q 751 936 751 951 q 749 923 751 929 q 743 910 747 917 l 417 461 l 433 515 l 433 42 q 421 13 433 25 q 390 0 408 0 q 360 13 372 0 q 349 42 349 25 l 349 506 l 356 472 l 38 907 q 29 922 32 914 q 26 936 26 929 q 41 966 26 954 q 71 978 56 978 q 106 958 92 978 l 404 551 l 383 554 l 674 958 q 710 978 688 978 m 400 1171 l 278 1075 q 258 1063 267 1068 q 240 1057 249 1057 q 224 1064 231 1057 q 217 1078 217 1071 q 219 1090 217 1085 q 228 1101 222 1094 l 335 1215 q 355 1233 344 1226 q 381 1239 365 1239 l 396 1239 q 422 1233 411 1239 q 443 1215 432 1226 l 549 1103 q 558 1090 556 1096 q 560 1079 560 1085 q 553 1065 560 1072 q 538 1058 547 1058 q 520 1063 529 1058 q 500 1076 511 1068 l 375 1167 l 400 1171 z "},"Ÿ":{"ha":776,"x_min":26,"x_max":751,"o":"m 710 978 q 740 965 728 978 q 751 936 751 951 q 749 923 751 929 q 743 910 747 917 l 417 461 l 433 515 l 433 42 q 421 13 433 25 q 390 0 408 0 q 360 13 372 0 q 349 42 349 25 l 349 506 l 356 472 l 38 907 q 29 922 32 914 q 26 936 26 929 q 41 966 26 954 q 71 978 56 978 q 106 958 92 978 l 404 551 l 383 554 l 674 958 q 710 978 688 978 m 508 1076 q 467 1091 482 1076 q 451 1132 451 1106 l 451 1146 q 467 1187 451 1172 q 510 1201 483 1201 q 551 1187 536 1201 q 567 1146 567 1172 l 567 1132 q 551 1090 567 1104 q 508 1076 536 1076 m 269 1076 q 228 1091 243 1076 q 213 1132 213 1106 l 213 1146 q 228 1187 213 1172 q 271 1201 244 1201 q 313 1187 297 1201 q 328 1146 328 1172 l 328 1132 q 313 1090 328 1104 q 269 1076 297 1076 z "},"Ẏ":{"ha":776,"x_min":26,"x_max":751,"o":"m 710 978 q 740 965 728 978 q 751 936 751 951 q 749 923 751 929 q 743 910 747 917 l 417 461 l 433 515 l 433 42 q 421 13 433 25 q 390 0 408 0 q 360 13 372 0 q 349 42 349 25 l 349 506 l 356 472 l 38 907 q 29 922 32 914 q 26 936 26 929 q 41 966 26 954 q 71 978 56 978 q 106 958 92 978 l 404 551 l 383 554 l 674 958 q 710 978 688 978 m 389 1069 q 345 1084 360 1069 q 331 1125 331 1099 l 331 1139 q 347 1181 331 1167 q 390 1194 363 1194 q 431 1181 417 1194 q 446 1139 446 1167 l 446 1125 q 431 1083 446 1097 q 389 1069 417 1069 z "},"Ỵ":{"ha":776,"x_min":26,"x_max":751,"o":"m 710 978 q 740 965 728 978 q 751 936 751 951 q 749 923 751 929 q 743 910 747 917 l 417 461 l 433 515 l 433 42 q 421 13 433 25 q 390 0 408 0 q 360 13 372 0 q 349 42 349 25 l 349 506 l 356 472 l 38 907 q 29 922 32 914 q 26 936 26 929 q 41 966 26 954 q 71 978 56 978 q 106 958 92 978 l 404 551 l 383 554 l 674 958 q 710 978 688 978 m 390 -193 q 347 -179 361 -193 q 332 -139 332 -165 l 332 -124 q 348 -83 332 -97 q 390 -69 364 -69 q 433 -83 418 -69 q 447 -124 447 -97 l 447 -139 q 433 -179 447 -165 q 390 -193 418 -193 z "},"Ỳ":{"ha":776,"x_min":26,"x_max":751,"o":"m 710 978 q 740 965 728 978 q 751 936 751 951 q 749 923 751 929 q 743 910 747 917 l 417 461 l 433 515 l 433 42 q 421 13 433 25 q 390 0 408 0 q 360 13 372 0 q 349 42 349 25 l 349 506 l 356 472 l 38 907 q 29 922 32 914 q 26 936 26 929 q 41 966 26 954 q 71 978 56 978 q 106 958 92 978 l 404 551 l 383 554 l 674 958 q 710 978 688 978 m 389 1038 q 374 1040 381 1038 q 358 1046 367 1043 l 224 1114 q 196 1157 196 1129 q 208 1187 196 1175 q 238 1199 219 1199 q 260 1194 250 1199 q 278 1183 271 1189 l 401 1088 q 412 1076 408 1082 q 415 1063 415 1069 q 409 1045 415 1053 q 389 1038 403 1038 z "},"Ỷ":{"ha":776,"x_min":26,"x_max":751,"o":"m 710 978 q 740 965 728 978 q 751 936 751 951 q 749 923 751 929 q 743 910 747 917 l 417 461 l 433 515 l 433 42 q 421 13 433 25 q 390 0 408 0 q 360 13 372 0 q 349 42 349 25 l 349 506 l 356 472 l 38 907 q 29 922 32 914 q 26 936 26 929 q 41 966 26 954 q 71 978 56 978 q 106 958 92 978 l 404 551 l 383 554 l 674 958 q 710 978 688 978 m 283 1254 q 329 1285 303 1272 q 386 1297 356 1297 q 455 1281 431 1297 q 490 1240 479 1264 q 500 1194 500 1215 q 488 1152 500 1171 q 453 1111 475 1133 q 441 1094 446 1103 q 436 1074 436 1086 q 426 1057 435 1063 q 404 1051 417 1051 q 385 1058 393 1051 q 378 1075 378 1065 q 381 1102 378 1088 q 397 1131 385 1117 q 426 1163 415 1149 q 438 1193 438 1176 q 423 1223 438 1211 q 388 1235 408 1235 q 352 1227 368 1235 q 324 1210 336 1219 q 301 1199 314 1200 q 278 1210 289 1199 q 271 1231 269 1219 q 283 1254 272 1243 z "},"Ȳ":{"ha":776,"x_min":26,"x_max":751,"o":"m 710 978 q 740 965 728 978 q 751 936 751 951 q 749 923 751 929 q 743 910 747 917 l 417 461 l 433 515 l 433 42 q 421 13 433 25 q 390 0 408 0 q 360 13 372 0 q 349 42 349 25 l 349 506 l 356 472 l 38 907 q 29 922 32 914 q 26 936 26 929 q 41 966 26 954 q 71 978 56 978 q 106 958 92 978 l 404 551 l 383 554 l 674 958 q 710 978 688 978 m 217 1094 q 176 1129 176 1094 q 217 1165 176 1165 l 571 1165 q 611 1129 611 1165 q 571 1094 611 1094 l 217 1094 z "},"Ỹ":{"ha":776,"x_min":26,"x_max":751,"o":"m 710 978 q 740 965 728 978 q 751 936 751 951 q 749 923 751 929 q 743 910 747 917 l 417 461 l 433 515 l 433 42 q 421 13 433 25 q 390 0 408 0 q 360 13 372 0 q 349 42 349 25 l 349 506 l 356 472 l 38 907 q 29 922 32 914 q 26 936 26 929 q 41 966 26 954 q 71 978 56 978 q 106 958 92 978 l 404 551 l 383 554 l 674 958 q 710 978 688 978 m 210 1071 q 183 1087 192 1071 q 178 1132 174 1103 q 222 1201 188 1176 q 299 1225 256 1225 q 368 1205 333 1225 q 435 1165 403 1185 q 492 1144 468 1144 q 523 1160 511 1144 q 538 1199 535 1175 q 545 1225 536 1215 q 568 1235 554 1235 q 597 1218 589 1235 q 601 1175 606 1201 q 581 1122 597 1144 q 542 1088 565 1100 q 489 1076 519 1076 q 420 1097 456 1076 q 351 1136 385 1117 q 294 1156 318 1156 q 261 1142 275 1156 q 240 1101 247 1129 q 231 1079 242 1088 q 210 1071 221 1071 z "}}}
